<mxfile host="app.diagrams.net" modified="2021-12-13T08:51:44.252Z" agent="5.0 (Windows NT 10.0; Win64; x64) AppleWebKit/537.36 (KHTML, like Gecko) Chrome/96.0.4664.93 Safari/537.36" etag="evyDtTRlfaqvT-cttGZv" version="15.9.4" type="github">
  <diagram id="tFbk_ClWiEHs3Jk2IoDk" name="Page-1">
    <mxGraphModel dx="6820" dy="11450" grid="1" gridSize="10" guides="1" tooltips="1" connect="1" arrows="1" fold="1" page="1" pageScale="1" pageWidth="850" pageHeight="1100" math="0" shadow="0">
      <root>
        <mxCell id="0" />
        <mxCell id="1" parent="0" />
        <mxCell id="ZZrCYWezUP8C2Mr_J5jb-1" value="2. tf2_efficientdet_train_pascal_voc" style="text;whiteSpace=wrap;html=1;" vertex="1" parent="1">
          <mxGeometry x="3750" y="120" width="210" height="30" as="geometry" />
        </mxCell>
        <mxCell id="ZZrCYWezUP8C2Mr_J5jb-2" value="&lt;div style=&quot;color: rgb(0, 0, 0); background-color: rgb(255, 255, 254); font-family: monospace, consolas, &amp;quot;courier new&amp;quot;, monospace; font-weight: normal; font-size: 14px; line-height: 19px;&quot;&gt;&lt;div&gt;&lt;span style=&quot;color: #0000ff&quot;&gt;!&lt;/span&gt;&lt;span style=&quot;color: #000000&quot;&gt;git&amp;nbsp;clone&amp;nbsp;--depth&amp;nbsp;&lt;/span&gt;&lt;span style=&quot;color: #098658&quot;&gt;1&lt;/span&gt;&lt;span style=&quot;color: #000000&quot;&gt;&amp;nbsp;https://github.com/google/automl&lt;/span&gt;&lt;/div&gt;&lt;/div&gt;" style="text;whiteSpace=wrap;html=1;" vertex="1" parent="1">
          <mxGeometry x="3805" y="180" width="410" height="30" as="geometry" />
        </mxCell>
        <mxCell id="ZZrCYWezUP8C2Mr_J5jb-3" value="&lt;div style=&quot;color: rgb(0, 0, 0); background-color: rgb(255, 255, 254); font-family: monospace, consolas, &amp;quot;courier new&amp;quot;, monospace; font-weight: normal; font-size: 14px; line-height: 19px;&quot;&gt;&lt;div&gt;&lt;span style=&quot;color: #0000ff&quot;&gt;!&lt;/span&gt;&lt;span style=&quot;color: #000000&quot;&gt;cd&amp;nbsp;/content/automl/efficientdet;&amp;nbsp;pip&amp;nbsp;install&amp;nbsp;-r&amp;nbsp;requirements.txt&lt;/span&gt;&lt;/div&gt;&lt;/div&gt;" style="text;whiteSpace=wrap;html=1;" vertex="1" parent="1">
          <mxGeometry x="3805" y="230" width="500" height="30" as="geometry" />
        </mxCell>
        <mxCell id="ZZrCYWezUP8C2Mr_J5jb-4" value="&lt;div style=&quot;color: rgb(0, 0, 0); background-color: rgb(255, 255, 254); font-family: monospace, consolas, &amp;quot;courier new&amp;quot;, monospace; font-weight: normal; font-size: 14px; line-height: 19px;&quot;&gt;&lt;div&gt;&lt;span style=&quot;color: #af00db&quot;&gt;import&lt;/span&gt;&lt;span style=&quot;color: #000000&quot;&gt;&amp;nbsp;os&lt;/span&gt;&lt;/div&gt;&lt;div&gt;&lt;span style=&quot;color: #af00db&quot;&gt;import&lt;/span&gt;&lt;span style=&quot;color: #000000&quot;&gt;&amp;nbsp;sys&lt;/span&gt;&lt;/div&gt;&lt;div&gt;&lt;span style=&quot;color: #af00db&quot;&gt;import&lt;/span&gt;&lt;span style=&quot;color: #000000&quot;&gt;&amp;nbsp;tensorflow.compat.v1&amp;nbsp;&lt;/span&gt;&lt;span style=&quot;color: #af00db&quot;&gt;as&lt;/span&gt;&lt;span style=&quot;color: #000000&quot;&gt;&amp;nbsp;tf&lt;/span&gt;&lt;/div&gt;&lt;br&gt;&lt;div&gt;&lt;span style=&quot;color: #000000&quot;&gt;sys.path.append(&lt;/span&gt;&lt;span style=&quot;color: #a31515&quot;&gt;&#39;/content/automl/efficientdet&#39;&lt;/span&gt;&lt;span style=&quot;color: #000000&quot;&gt;)&lt;/span&gt;&lt;/div&gt;&lt;br&gt;&lt;div&gt;&lt;span style=&quot;color: #af00db&quot;&gt;import&lt;/span&gt;&lt;span style=&quot;color: #000000&quot;&gt;&amp;nbsp;hparams_config&lt;/span&gt;&lt;/div&gt;&lt;div&gt;&lt;span style=&quot;color: #af00db&quot;&gt;from&lt;/span&gt;&lt;span style=&quot;color: #000000&quot;&gt;&amp;nbsp;tf2&amp;nbsp;&lt;/span&gt;&lt;span style=&quot;color: #af00db&quot;&gt;import&lt;/span&gt;&lt;span style=&quot;color: #000000&quot;&gt;&amp;nbsp;anchors&lt;/span&gt;&lt;/div&gt;&lt;div&gt;&lt;span style=&quot;color: #af00db&quot;&gt;from&lt;/span&gt;&lt;span style=&quot;color: #000000&quot;&gt;&amp;nbsp;model_inspect&amp;nbsp;&lt;/span&gt;&lt;span style=&quot;color: #af00db&quot;&gt;import&lt;/span&gt;&lt;span style=&quot;color: #000000&quot;&gt;&amp;nbsp;ModelInspector&lt;/span&gt;&lt;/div&gt;&lt;/div&gt;" style="text;whiteSpace=wrap;html=1;" vertex="1" parent="1">
          <mxGeometry x="3805" y="300" width="370" height="190" as="geometry" />
        </mxCell>
        <mxCell id="ZZrCYWezUP8C2Mr_J5jb-5" value="&lt;h3 class=&quot;text-cell-section-header&quot; style=&quot;color: rgb(33, 33, 33); font-family: roboto, noto, sans-serif; font-weight: 400; margin-bottom: 0.5em; position: relative; margin-top: 0.5em; font-size: 20px; font-style: normal; letter-spacing: normal; text-indent: 0px; text-transform: none; word-spacing: 0px; background-color: rgb(255, 255, 255);&quot;&gt;PASCAL V0C 2007 데이터 세트 다운로드&lt;/h3&gt;" style="text;whiteSpace=wrap;html=1;" vertex="1" parent="1">
          <mxGeometry x="3770" y="520" width="390" height="50" as="geometry" />
        </mxCell>
        <mxCell id="ZZrCYWezUP8C2Mr_J5jb-6" value="&lt;div style=&quot;color: rgb(0, 0, 0); background-color: rgb(255, 255, 254); font-family: monospace, consolas, &amp;quot;courier new&amp;quot;, monospace; font-weight: normal; font-size: 14px; line-height: 19px;&quot;&gt;&lt;div&gt;&lt;span style=&quot;color: #0000ff&quot;&gt;!&lt;/span&gt;&lt;span style=&quot;color: #000000&quot;&gt;wget&amp;nbsp;http://pjreddie.com/media/files/VOCtrainval_06-Nov-&lt;/span&gt;&lt;span style=&quot;color: #098658&quot;&gt;2007.&lt;/span&gt;&lt;span style=&quot;color: #000000&quot;&gt;tar&lt;/span&gt;&lt;/div&gt;&lt;div&gt;&lt;span style=&quot;color: #0000ff&quot;&gt;!&lt;/span&gt;&lt;span style=&quot;color: #000000&quot;&gt;tar&amp;nbsp;-xvf&amp;nbsp;VOCtrainval_06-Nov-&lt;/span&gt;&lt;span style=&quot;color: #098658&quot;&gt;2007.&lt;/span&gt;&lt;span style=&quot;color: #000000&quot;&gt;tar&amp;nbsp;&amp;gt;&amp;nbsp;/dev/null&amp;nbsp;&lt;/span&gt;&lt;span style=&quot;color: #098658&quot;&gt;2&lt;/span&gt;&lt;span style=&quot;color: #000000&quot;&gt;&amp;gt;&amp;amp;&lt;/span&gt;&lt;span style=&quot;color: #098658&quot;&gt;1&lt;/span&gt;&lt;/div&gt;&lt;/div&gt;" style="text;whiteSpace=wrap;html=1;" vertex="1" parent="1">
          <mxGeometry x="3810" y="590" width="500" height="50" as="geometry" />
        </mxCell>
        <mxCell id="ZZrCYWezUP8C2Mr_J5jb-7" value="&lt;div style=&quot;color: rgb(0, 0, 0); background-color: rgb(255, 255, 254); font-family: monospace, consolas, &amp;quot;courier new&amp;quot;, monospace; font-weight: normal; font-size: 14px; line-height: 19px;&quot;&gt;&lt;div&gt;&lt;span style=&quot;color: #0000ff&quot;&gt;!&lt;/span&gt;&lt;span style=&quot;color: #000000&quot;&gt;ls&amp;nbsp;-lia&amp;nbsp;/content/VOCdevkit/VOC2007/Annotations/*.xml|&amp;nbsp;wc&amp;nbsp;-l&lt;/span&gt;&lt;/div&gt;&lt;/div&gt;" style="text;whiteSpace=wrap;html=1;" vertex="1" parent="1">
          <mxGeometry x="3810" y="660" width="470" height="30" as="geometry" />
        </mxCell>
        <mxCell id="ZZrCYWezUP8C2Mr_J5jb-8" value="&lt;span style=&quot;color: rgb(33, 33, 33); font-family: monospace; font-size: 14px; font-style: normal; font-weight: 400; letter-spacing: normal; text-indent: 0px; text-transform: none; word-spacing: 0px; background-color: rgb(255, 255, 255); display: inline; float: none;&quot;&gt;5011&lt;/span&gt;" style="text;whiteSpace=wrap;html=1;" vertex="1" parent="1">
          <mxGeometry x="3880" y="710" width="50" height="30" as="geometry" />
        </mxCell>
        <mxCell id="ZZrCYWezUP8C2Mr_J5jb-9" value="&lt;h3 class=&quot;text-cell-section-header&quot; style=&quot;color: rgb(33, 33, 33); font-family: roboto, noto, sans-serif; font-weight: 400; margin-bottom: 0.5em; position: relative; margin-top: 0.5em; font-size: 20px; font-style: normal; letter-spacing: normal; text-indent: 0px; text-transform: none; word-spacing: 0px; background-color: rgb(255, 255, 255);&quot;&gt;학습 데이터와 검증 데이터를 tfrecord 형태로 변환&lt;/h3&gt;" style="text;whiteSpace=wrap;html=1;" vertex="1" parent="1">
          <mxGeometry x="3770" y="760" width="480" height="50" as="geometry" />
        </mxCell>
        <mxCell id="ZZrCYWezUP8C2Mr_J5jb-10" value="&lt;div style=&quot;color: rgb(0, 0, 0); background-color: rgb(255, 255, 254); font-family: monospace, consolas, &amp;quot;courier new&amp;quot;, monospace; font-weight: normal; font-size: 14px; line-height: 19px;&quot;&gt;&lt;div&gt;&lt;span style=&quot;color: #0000ff&quot;&gt;!&lt;/span&gt;&lt;span style=&quot;color: #000000&quot;&gt;mkdir&amp;nbsp;-p&amp;nbsp;/content/tfrecord/train&lt;/span&gt;&lt;/div&gt;&lt;div&gt;&lt;span style=&quot;color: #0000ff&quot;&gt;!&lt;/span&gt;&lt;span style=&quot;color: #000000&quot;&gt;mkdir&amp;nbsp;-p&amp;nbsp;/content/tfrecord/val&lt;/span&gt;&lt;/div&gt;&lt;br&gt;&lt;div&gt;&lt;span style=&quot;color: #008000&quot;&gt;#&amp;nbsp;--output_path=/content/tfrecord/train/pascal에서&amp;nbsp;directory는&amp;nbsp;/content/tfrecord/train/&amp;nbsp;까지,&amp;nbsp;뒤의&amp;nbsp;pascal을&amp;nbsp;tfrecord파일의&amp;nbsp;prefix임..&amp;nbsp;&lt;/span&gt;&lt;/div&gt;&lt;div&gt;&lt;span style=&quot;color: #0000ff&quot;&gt;!&lt;/span&gt;&lt;span style=&quot;color: #000000&quot;&gt;cd&amp;nbsp;/content/automl/efficientdet;&amp;nbsp;PYTHONPATH=&lt;/span&gt;&lt;span style=&quot;color: #a31515&quot;&gt;&quot;/content/automl/efficientdet:$PYTHONPATH&quot;&lt;/span&gt;&lt;span style=&quot;color: #000000&quot;&gt;&amp;nbsp;python&amp;nbsp;dataset/create_pascal_tfrecord.py&amp;nbsp;&amp;nbsp;\&lt;/span&gt;&lt;/div&gt;&lt;div&gt;&lt;span style=&quot;color: #000000&quot;&gt;&amp;nbsp;&amp;nbsp;&amp;nbsp;&amp;nbsp;--data_dir=/content/VOCdevkit&amp;nbsp;--year=VOC2007&amp;nbsp;--&lt;/span&gt;&lt;span style=&quot;color: #267f99&quot;&gt;set&lt;/span&gt;&lt;span style=&quot;color: #000000&quot;&gt;=train&amp;nbsp;--output_path=/content/tfrecord/train/pascal&lt;/span&gt;&lt;/div&gt;&lt;br&gt;&lt;div&gt;&lt;span style=&quot;color: #0000ff&quot;&gt;!&lt;/span&gt;&lt;span style=&quot;color: #000000&quot;&gt;cd&amp;nbsp;/content/automl/efficientdet;&amp;nbsp;PYTHONPATH=&lt;/span&gt;&lt;span style=&quot;color: #a31515&quot;&gt;&quot;/content/automl/efficientdet:$PYTHONPATH&quot;&lt;/span&gt;&lt;span style=&quot;color: #000000&quot;&gt;&amp;nbsp;python&amp;nbsp;dataset/create_pascal_tfrecord.py&amp;nbsp;&amp;nbsp;\&lt;/span&gt;&lt;/div&gt;&lt;div&gt;&lt;span style=&quot;color: #000000&quot;&gt;&amp;nbsp;&amp;nbsp;&amp;nbsp;&amp;nbsp;--data_dir=/content/VOCdevkit&amp;nbsp;--year=VOC2007&amp;nbsp;--&lt;/span&gt;&lt;span style=&quot;color: #267f99&quot;&gt;set&lt;/span&gt;&lt;span style=&quot;color: #000000&quot;&gt;=val&amp;nbsp;--output_path=/content/tfrecord/val/pascal&lt;/span&gt;&lt;/div&gt;&lt;br&gt;&lt;/div&gt;" style="text;whiteSpace=wrap;html=1;" vertex="1" parent="1">
          <mxGeometry x="3805" y="840" width="550" height="280" as="geometry" />
        </mxCell>
        <mxCell id="ZZrCYWezUP8C2Mr_J5jb-11" value="&lt;span style=&quot;color: rgb(33 , 33 , 33) ; font-family: monospace ; font-size: 14px ; font-style: normal ; font-weight: 400 ; letter-spacing: normal ; text-indent: 0px ; text-transform: none ; word-spacing: 0px ; background-color: rgb(255 , 255 , 255) ; display: inline ; float: none&quot;&gt;I1208 11:06:21.520007 139845113943936 create_pascal_tfrecord.py:254] Writing to output directory: /content/tfrecord/train&lt;br&gt;I1208 11:06:21.531928 139845113943936 create_pascal_tfrecord.py:287] Reading from PASCAL VOC2007 dataset.&lt;br&gt;I1208 11:06:21.532043 139845113943936 create_pascal_tfrecord.py:292] On image 0 of 2501&lt;br&gt;I1208 11:06:21.681272 139845113943936 create_pascal_tfrecord.py:292] On image 100 of 2501&lt;br&gt;I1208 11:06:21.820690 139845113943936 create_pascal_tfrecord.py:292] On image 200 of 2501&lt;br&gt;I1208 11:06:24.549917 139845113943936 create_pascal_tfrecord.py:292] On image 2300 of 2501&lt;br&gt;I1208 11:06:24.677992 139845113943936 create_pascal_tfrecord.py:292] On image 2400 of 2501&lt;br&gt;I1208 11:06:24.799202 139845113943936 create_pascal_tfrecord.py:292] On image 2500 of 2501&lt;br&gt;I1208 11:06:29.488929 140697936627584 create_pascal_tfrecord.py:254] Writing to output directory: /content/tfrecord/val&lt;br&gt;I1208 11:06:29.501246 140697936627584 create_pascal_tfrecord.py:287] Reading from PASCAL VOC2007 dataset.&lt;br&gt;I1208 11:06:29.501367 140697936627584 create_pascal_tfrecord.py:292] On image 0 of 2510&lt;br&gt;I1208 11:06:29.630910 140697936627584 create_pascal_tfrecord.py:292] On image 100 of 2510&lt;br&gt;I1208 11:06:29.753052 140697936627584 create_pascal_tfrecord.py:292] On image 200 of 2510&lt;br&gt;I1208 11:06:32.395010 140697936627584 create_pascal_tfrecord.py:292] On image 2200 of 2510&lt;br&gt;I1208 11:06:32.536167 140697936627584 create_pascal_tfrecord.py:292] On image 2300 of 2510&lt;br&gt;I1208 11:06:32.706319 140697936627584 create_pascal_tfrecord.py:292] On image 2400 of 2510&lt;br&gt;I1208 11:06:32.842475 140697936627584 create_pascal_tfrecord.py:292] On image 2500 of 2510&lt;/span&gt;" style="text;whiteSpace=wrap;html=1;" vertex="1" parent="1">
          <mxGeometry x="3990" y="1130" width="1070" height="320" as="geometry" />
        </mxCell>
        <mxCell id="ZZrCYWezUP8C2Mr_J5jb-12" value="&lt;h3 class=&quot;text-cell-section-header&quot; style=&quot;color: rgb(33, 33, 33); font-family: roboto, noto, sans-serif; font-weight: 400; margin-bottom: 0.5em; position: relative; margin-top: 0.5em; font-size: 20px; font-style: normal; letter-spacing: normal; text-indent: 0px; text-transform: none; word-spacing: 0px; background-color: rgb(255, 255, 255);&quot;&gt;Train용 config 설정.&lt;/h3&gt;" style="text;whiteSpace=wrap;html=1;" vertex="1" parent="1">
          <mxGeometry x="3770" y="2100" width="200" height="50" as="geometry" />
        </mxCell>
        <mxCell id="ZZrCYWezUP8C2Mr_J5jb-13" value="&lt;div style=&quot;color: rgb(0, 0, 0); background-color: rgb(255, 255, 254); font-family: monospace, consolas, &amp;quot;courier new&amp;quot;, monospace; font-weight: normal; font-size: 14px; line-height: 19px;&quot;&gt;&lt;div&gt;&lt;span style=&quot;color: #008000&quot;&gt;#&amp;nbsp;epochs시마다&amp;nbsp;학습된&amp;nbsp;weight파일을&amp;nbsp;저장한&amp;nbsp;디렉토리&amp;nbsp;Google&amp;nbsp;drive로&amp;nbsp;설정.&amp;nbsp;&lt;/span&gt;&lt;/div&gt;&lt;div&gt;&lt;span style=&quot;color: #008000&quot;&gt;#&amp;nbsp;Google&amp;nbsp;Drive&amp;nbsp;접근을&amp;nbsp;위한&amp;nbsp;Mount&amp;nbsp;적용.&amp;nbsp;&lt;/span&gt;&lt;/div&gt;&lt;div&gt;&lt;span style=&quot;color: #af00db&quot;&gt;import&lt;/span&gt;&lt;span style=&quot;color: #000000&quot;&gt;&amp;nbsp;os,&amp;nbsp;sys&amp;nbsp;&lt;/span&gt;&lt;/div&gt;&lt;div&gt;&lt;span style=&quot;color: #af00db&quot;&gt;from&lt;/span&gt;&lt;span style=&quot;color: #000000&quot;&gt;&amp;nbsp;google.colab&amp;nbsp;&lt;/span&gt;&lt;span style=&quot;color: #af00db&quot;&gt;import&lt;/span&gt;&lt;span style=&quot;color: #000000&quot;&gt;&amp;nbsp;drive&amp;nbsp;&lt;/span&gt;&lt;/div&gt;&lt;br&gt;&lt;div&gt;&lt;span style=&quot;color: #000000&quot;&gt;drive.mount(&lt;/span&gt;&lt;span style=&quot;color: #a31515&quot;&gt;&#39;/content/gdrive&#39;&lt;/span&gt;&lt;span style=&quot;color: #000000&quot;&gt;)&lt;/span&gt;&lt;/div&gt;&lt;br&gt;&lt;div&gt;&lt;span style=&quot;color: #008000&quot;&gt;#&amp;nbsp;soft&amp;nbsp;link로&amp;nbsp;Google&amp;nbsp;Drive&amp;nbsp;Directory&amp;nbsp;연결.&amp;nbsp;&lt;/span&gt;&lt;/div&gt;&lt;div&gt;&lt;span style=&quot;color: #0000ff&quot;&gt;!&lt;/span&gt;&lt;span style=&quot;color: #000000&quot;&gt;ln&amp;nbsp;-s&amp;nbsp;/content/gdrive/My\&amp;nbsp;Drive/&amp;nbsp;/mydrive&lt;/span&gt;&lt;/div&gt;&lt;div&gt;&lt;span style=&quot;color: #0000ff&quot;&gt;!&lt;/span&gt;&lt;span style=&quot;color: #000000&quot;&gt;ls&amp;nbsp;/mydrive&lt;/span&gt;&lt;/div&gt;&lt;div&gt;&lt;span style=&quot;color: #0000ff&quot;&gt;!&lt;/span&gt;&lt;span style=&quot;color: #000000&quot;&gt;mkdir&amp;nbsp;-p&amp;nbsp;/mydrive/model_trained&lt;/span&gt;&lt;/div&gt;&lt;/div&gt;" style="text;whiteSpace=wrap;html=1;" vertex="1" parent="1">
          <mxGeometry x="3810" y="2160" width="550" height="240" as="geometry" />
        </mxCell>
        <mxCell id="ZZrCYWezUP8C2Mr_J5jb-14" value="&lt;span style=&quot;color: rgb(33, 33, 33); font-family: monospace; font-size: 14px; font-style: normal; font-weight: 400; letter-spacing: normal; text-indent: 0px; text-transform: none; word-spacing: 0px; background-color: rgb(255, 255, 255); display: inline; float: none;&quot;&gt;Mounted at /content/gdrive&#xa; 우크렐레&lt;/span&gt;" style="text;whiteSpace=wrap;html=1;" vertex="1" parent="1">
          <mxGeometry x="3870" y="2410" width="220" height="50" as="geometry" />
        </mxCell>
        <mxCell id="ZZrCYWezUP8C2Mr_J5jb-15" style="edgeStyle=orthogonalEdgeStyle;rounded=0;orthogonalLoop=1;jettySize=auto;html=1;" edge="1" parent="1" source="ZZrCYWezUP8C2Mr_J5jb-16" target="ZZrCYWezUP8C2Mr_J5jb-17">
          <mxGeometry relative="1" as="geometry" />
        </mxCell>
        <mxCell id="ZZrCYWezUP8C2Mr_J5jb-16" value="&lt;div style=&quot;color: rgb(0, 0, 0); background-color: rgb(255, 255, 254); font-family: monospace, consolas, &amp;quot;courier new&amp;quot;, monospace; font-weight: normal; font-size: 14px; line-height: 19px;&quot;&gt;&lt;div&gt;&lt;span style=&quot;color: #000000&quot;&gt;config&amp;nbsp;=&amp;nbsp;hparams_config.get_detection_config(&lt;/span&gt;&lt;span style=&quot;color: #a31515&quot;&gt;&#39;efficientdet-d0&#39;&lt;/span&gt;&lt;span style=&quot;color: #000000&quot;&gt;)&lt;/span&gt;&lt;/div&gt;&lt;div&gt;&lt;span style=&quot;color: #795e26&quot;&gt;print&lt;/span&gt;&lt;span style=&quot;color: #000000&quot;&gt;(config)&lt;/span&gt;&lt;/div&gt;&lt;/div&gt;" style="text;whiteSpace=wrap;html=1;" vertex="1" parent="1">
          <mxGeometry x="3805" y="2490" width="490" height="50" as="geometry" />
        </mxCell>
        <mxCell id="ZZrCYWezUP8C2Mr_J5jb-17" value="&lt;span style=&quot;color: rgb(33, 33, 33); font-family: monospace; font-size: 14px; font-style: normal; font-weight: 400; letter-spacing: normal; text-indent: 0px; text-transform: none; word-spacing: 0px; background-color: rgb(255, 255, 255); display: inline; float: none;&quot;&gt;act_type: swish&#xa;alpha: 0.25&#xa;anchor_scale: 4.0&#xa;apply_bn_for_resampling: true&#xa;aspect_ratios:&#xa;- 1.0&#xa;- 2.0&#xa;- 0.5&#xa;autoaugment_policy: null&#xa;backbone_config: null&#xa;backbone_name: efficientnet-b0&#xa;box_class_repeats: 3&#xa;box_loss_weight: 50.0&#xa;ckpt_var_scope: null&#xa;clip_gradients_norm: 10.0&#xa;conv_after_downsample: false&#xa;conv_bn_act_pattern: false&#xa;data_format: channels_last&#xa;dataset_type: null&#xa;delta: 0.1&#xa;drop_remainder: true&#xa;first_lr_drop_epoch: 200.0&#xa;fpn_cell_repeats: 3&#xa;fpn_config: null&#xa;fpn_name: null&#xa;fpn_num_filters: 64&#xa;fpn_weight_method: null&#xa;gamma: 1.5&#xa;grad_checkpoint: false&#xa;grid_mask: false&#xa;heads:&#xa;- object_detection&#xa;image_size: 512&#xa;img_summary_steps: null&#xa;input_rand_hflip: true&#xa;iou_loss_type: null&#xa;iou_loss_weight: 1.0&#xa;is_training_bn: true&#xa;jitter_max: 2.0&#xa;jitter_min: 0.1&#xa;label_map: null&#xa;label_smoothing: 0.0&#xa;learning_rate: 0.08&#xa;loss_scale: null&#xa;lr_decay_method: cosine&#xa;lr_warmup_epoch: 1.0&#xa;lr_warmup_init: 0.008&#xa;map_freq: 5&#xa;max_instances_per_image: 100&#xa;max_level: 7&#xa;mean_rgb:&#xa;- 123.675&#xa;- 116.28&#xa;- 103.53&#xa;min_level: 3&#xa;mixed_precision: false&#xa;model_optimizations: {}&#xa;momentum: 0.9&#xa;moving_average_decay: 0.9998&#xa;name: efficientdet-d0&#xa;nms_configs:&#xa;    iou_thresh: null&#xa;    max_nms_inputs: 0&#xa;    max_output_size: 100&#xa;    method: gaussian&#xa;    pyfunc: false&#xa;    score_thresh: 0.0&#xa;    sigma: null&#xa;num_classes: 90&#xa;num_epochs: 300&#xa;num_scales: 3&#xa;optimizer: sgd&#xa;poly_lr_power: 0.9&#xa;positives_momentum: null&#xa;regenerate_source_id: false&#xa;sample_image: null&#xa;save_freq: epoch&#xa;scale_range: false&#xa;second_lr_drop_epoch: 250.0&#xa;seg_num_classes: 3&#xa;separable_conv: true&#xa;skip_crowd_during_training: true&#xa;skip_mismatch: true&#xa;stddev_rgb:&#xa;- 58.395&#xa;- 57.120000000000005&#xa;- 57.375&#xa;strategy: null&#xa;survival_prob: null&#xa;target_size: null&#xa;tflite_max_detections: 100&#xa;use_keras_model: true&#xa;var_freeze_expr: null&#xa;verbose: 1&#xa;weight_decay: 4.0e-05&lt;/span&gt;" style="text;whiteSpace=wrap;html=1;" vertex="1" parent="1">
          <mxGeometry x="4740" y="1695" width="470" height="1640" as="geometry" />
        </mxCell>
        <mxCell id="ZZrCYWezUP8C2Mr_J5jb-18" value="&lt;div style=&quot;color: rgb(0, 0, 0); background-color: rgb(255, 255, 254); font-family: monospace, consolas, &amp;quot;courier new&amp;quot;, monospace; font-weight: normal; font-size: 14px; line-height: 19px;&quot;&gt;&lt;div&gt;&lt;span style=&quot;color: #0000ff&quot;&gt;class&lt;/span&gt;&lt;span style=&quot;color: #000000&quot;&gt;&amp;nbsp;TRAIN_CFG:&lt;/span&gt;&lt;/div&gt;&lt;div&gt;&lt;span style=&quot;color: #000000&quot;&gt;&amp;nbsp;&amp;nbsp;model_name&amp;nbsp;=&amp;nbsp;&lt;/span&gt;&lt;span style=&quot;color: #a31515&quot;&gt;&#39;efficientdet-d0&#39;&lt;/span&gt;&lt;span style=&quot;color: #000000&quot;&gt;&amp;nbsp;&lt;/span&gt;&lt;span style=&quot;color: #008000&quot;&gt;#&amp;nbsp;efficientdet&amp;nbsp;모델명&lt;/span&gt;&lt;/div&gt;&lt;div&gt;&lt;span style=&quot;color: #000000&quot;&gt;&amp;nbsp;&amp;nbsp;strategy&amp;nbsp;=&amp;nbsp;&lt;/span&gt;&lt;span style=&quot;color: #a31515&quot;&gt;&#39;&#39;&lt;/span&gt;&lt;span style=&quot;color: #000000&quot;&gt;&amp;nbsp;&lt;/span&gt;&lt;span style=&quot;color: #008000&quot;&gt;#&amp;nbsp;tpu,&amp;nbsp;여러개의&amp;nbsp;GPU들,&amp;nbsp;단일&amp;nbsp;GPU&amp;nbsp;일때&amp;nbsp;학습&amp;nbsp;strategy&amp;nbsp;설정.&amp;nbsp;&lt;/span&gt;&lt;/div&gt;&lt;div&gt;&lt;span style=&quot;color: #000000&quot;&gt;&amp;nbsp;&amp;nbsp;model_dir&amp;nbsp;=&amp;nbsp;&lt;/span&gt;&lt;span style=&quot;color: #a31515&quot;&gt;&#39;/mydrive/model_trained&#39;&lt;/span&gt;&lt;span style=&quot;color: #000000&quot;&gt;&amp;nbsp;&lt;/span&gt;&lt;span style=&quot;color: #008000&quot;&gt;#&amp;nbsp;학습된&amp;nbsp;모델이&amp;nbsp;저장될&amp;nbsp;위치&lt;/span&gt;&lt;/div&gt;&lt;div&gt;&lt;span style=&quot;color: #000000&quot;&gt;&amp;nbsp;&amp;nbsp;pretrained_ckpt&amp;nbsp;=&amp;nbsp;&lt;/span&gt;&lt;span style=&quot;color: #a31515&quot;&gt;&#39;/content/efficientdet-d0&#39;&lt;/span&gt;&lt;span style=&quot;color: #000000&quot;&gt;&amp;nbsp;&lt;/span&gt;&lt;/div&gt;&lt;div&gt;&lt;span style=&quot;color: #000000&quot;&gt;&amp;nbsp;&amp;nbsp;hparams&amp;nbsp;=&amp;nbsp;&lt;/span&gt;&lt;span style=&quot;color: #a31515&quot;&gt;&#39;num_classes=20,moving_average_decay=0,mixed_precision=true&#39;&lt;/span&gt;&lt;/div&gt;&lt;div&gt;&lt;span style=&quot;color: #000000&quot;&gt;&amp;nbsp;&amp;nbsp;use_xla&amp;nbsp;=&amp;nbsp;&lt;/span&gt;&lt;span style=&quot;color: #0000ff&quot;&gt;False&lt;/span&gt;&lt;/div&gt;&lt;div&gt;&lt;span style=&quot;color: #000000&quot;&gt;&amp;nbsp;&amp;nbsp;use_fake_data&amp;nbsp;=&amp;nbsp;&lt;/span&gt;&lt;span style=&quot;color: #0000ff&quot;&gt;False&lt;/span&gt;&lt;/div&gt;&lt;div&gt;&lt;span style=&quot;color: #000000&quot;&gt;&amp;nbsp;&amp;nbsp;batch_size&amp;nbsp;=&amp;nbsp;&lt;/span&gt;&lt;span style=&quot;color: #09885a&quot;&gt;8&lt;/span&gt;&lt;/div&gt;&lt;div&gt;&lt;span style=&quot;color: #000000&quot;&gt;&amp;nbsp;&amp;nbsp;eval_samples&amp;nbsp;=&amp;nbsp;&lt;/span&gt;&lt;span style=&quot;color: #09885a&quot;&gt;5000&lt;/span&gt;&lt;span style=&quot;color: #000000&quot;&gt;&amp;nbsp;&lt;/span&gt;&lt;span style=&quot;color: #008000&quot;&gt;#&amp;nbsp;evaluation&amp;nbsp;image&amp;nbsp;데이터&amp;nbsp;갯수&lt;/span&gt;&lt;/div&gt;&lt;div&gt;&lt;span style=&quot;color: #000000&quot;&gt;&amp;nbsp;&amp;nbsp;steps_per_execution&amp;nbsp;=&amp;nbsp;&lt;/span&gt;&lt;span style=&quot;color: #09885a&quot;&gt;1&lt;/span&gt;&lt;span style=&quot;color: #000000&quot;&gt;&amp;nbsp;&lt;/span&gt;&lt;span style=&quot;color: #008000&quot;&gt;#&amp;nbsp;ModelCheckPoint의&amp;nbsp;save_freq&amp;nbsp;를&amp;nbsp;숫자로&amp;nbsp;설정할&amp;nbsp;경우&amp;nbsp;사용.&amp;nbsp;&lt;/span&gt;&lt;/div&gt;&lt;div&gt;&lt;span style=&quot;color: #000000&quot;&gt;&amp;nbsp;&amp;nbsp;num_examples_per_epoch&amp;nbsp;=&amp;nbsp;&lt;/span&gt;&lt;span style=&quot;color: #09885a&quot;&gt;2500&lt;/span&gt;&lt;span style=&quot;color: #000000&quot;&gt;&amp;nbsp;&lt;/span&gt;&lt;span style=&quot;color: #008000&quot;&gt;#&amp;nbsp;1&amp;nbsp;epochs&amp;nbsp;시&amp;nbsp;적용하는&amp;nbsp;examples&amp;nbsp;개수&amp;nbsp;&lt;/span&gt;&lt;/div&gt;&lt;div&gt;&lt;span style=&quot;color: #000000&quot;&gt;&amp;nbsp;&amp;nbsp;num_epochs&amp;nbsp;=&amp;nbsp;&lt;/span&gt;&lt;span style=&quot;color: #09885a&quot;&gt;15&lt;/span&gt;&lt;span style=&quot;color: #000000&quot;&gt;&amp;nbsp;&lt;/span&gt;&lt;span style=&quot;color: #008000&quot;&gt;#&amp;nbsp;epochs&amp;nbsp;횟수&lt;/span&gt;&lt;/div&gt;&lt;div&gt;&lt;span style=&quot;color: #000000&quot;&gt;&amp;nbsp;&amp;nbsp;train_file_pattern&amp;nbsp;=&amp;nbsp;&lt;/span&gt;&lt;span style=&quot;color: #a31515&quot;&gt;&#39;/content/tfrecord/train/pascal-*.tfrecord&#39;&lt;/span&gt;&lt;span style=&quot;color: #000000&quot;&gt;&amp;nbsp;&lt;/span&gt;&lt;span style=&quot;color: #008000&quot;&gt;#&amp;nbsp;학습용&amp;nbsp;tfrecords를&amp;nbsp;glob&amp;nbsp;형태로&amp;nbsp;가져오는&amp;nbsp;표현식.&amp;nbsp;&lt;/span&gt;&lt;/div&gt;&lt;div&gt;&lt;span style=&quot;color: #000000&quot;&gt;&amp;nbsp;&amp;nbsp;val_file_pattern&amp;nbsp;=&amp;nbsp;&lt;/span&gt;&lt;span style=&quot;color: #a31515&quot;&gt;&#39;/content/tfrecord/val/pascal-*.tfrecord&#39;&lt;/span&gt;&lt;span style=&quot;color: #000000&quot;&gt;&amp;nbsp;&lt;/span&gt;&lt;span style=&quot;color: #008000&quot;&gt;#&amp;nbsp;검증용&amp;nbsp;tfrecords를&amp;nbsp;glob&amp;nbsp;형태로&amp;nbsp;가져오는&amp;nbsp;표현식.&amp;nbsp;&lt;/span&gt;&lt;/div&gt;&lt;div&gt;&lt;span style=&quot;color: #000000&quot;&gt;&amp;nbsp;&amp;nbsp;val_json_file&amp;nbsp;=&amp;nbsp;&lt;/span&gt;&lt;span style=&quot;color: #0000ff&quot;&gt;None&lt;/span&gt;&lt;span style=&quot;color: #000000&quot;&gt;&amp;nbsp;&lt;/span&gt;&lt;span style=&quot;color: #008000&quot;&gt;#&amp;nbsp;optional&amp;nbsp;coco&amp;nbsp;validation&amp;nbsp;json&amp;nbsp;&lt;/span&gt;&lt;/div&gt;&lt;div&gt;&lt;span style=&quot;color: #000000&quot;&gt;&amp;nbsp;&amp;nbsp;mode&amp;nbsp;=&amp;nbsp;&lt;/span&gt;&lt;span style=&quot;color: #a31515&quot;&gt;&#39;traineval&#39;&lt;/span&gt;&lt;span style=&quot;color: #000000&quot;&gt;&amp;nbsp;&lt;/span&gt;&lt;span style=&quot;color: #008000&quot;&gt;#&amp;nbsp;train만&amp;nbsp;적용&amp;nbsp;또는&amp;nbsp;train과&amp;nbsp;eval함께&amp;nbsp;적용(traineval)&lt;/span&gt;&lt;/div&gt;&lt;div&gt;&lt;span style=&quot;color: #000000&quot;&gt;&amp;nbsp;&amp;nbsp;&lt;/span&gt;&lt;/div&gt;&lt;div&gt;&lt;span style=&quot;color: #000000&quot;&gt;&amp;nbsp;&amp;nbsp;num_cores&amp;nbsp;=&amp;nbsp;&lt;/span&gt;&lt;span style=&quot;color: #09885a&quot;&gt;2&lt;/span&gt;&lt;span style=&quot;color: #000000&quot;&gt;&amp;nbsp;&lt;/span&gt;&lt;span style=&quot;color: #008000&quot;&gt;#&amp;nbsp;tpu&amp;nbsp;8&amp;nbsp;일때&amp;nbsp;적용.&amp;nbsp;&amp;nbsp;&lt;/span&gt;&lt;/div&gt;&lt;div&gt;&lt;span style=&quot;color: #000000&quot;&gt;&amp;nbsp;&amp;nbsp;tpu&amp;nbsp;=&amp;nbsp;&lt;/span&gt;&lt;span style=&quot;color: #0000ff&quot;&gt;None&lt;/span&gt;&lt;/div&gt;&lt;div&gt;&lt;span style=&quot;color: #000000&quot;&gt;&amp;nbsp;&amp;nbsp;gcp_project&amp;nbsp;=&amp;nbsp;&lt;/span&gt;&lt;span style=&quot;color: #0000ff&quot;&gt;None&lt;/span&gt;&lt;/div&gt;&lt;div&gt;&lt;span style=&quot;color: #000000&quot;&gt;&amp;nbsp;&amp;nbsp;tpu_zone&amp;nbsp;=&amp;nbsp;&lt;/span&gt;&lt;span style=&quot;color: #0000ff&quot;&gt;None&lt;/span&gt;&lt;/div&gt;&lt;div&gt;&lt;span style=&quot;color: #000000&quot;&gt;&amp;nbsp;&amp;nbsp;eval_master&amp;nbsp;=&amp;nbsp;&lt;/span&gt;&lt;span style=&quot;color: #a31515&quot;&gt;&#39;&#39;&lt;/span&gt;&lt;/div&gt;&lt;div&gt;&lt;span style=&quot;color: #000000&quot;&gt;&amp;nbsp;&amp;nbsp;eval_name&amp;nbsp;=&amp;nbsp;&lt;/span&gt;&lt;span style=&quot;color: #0000ff&quot;&gt;None&lt;/span&gt;&lt;/div&gt;&lt;div&gt;&lt;span style=&quot;color: #000000&quot;&gt;&amp;nbsp;&amp;nbsp;tf_random_seed&amp;nbsp;=&amp;nbsp;&lt;/span&gt;&lt;span style=&quot;color: #09885a&quot;&gt;2021&lt;/span&gt;&lt;/div&gt;&lt;div&gt;&lt;span style=&quot;color: #000000&quot;&gt;&amp;nbsp;&amp;nbsp;profile&amp;nbsp;=&amp;nbsp;&lt;/span&gt;&lt;span style=&quot;color: #0000ff&quot;&gt;False&lt;/span&gt;&lt;/div&gt;&lt;div&gt;&lt;span style=&quot;color: #000000&quot;&gt;&amp;nbsp;&amp;nbsp;debug&amp;nbsp;=&amp;nbsp;&lt;/span&gt;&lt;span style=&quot;color: #0000ff&quot;&gt;False&lt;/span&gt;&lt;/div&gt;&lt;/div&gt;" style="text;whiteSpace=wrap;html=1;" vertex="1" parent="1">
          <mxGeometry x="3810" y="2600" width="550" height="620" as="geometry" />
        </mxCell>
        <mxCell id="ZZrCYWezUP8C2Mr_J5jb-19" style="edgeStyle=orthogonalEdgeStyle;rounded=0;orthogonalLoop=1;jettySize=auto;html=1;" edge="1" parent="1" source="ZZrCYWezUP8C2Mr_J5jb-20" target="ZZrCYWezUP8C2Mr_J5jb-21">
          <mxGeometry relative="1" as="geometry" />
        </mxCell>
        <mxCell id="ZZrCYWezUP8C2Mr_J5jb-20" value="&lt;div style=&quot;color: rgb(0, 0, 0); background-color: rgb(255, 255, 254); font-family: monospace, consolas, &amp;quot;courier new&amp;quot;, monospace; font-weight: normal; font-size: 14px; line-height: 19px;&quot;&gt;&lt;div&gt;&lt;span style=&quot;color: #af00db&quot;&gt;from&lt;/span&gt;&lt;span style=&quot;color: #000000&quot;&gt;&amp;nbsp;tf2.train&amp;nbsp;&lt;/span&gt;&lt;span style=&quot;color: #af00db&quot;&gt;import&lt;/span&gt;&lt;span style=&quot;color: #000000&quot;&gt;&amp;nbsp;setup_model&lt;/span&gt;&lt;/div&gt;&lt;div&gt;&lt;span style=&quot;color: #af00db&quot;&gt;import&lt;/span&gt;&lt;span style=&quot;color: #000000&quot;&gt;&amp;nbsp;hparams_config&lt;/span&gt;&lt;/div&gt;&lt;br&gt;&lt;div&gt;&lt;span style=&quot;color: #af00db&quot;&gt;import&lt;/span&gt;&lt;span style=&quot;color: #000000&quot;&gt;&amp;nbsp;utils&lt;/span&gt;&lt;/div&gt;&lt;div&gt;&lt;span style=&quot;color: #af00db&quot;&gt;from&lt;/span&gt;&lt;span style=&quot;color: #000000&quot;&gt;&amp;nbsp;tf2&amp;nbsp;&lt;/span&gt;&lt;span style=&quot;color: #af00db&quot;&gt;import&lt;/span&gt;&lt;span style=&quot;color: #000000&quot;&gt;&amp;nbsp;tfmot&lt;/span&gt;&lt;/div&gt;&lt;div&gt;&lt;span style=&quot;color: #af00db&quot;&gt;from&lt;/span&gt;&lt;span style=&quot;color: #000000&quot;&gt;&amp;nbsp;tf2&amp;nbsp;&lt;/span&gt;&lt;span style=&quot;color: #af00db&quot;&gt;import&lt;/span&gt;&lt;span style=&quot;color: #000000&quot;&gt;&amp;nbsp;train_lib&lt;/span&gt;&lt;/div&gt;&lt;div&gt;&lt;span style=&quot;color: #af00db&quot;&gt;from&lt;/span&gt;&lt;span style=&quot;color: #000000&quot;&gt;&amp;nbsp;tf2&amp;nbsp;&lt;/span&gt;&lt;span style=&quot;color: #af00db&quot;&gt;import&lt;/span&gt;&lt;span style=&quot;color: #000000&quot;&gt;&amp;nbsp;util_keras&lt;/span&gt;&lt;/div&gt;&lt;br&gt;&lt;div&gt;&lt;span style=&quot;color: #000000&quot;&gt;config&amp;nbsp;=&amp;nbsp;hparams_config.get_detection_config(TRAIN_CFG.model_name)&lt;/span&gt;&lt;/div&gt;&lt;div&gt;&lt;span style=&quot;color: #000000&quot;&gt;config.override(TRAIN_CFG.hparams)&lt;/span&gt;&lt;/div&gt;&lt;br&gt;&lt;div&gt;&lt;span style=&quot;color: #000000&quot;&gt;steps_per_epoch&amp;nbsp;=&amp;nbsp;TRAIN_CFG.num_examples_per_epoch&amp;nbsp;//&amp;nbsp;TRAIN_CFG.batch_size&lt;/span&gt;&lt;/div&gt;&lt;br&gt;&lt;div&gt;&lt;span style=&quot;color: #af00db&quot;&gt;if&lt;/span&gt;&lt;span style=&quot;color: #000000&quot;&gt;&amp;nbsp;tf.config.list_physical_devices(&lt;/span&gt;&lt;span style=&quot;color: #a31515&quot;&gt;&#39;GPU&#39;&lt;/span&gt;&lt;span style=&quot;color: #000000&quot;&gt;):&lt;/span&gt;&lt;/div&gt;&lt;div&gt;&lt;span style=&quot;color: #000000&quot;&gt;&amp;nbsp;&amp;nbsp;ds_strategy&amp;nbsp;=&amp;nbsp;tf.distribute.OneDeviceStrategy(&lt;/span&gt;&lt;span style=&quot;color: #a31515&quot;&gt;&#39;device:GPU:0&#39;&lt;/span&gt;&lt;span style=&quot;color: #000000&quot;&gt;)&lt;/span&gt;&lt;/div&gt;&lt;div&gt;&lt;span style=&quot;color: #af00db&quot;&gt;else&lt;/span&gt;&lt;span style=&quot;color: #000000&quot;&gt;:&lt;/span&gt;&lt;/div&gt;&lt;div&gt;&lt;span style=&quot;color: #000000&quot;&gt;&amp;nbsp;&amp;nbsp;ds_strategy&amp;nbsp;=&amp;nbsp;tf.distribute.OneDeviceStrategy(&lt;/span&gt;&lt;span style=&quot;color: #a31515&quot;&gt;&#39;device:CPU:0&#39;&lt;/span&gt;&lt;span style=&quot;color: #000000&quot;&gt;)&lt;/span&gt;&lt;/div&gt;&lt;br&gt;&lt;div&gt;&lt;span style=&quot;color: #795e26&quot;&gt;print&lt;/span&gt;&lt;span style=&quot;color: #000000&quot;&gt;(ds_strategy)&lt;/span&gt;&lt;/div&gt;&lt;br&gt;&lt;div&gt;&lt;span style=&quot;color: #008000&quot;&gt;#steps_per_execution은&amp;nbsp;ModelCheckpoint의&amp;nbsp;save_freq를&amp;nbsp;숫자로&amp;nbsp;설정할&amp;nbsp;시&amp;nbsp;적용.&amp;nbsp;num_epochs,&amp;nbsp;steps_per_epoch는&amp;nbsp;추후에&amp;nbsp;model.fit()에서&amp;nbsp;설정되지만,&amp;nbsp;여기서는&amp;nbsp;일단&amp;nbsp;값을&amp;nbsp;설정해야함.&amp;nbsp;&lt;/span&gt;&lt;/div&gt;&lt;div&gt;&lt;span style=&quot;color: #000000&quot;&gt;params&amp;nbsp;=&amp;nbsp;&lt;/span&gt;&lt;span style=&quot;color: #267f99&quot;&gt;dict&lt;/span&gt;&lt;span style=&quot;color: #000000&quot;&gt;(&lt;/span&gt;&lt;/div&gt;&lt;div&gt;&lt;span style=&quot;color: #000000&quot;&gt;&amp;nbsp;&amp;nbsp;&amp;nbsp;&amp;nbsp;&amp;nbsp;&amp;nbsp;profile=TRAIN_CFG.profile,&lt;/span&gt;&lt;/div&gt;&lt;div&gt;&lt;span style=&quot;color: #000000&quot;&gt;&amp;nbsp;&amp;nbsp;&amp;nbsp;&amp;nbsp;&amp;nbsp;&amp;nbsp;mode&amp;nbsp;=&amp;nbsp;TRAIN_CFG.mode,&lt;/span&gt;&lt;/div&gt;&lt;div&gt;&lt;span style=&quot;color: #000000&quot;&gt;&amp;nbsp;&amp;nbsp;&amp;nbsp;&amp;nbsp;&amp;nbsp;&amp;nbsp;model_name=TRAIN_CFG.model_name,&lt;/span&gt;&lt;/div&gt;&lt;div&gt;&lt;span style=&quot;color: #000000&quot;&gt;&amp;nbsp;&amp;nbsp;&amp;nbsp;&amp;nbsp;&amp;nbsp;&amp;nbsp;steps_per_execution=TRAIN_CFG.steps_per_execution,&lt;/span&gt;&lt;/div&gt;&lt;div&gt;&lt;span style=&quot;color: #000000&quot;&gt;&amp;nbsp;&amp;nbsp;&amp;nbsp;&amp;nbsp;&amp;nbsp;&amp;nbsp;num_epochs&amp;nbsp;=&amp;nbsp;TRAIN_CFG.num_epochs,&lt;/span&gt;&lt;/div&gt;&lt;div&gt;&lt;span style=&quot;color: #000000&quot;&gt;&amp;nbsp;&amp;nbsp;&amp;nbsp;&amp;nbsp;&amp;nbsp;&amp;nbsp;model_dir=TRAIN_CFG.model_dir,&lt;/span&gt;&lt;/div&gt;&lt;div&gt;&lt;span style=&quot;color: #000000&quot;&gt;&amp;nbsp;&amp;nbsp;&amp;nbsp;&amp;nbsp;&amp;nbsp;&amp;nbsp;steps_per_epoch=steps_per_epoch,&lt;/span&gt;&lt;/div&gt;&lt;div&gt;&lt;span style=&quot;color: #000000&quot;&gt;&amp;nbsp;&amp;nbsp;&amp;nbsp;&amp;nbsp;&amp;nbsp;&amp;nbsp;strategy=TRAIN_CFG.strategy,&lt;/span&gt;&lt;/div&gt;&lt;div&gt;&lt;span style=&quot;color: #000000&quot;&gt;&amp;nbsp;&amp;nbsp;&amp;nbsp;&amp;nbsp;&amp;nbsp;&amp;nbsp;batch_size=TRAIN_CFG.batch_size,&lt;/span&gt;&lt;/div&gt;&lt;div&gt;&lt;span style=&quot;color: #000000&quot;&gt;&amp;nbsp;&amp;nbsp;&amp;nbsp;&amp;nbsp;&amp;nbsp;&amp;nbsp;tf_random_seed=TRAIN_CFG.tf_random_seed,&lt;/span&gt;&lt;/div&gt;&lt;div&gt;&lt;span style=&quot;color: #000000&quot;&gt;&amp;nbsp;&amp;nbsp;&amp;nbsp;&amp;nbsp;&amp;nbsp;&amp;nbsp;debug=TRAIN_CFG.debug,&lt;/span&gt;&lt;/div&gt;&lt;div&gt;&lt;span style=&quot;color: #000000&quot;&gt;&amp;nbsp;&amp;nbsp;&amp;nbsp;&amp;nbsp;&amp;nbsp;&amp;nbsp;val_json_file=TRAIN_CFG.val_json_file,&lt;/span&gt;&lt;/div&gt;&lt;div&gt;&lt;span style=&quot;color: #000000&quot;&gt;&amp;nbsp;&amp;nbsp;&amp;nbsp;&amp;nbsp;&amp;nbsp;&amp;nbsp;eval_samples=TRAIN_CFG.eval_samples,&lt;/span&gt;&lt;/div&gt;&lt;div&gt;&lt;span style=&quot;color: #000000&quot;&gt;&amp;nbsp;&amp;nbsp;&amp;nbsp;&amp;nbsp;&amp;nbsp;&amp;nbsp;num_shards=ds_strategy.num_replicas_in_sync&lt;/span&gt;&lt;/div&gt;&lt;div&gt;&lt;span style=&quot;color: #000000&quot;&gt;&amp;nbsp;&amp;nbsp;&amp;nbsp;&amp;nbsp;&amp;nbsp;&amp;nbsp;)&lt;/span&gt;&lt;/div&gt;&lt;br&gt;&lt;div&gt;&lt;span style=&quot;color: #000000&quot;&gt;config.override(params,&amp;nbsp;&lt;/span&gt;&lt;span style=&quot;color: #0000ff&quot;&gt;True&lt;/span&gt;&lt;span style=&quot;color: #000000&quot;&gt;)&lt;/span&gt;&lt;/div&gt;&lt;br&gt;&lt;div&gt;&lt;span style=&quot;color: #008000&quot;&gt;#&amp;nbsp;image&amp;nbsp;size를&amp;nbsp;tuple&amp;nbsp;형태로&amp;nbsp;변환.&amp;nbsp;512는&amp;nbsp;(512,&amp;nbsp;512)로&amp;nbsp;&#39;1920x880&#39;&amp;nbsp;은&amp;nbsp;(1920,&amp;nbsp;880)&amp;nbsp;으로&amp;nbsp;변환.&amp;nbsp;&amp;nbsp;&lt;/span&gt;&lt;/div&gt;&lt;div&gt;&lt;span style=&quot;color: #000000&quot;&gt;config.image_size&amp;nbsp;=&amp;nbsp;utils.parse_image_size(config.image_size)&lt;/span&gt;&lt;/div&gt;&lt;div&gt;&lt;span style=&quot;color: #795e26&quot;&gt;print&lt;/span&gt;&lt;span style=&quot;color: #000000&quot;&gt;(config)&lt;/span&gt;&lt;/div&gt;&lt;/div&gt;" style="text;whiteSpace=wrap;html=1;" vertex="1" parent="1">
          <mxGeometry x="3820" y="3290" width="770" height="890" as="geometry" />
        </mxCell>
        <mxCell id="ZZrCYWezUP8C2Mr_J5jb-21" value="&lt;span style=&quot;color: rgb(33, 33, 33); font-family: monospace; font-size: 14px; font-style: normal; font-weight: 400; letter-spacing: normal; text-indent: 0px; text-transform: none; word-spacing: 0px; background-color: rgb(255, 255, 255); display: inline; float: none;&quot;&gt;&amp;lt;tensorflow.python.distribute.one_device_strategy.OneDeviceStrategyV1 object at 0x7f12d2237990&amp;gt;&#xa;act_type: swish&#xa;alpha: 0.25&#xa;anchor_scale: 4.0&#xa;apply_bn_for_resampling: true&#xa;aspect_ratios:&#xa;- 1.0&#xa;- 2.0&#xa;- 0.5&#xa;autoaugment_policy: null&#xa;backbone_config: null&#xa;backbone_name: efficientnet-b0&#xa;batch_size: 8&#xa;box_class_repeats: 3&#xa;box_loss_weight: 50.0&#xa;ckpt_var_scope: null&#xa;clip_gradients_norm: 10.0&#xa;conv_after_downsample: false&#xa;conv_bn_act_pattern: false&#xa;data_format: channels_last&#xa;dataset_type: null&#xa;debug: false&#xa;delta: 0.1&#xa;drop_remainder: true&#xa;eval_samples: 5000&#xa;first_lr_drop_epoch: 200.0&#xa;fpn_cell_repeats: 3&#xa;fpn_config: null&#xa;fpn_name: null&#xa;fpn_num_filters: 64&#xa;fpn_weight_method: null&#xa;gamma: 1.5&#xa;grad_checkpoint: false&#xa;grid_mask: false&#xa;heads:&#xa;- object_detection&#xa;image_size: !!python/tuple&#xa;- 512&#xa;- 512&#xa;img_summary_steps: null&#xa;input_rand_hflip: true&#xa;iou_loss_type: null&#xa;iou_loss_weight: 1.0&#xa;is_training_bn: true&#xa;jitter_max: 2.0&#xa;jitter_min: 0.1&#xa;label_map: null&#xa;label_smoothing: 0.0&#xa;learning_rate: 0.08&#xa;loss_scale: null&#xa;lr_decay_method: cosine&#xa;lr_warmup_epoch: 1.0&#xa;lr_warmup_init: 0.008&#xa;map_freq: 5&#xa;max_instances_per_image: 100&#xa;max_level: 7&#xa;mean_rgb:&#xa;- 123.675&#xa;- 116.28&#xa;- 103.53&#xa;min_level: 3&#xa;mixed_precision: true&#xa;mode: traineval&#xa;model_dir: /mydrive/model_trained&#xa;model_name: efficientdet-d0&#xa;model_optimizations: {}&#xa;momentum: 0.9&#xa;moving_average_decay: 0&#xa;name: efficientdet-d0&#xa;nms_configs:&#xa;    iou_thresh: null&#xa;    max_nms_inputs: 0&#xa;    max_output_size: 100&#xa;    method: gaussian&#xa;    pyfunc: false&#xa;    score_thresh: 0.0&#xa;    sigma: null&#xa;num_classes: 20&#xa;num_epochs: 15&#xa;num_scales: 3&#xa;num_shards: 1&#xa;optimizer: sgd&#xa;poly_lr_power: 0.9&#xa;positives_momentum: null&#xa;profile: false&#xa;regenerate_source_id: false&#xa;sample_image: null&#xa;save_freq: epoch&#xa;scale_range: false&#xa;second_lr_drop_epoch: 250.0&#xa;seg_num_classes: 3&#xa;separable_conv: true&#xa;skip_crowd_during_training: true&#xa;skip_mismatch: true&#xa;stddev_rgb:&#xa;- 58.395&#xa;- 57.120000000000005&#xa;- 57.375&#xa;steps_per_epoch: 312&#xa;steps_per_execution: 1&#xa;strategy: &#39;&#39;&#xa;survival_prob: null&#xa;target_size: null&#xa;tf_random_seed: 2021&#xa;tflite_max_detections: 100&#xa;use_keras_model: true&#xa;val_json_file: null&#xa;var_freeze_expr: null&#xa;verbose: 1&#xa;weight_decay: 4.0e-05&#xa;&lt;/span&gt;&lt;br class=&quot;Apple-interchange-newline&quot;&gt;" style="text;whiteSpace=wrap;html=1;" vertex="1" parent="1">
          <mxGeometry x="5040" y="2980" width="710" height="1730" as="geometry" />
        </mxCell>
        <mxCell id="ZZrCYWezUP8C2Mr_J5jb-22" value="&lt;h3 class=&quot;text-cell-section-header&quot; style=&quot;color: rgb(33, 33, 33); font-family: roboto, noto, sans-serif; font-weight: 400; margin-bottom: 0.5em; position: relative; margin-top: 0.5em; font-size: 20px; font-style: normal; letter-spacing: normal; text-indent: 0px; text-transform: none; word-spacing: 0px; background-color: rgb(255, 255, 255);&quot;&gt;Model 생성&lt;/h3&gt;" style="text;whiteSpace=wrap;html=1;" vertex="1" parent="1">
          <mxGeometry x="3770" y="4160" width="130" height="50" as="geometry" />
        </mxCell>
        <mxCell id="ZZrCYWezUP8C2Mr_J5jb-23" value="&lt;div style=&quot;color: rgb(0, 0, 0); background-color: rgb(255, 255, 254); font-family: monospace, consolas, &amp;quot;courier new&amp;quot;, monospace; font-weight: normal; font-size: 14px; line-height: 19px;&quot;&gt;&lt;div&gt;&lt;span style=&quot;color: #af00db&quot;&gt;import&lt;/span&gt;&lt;span style=&quot;color: #000000&quot;&gt;&amp;nbsp;utils&lt;/span&gt;&lt;/div&gt;&lt;div&gt;&lt;span style=&quot;color: #af00db&quot;&gt;from&lt;/span&gt;&lt;span style=&quot;color: #000000&quot;&gt;&amp;nbsp;tf2&amp;nbsp;&lt;/span&gt;&lt;span style=&quot;color: #af00db&quot;&gt;import&lt;/span&gt;&lt;span style=&quot;color: #000000&quot;&gt;&amp;nbsp;tfmot&lt;/span&gt;&lt;/div&gt;&lt;div&gt;&lt;span style=&quot;color: #af00db&quot;&gt;from&lt;/span&gt;&lt;span style=&quot;color: #000000&quot;&gt;&amp;nbsp;tf2&amp;nbsp;&lt;/span&gt;&lt;span style=&quot;color: #af00db&quot;&gt;import&lt;/span&gt;&lt;span style=&quot;color: #000000&quot;&gt;&amp;nbsp;train_lib&lt;/span&gt;&lt;/div&gt;&lt;div&gt;&lt;span style=&quot;color: #af00db&quot;&gt;from&lt;/span&gt;&lt;span style=&quot;color: #000000&quot;&gt;&amp;nbsp;tf2&amp;nbsp;&lt;/span&gt;&lt;span style=&quot;color: #af00db&quot;&gt;import&lt;/span&gt;&lt;span style=&quot;color: #000000&quot;&gt;&amp;nbsp;util_keras&lt;/span&gt;&lt;/div&gt;&lt;div&gt;&lt;span style=&quot;color: #008000&quot;&gt;#&amp;nbsp;P100&amp;nbsp;GPU&amp;nbsp;Card에서는&amp;nbsp;아래&amp;nbsp;수행하지&amp;nbsp;말것.&amp;nbsp;V100&amp;nbsp;GPU&amp;nbsp;시에는&amp;nbsp;mixed_float16으로&amp;nbsp;mixed_precision&amp;nbsp;설정.&amp;nbsp;&lt;/span&gt;&lt;/div&gt;&lt;div&gt;&lt;span style=&quot;color: #008000&quot;&gt;#precision&amp;nbsp;=&amp;nbsp;utils.get_precision(config.strategy,&amp;nbsp;config.mixed_precision)&lt;/span&gt;&lt;/div&gt;&lt;div&gt;&lt;span style=&quot;color: #008000&quot;&gt;#policy&amp;nbsp;=&amp;nbsp;tf.keras.mixed_precision.Policy(precision)&lt;/span&gt;&lt;/div&gt;&lt;div&gt;&lt;span style=&quot;color: #008000&quot;&gt;#tf.keras.mixed_precision.set_global_policy(policy)&lt;/span&gt;&lt;/div&gt;&lt;/div&gt;" style="text;whiteSpace=wrap;html=1;" vertex="1" parent="1">
          <mxGeometry x="3810" y="4230" width="550" height="190" as="geometry" />
        </mxCell>
        <mxCell id="ZZrCYWezUP8C2Mr_J5jb-24" value="&lt;div style=&quot;color: rgb(0, 0, 0); background-color: rgb(255, 255, 254); font-family: monospace, consolas, &amp;quot;courier new&amp;quot;, monospace; font-weight: normal; font-size: 14px; line-height: 19px;&quot;&gt;&lt;div&gt;&lt;span style=&quot;color: #000000&quot;&gt;MODEL&amp;nbsp;=&amp;nbsp;&lt;/span&gt;&lt;span style=&quot;color: #a31515&quot;&gt;&#39;efficientdet-d0&#39;&lt;/span&gt;&lt;span style=&quot;color: #000000&quot;&gt;&amp;nbsp;&lt;/span&gt;&lt;/div&gt;&lt;br&gt;&lt;div&gt;&lt;span style=&quot;color: #0000ff&quot;&gt;def&lt;/span&gt;&lt;span style=&quot;color: #000000&quot;&gt;&amp;nbsp;&lt;/span&gt;&lt;span style=&quot;color: #795e26&quot;&gt;download&lt;/span&gt;&lt;span style=&quot;color: #000000&quot;&gt;(&lt;/span&gt;&lt;span style=&quot;color: #001080&quot;&gt;m&lt;/span&gt;&lt;span style=&quot;color: #000000&quot;&gt;):&lt;/span&gt;&lt;/div&gt;&lt;div&gt;&lt;span style=&quot;color: #000000&quot;&gt;&amp;nbsp;&amp;nbsp;&lt;/span&gt;&lt;span style=&quot;color: #af00db&quot;&gt;if&lt;/span&gt;&lt;span style=&quot;color: #000000&quot;&gt;&amp;nbsp;m&amp;nbsp;&lt;/span&gt;&lt;span style=&quot;color: #0000ff&quot;&gt;not&lt;/span&gt;&lt;span style=&quot;color: #000000&quot;&gt;&amp;nbsp;&lt;/span&gt;&lt;span style=&quot;color: #0000ff&quot;&gt;in&lt;/span&gt;&lt;span style=&quot;color: #000000&quot;&gt;&amp;nbsp;os.listdir():&lt;/span&gt;&lt;/div&gt;&lt;div&gt;&lt;span style=&quot;color: #000000&quot;&gt;&amp;nbsp;&amp;nbsp;&amp;nbsp;&amp;nbsp;!wget&amp;nbsp;https://storage.googleapis.com/cloud-tpu-checkpoints/efficientdet/coco/{m}.tar.gz&lt;/span&gt;&lt;/div&gt;&lt;div&gt;&lt;span style=&quot;color: #000000&quot;&gt;&amp;nbsp;&amp;nbsp;&amp;nbsp;&amp;nbsp;!tar&amp;nbsp;zxf&amp;nbsp;{m}.tar.gz&lt;/span&gt;&lt;/div&gt;&lt;div&gt;&lt;span style=&quot;color: #000000&quot;&gt;&amp;nbsp;&amp;nbsp;ckpt_path&amp;nbsp;=&amp;nbsp;os.path.join(os.getcwd(),&amp;nbsp;m)&lt;/span&gt;&lt;/div&gt;&lt;div&gt;&lt;span style=&quot;color: #000000&quot;&gt;&amp;nbsp;&amp;nbsp;&lt;/span&gt;&lt;span style=&quot;color: #af00db&quot;&gt;return&lt;/span&gt;&lt;span style=&quot;color: #000000&quot;&gt;&amp;nbsp;ckpt_path&lt;/span&gt;&lt;/div&gt;&lt;br&gt;&lt;div&gt;&lt;span style=&quot;color: #008000&quot;&gt;#&amp;nbsp;Download&amp;nbsp;checkpoint.&lt;/span&gt;&lt;/div&gt;&lt;div&gt;&lt;span style=&quot;color: #000000&quot;&gt;ckpt_path&amp;nbsp;=&amp;nbsp;download(MODEL)&lt;/span&gt;&lt;/div&gt;&lt;div&gt;&lt;span style=&quot;color: #795e26&quot;&gt;print&lt;/span&gt;&lt;span style=&quot;color: #000000&quot;&gt;(&lt;/span&gt;&lt;span style=&quot;color: #a31515&quot;&gt;&#39;Use&amp;nbsp;model&amp;nbsp;in&amp;nbsp;{}&#39;&lt;/span&gt;&lt;span style=&quot;color: #000000&quot;&gt;.&lt;/span&gt;&lt;span style=&quot;color: #795e26&quot;&gt;format&lt;/span&gt;&lt;span style=&quot;color: #000000&quot;&gt;(ckpt_path))&lt;/span&gt;&lt;/div&gt;&lt;/div&gt;" style="text;whiteSpace=wrap;html=1;" vertex="1" parent="1">
          <mxGeometry x="3805" y="4440" width="550" height="260" as="geometry" />
        </mxCell>
        <mxCell id="ZZrCYWezUP8C2Mr_J5jb-25" value="&lt;br class=&quot;Apple-interchange-newline&quot;&gt;&lt;span style=&quot;color: rgb(33, 33, 33); font-family: monospace; font-size: 14px; font-style: normal; font-weight: 400; letter-spacing: normal; text-indent: 0px; text-transform: none; word-spacing: 0px; background-color: rgb(255, 255, 255); display: inline; float: none;&quot;&gt;&#xa;Use model in /content/efficientdet-d0&lt;/span&gt;" style="text;whiteSpace=wrap;html=1;" vertex="1" parent="1">
          <mxGeometry x="3895" y="4730" width="300" height="60" as="geometry" />
        </mxCell>
        <mxCell id="ZZrCYWezUP8C2Mr_J5jb-26" value="&lt;div style=&quot;color: rgb(0, 0, 0); background-color: rgb(255, 255, 254); font-family: monospace, consolas, &amp;quot;courier new&amp;quot;, monospace; font-weight: normal; font-size: 14px; line-height: 19px;&quot;&gt;&lt;div&gt;&lt;span style=&quot;color: #af00db&quot;&gt;from&lt;/span&gt;&lt;span style=&quot;color: #000000&quot;&gt;&amp;nbsp;tf2&amp;nbsp;&lt;/span&gt;&lt;span style=&quot;color: #af00db&quot;&gt;import&lt;/span&gt;&lt;span style=&quot;color: #000000&quot;&gt;&amp;nbsp;train_lib&lt;/span&gt;&lt;/div&gt;&lt;div&gt;&lt;span style=&quot;color: #af00db&quot;&gt;from&lt;/span&gt;&lt;span style=&quot;color: #000000&quot;&gt;&amp;nbsp;tf2&amp;nbsp;&lt;/span&gt;&lt;span style=&quot;color: #af00db&quot;&gt;import&lt;/span&gt;&lt;span style=&quot;color: #000000&quot;&gt;&amp;nbsp;train&lt;/span&gt;&lt;/div&gt;&lt;br&gt;&lt;div&gt;&lt;span style=&quot;color: #008000&quot;&gt;#&amp;nbsp;20개의&amp;nbsp;class를&amp;nbsp;가진&amp;nbsp;efficientdet&amp;nbsp;d0&amp;nbsp;모델을&amp;nbsp;생성.&amp;nbsp;&lt;/span&gt;&lt;/div&gt;&lt;div&gt;&lt;span style=&quot;color: #000000&quot;&gt;model&amp;nbsp;=&amp;nbsp;train_lib.EfficientDetNetTrain(config=config)&lt;/span&gt;&lt;/div&gt;&lt;div&gt;&lt;span style=&quot;color: #000000&quot;&gt;model&amp;nbsp;=&amp;nbsp;train.setup_model(model,&amp;nbsp;config)&lt;/span&gt;&lt;/div&gt;&lt;br&gt;&lt;div&gt;&lt;span style=&quot;color: #008000&quot;&gt;#&amp;nbsp;만약&amp;nbsp;pretrained&amp;nbsp;모델이&amp;nbsp;있으면,&amp;nbsp;해당&amp;nbsp;checkpoint&amp;nbsp;weight를&amp;nbsp;모델로&amp;nbsp;로딩.&amp;nbsp;이때&amp;nbsp;classification&amp;nbsp;layer는&amp;nbsp;제외.&amp;nbsp;&lt;/span&gt;&lt;/div&gt;&lt;div&gt;&lt;span style=&quot;color: #008000&quot;&gt;#class&amp;nbsp;TRAIN_CFG:&amp;nbsp;pretrained_ckpt&amp;nbsp;=&amp;nbsp;&#39;/content/efficientdet-d0&#39;&amp;nbsp;&lt;/span&gt;&lt;/div&gt;&lt;div&gt;&lt;span style=&quot;color: #af00db&quot;&gt;if&lt;/span&gt;&lt;span style=&quot;color: #000000&quot;&gt;&amp;nbsp;TRAIN_CFG.pretrained_ckpt:&lt;/span&gt;&lt;/div&gt;&lt;div&gt;&lt;span style=&quot;color: #000000&quot;&gt;&amp;nbsp;&amp;nbsp;ckpt_path&amp;nbsp;=&amp;nbsp;tf.train.latest_checkpoint(TRAIN_CFG.pretrained_ckpt)&lt;/span&gt;&lt;/div&gt;&lt;div&gt;&lt;span style=&quot;color: #000000&quot;&gt;&amp;nbsp;&amp;nbsp;util_keras.restore_ckpt(&lt;/span&gt;&lt;/div&gt;&lt;div&gt;&lt;span style=&quot;color: #000000&quot;&gt;&amp;nbsp;&amp;nbsp;&amp;nbsp;&amp;nbsp;&amp;nbsp;&amp;nbsp;model,&lt;/span&gt;&lt;/div&gt;&lt;div&gt;&lt;span style=&quot;color: #000000&quot;&gt;&amp;nbsp;&amp;nbsp;&amp;nbsp;&amp;nbsp;&amp;nbsp;&amp;nbsp;ckpt_path,&lt;/span&gt;&lt;/div&gt;&lt;div&gt;&lt;span style=&quot;color: #000000&quot;&gt;&amp;nbsp;&amp;nbsp;&amp;nbsp;&amp;nbsp;&amp;nbsp;&amp;nbsp;config.moving_average_decay,&lt;/span&gt;&lt;/div&gt;&lt;div&gt;&lt;span style=&quot;color: #000000&quot;&gt;&amp;nbsp;&amp;nbsp;&amp;nbsp;&amp;nbsp;&amp;nbsp;&amp;nbsp;exclude_layers=[&lt;/span&gt;&lt;span style=&quot;color: #a31515&quot;&gt;&#39;class_net&#39;&lt;/span&gt;&lt;span style=&quot;color: #000000&quot;&gt;])&lt;/span&gt;&lt;/div&gt;&lt;div&gt;&lt;span style=&quot;color: #000000&quot;&gt;&amp;nbsp;&amp;nbsp;&lt;/span&gt;&lt;/div&gt;&lt;div&gt;&lt;span style=&quot;color: #000000&quot;&gt;train.init_experimental(config)&lt;/span&gt;&lt;/div&gt;&lt;br&gt;&lt;div&gt;&lt;span style=&quot;color: #000000&quot;&gt;model.summary()&lt;/span&gt;&lt;/div&gt;&lt;/div&gt;" style="text;whiteSpace=wrap;html=1;" vertex="1" parent="1">
          <mxGeometry x="3805" y="4835" width="550" height="410" as="geometry" />
        </mxCell>
        <mxCell id="ZZrCYWezUP8C2Mr_J5jb-27" value="&lt;div class=&quot;stream output_text&quot; style=&quot;display: inline; color: rgb(33, 33, 33); font-family: monospace; font-size: 14px; font-style: normal; font-weight: 400; letter-spacing: normal; text-indent: 0px; text-transform: none; word-spacing: 0px; background-color: rgb(255, 255, 255);&quot;&gt;&lt;pre style=&quot;margin-bottom: 0px; margin-top: 0px; display: inline;&quot;&gt;/content/automl/efficientdet/utils.py:23: UserWarning: `layer.updates` will be removed in a future version. This property should not be used in TensorFlow 2.0, as `updates` are applied automatically.&#xa;  from tensorflow.python.tpu import tpu_function  # pylint:disable=g-direct-tensorflow-import&#xa;/content/automl/efficientdet/utils.py:255: UserWarning: `layer.updates` will be removed in a future version. This property should not be used in TensorFlow 2.0, as `updates` are applied automatically.&#xa;  for u in self.updates:&#xa;WARNING:absl:Shape mismatch: class_net/class-predict/pointwise_kernel&#xa;WARNING:absl:Shape mismatch: class_net/class-predict/bias&#xa;&lt;/pre&gt;&lt;/div&gt;&lt;div class=&quot;stream output_text&quot; style=&quot;display: inline; color: rgb(33, 33, 33); font-family: monospace; font-size: 14px; font-style: normal; font-weight: 400; letter-spacing: normal; text-indent: 0px; text-transform: none; word-spacing: 0px; background-color: rgb(255, 255, 255);&quot;&gt;&lt;pre style=&quot;margin-bottom: 0px; margin-top: 0px; display: inline;&quot;&gt;Model: &quot;&quot;&#xa;_________________________________________________________________&#xa; Layer (type)                Output Shape              Param #   &#xa;=================================================================&#xa; efficientnet-b0 (Model)     multiple                  3634844   &#xa;                                                                 &#xa; resample_p6 (ResampleFeatur  multiple                 20800     &#xa; eMap)                                                           &#xa;                                                                 &#xa; resample_p7 (ResampleFeatur  multiple                 0         &#xa; eMap)                                                           &#xa;                                                                 &#xa; fpn_cells (FPNCells)        multiple                  179321    &#xa;                                                                 &#xa; class_net (ClassNet)        multiple                  30324     &#xa;                                                                 &#xa; box_net (BoxNet)            multiple                  20964     &#xa;                                                                 &#xa;=================================================================&#xa;Total params: 3,886,253&#xa;Trainable params: 3,839,117&#xa;Non-trainable params: 47,136&#xa;_________________________________________________________________&lt;/pre&gt;&lt;/div&gt;" style="text;whiteSpace=wrap;html=1;" vertex="1" parent="1">
          <mxGeometry x="3895" y="5300" width="550" height="460" as="geometry" />
        </mxCell>
        <mxCell id="ZZrCYWezUP8C2Mr_J5jb-28" value="&lt;h3 class=&quot;text-cell-section-header&quot; style=&quot;color: rgb(33, 33, 33); font-family: roboto, noto, sans-serif; font-weight: 400; margin-bottom: 0.5em; position: relative; margin-top: 0.5em; font-size: 20px; font-style: normal; letter-spacing: normal; text-indent: 0px; text-transform: none; word-spacing: 0px; background-color: rgb(255, 255, 255);&quot;&gt;학습과 검증용 Dataset을 생성하고, Train 수행.&lt;/h3&gt;" style="text;whiteSpace=wrap;html=1;" vertex="1" parent="1">
          <mxGeometry x="3770" y="5830" width="440" height="50" as="geometry" />
        </mxCell>
        <mxCell id="ZZrCYWezUP8C2Mr_J5jb-29" value="&lt;div style=&quot;color: rgb(0, 0, 0); background-color: rgb(255, 255, 254); font-family: monospace, consolas, &amp;quot;courier new&amp;quot;, monospace; font-weight: normal; font-size: 14px; line-height: 19px;&quot;&gt;&lt;div&gt;&lt;span style=&quot;color: #a31515&quot;&gt;&#39;&#39;&#39;&lt;/span&gt;&lt;/div&gt;&lt;div&gt;&lt;span style=&quot;color: #a31515&quot;&gt;Class&amp;nbsp;TRAIN_CFG:&lt;/span&gt;&lt;/div&gt;&lt;div&gt;&lt;span style=&quot;color: #a31515&quot;&gt;&amp;nbsp;&amp;nbsp;train_file_pattern&amp;nbsp;=&amp;nbsp;&#39;/content/tfrecord/train/pascal-*.tfrecord&#39;&amp;nbsp;#&amp;nbsp;학습용&amp;nbsp;tfrecords를&amp;nbsp;glob&amp;nbsp;형태로&amp;nbsp;가져오는&amp;nbsp;표현식.&amp;nbsp;&lt;/span&gt;&lt;/div&gt;&lt;div&gt;&lt;span style=&quot;color: #a31515&quot;&gt;&amp;nbsp;&amp;nbsp;val_file_pattern&amp;nbsp;=&amp;nbsp;&#39;/content/tfrecord/val/pascal-*.tfrecord&#39;&amp;nbsp;#&amp;nbsp;검증용&amp;nbsp;tfrecords를&amp;nbsp;glob&amp;nbsp;형태로&amp;nbsp;가져오는&amp;nbsp;표현식.&amp;nbsp;&lt;/span&gt;&lt;/div&gt;&lt;div&gt;&lt;span style=&quot;color: #a31515&quot;&gt;&#39;&#39;&#39;&lt;/span&gt;&lt;/div&gt;&lt;br&gt;&lt;div&gt;&lt;span style=&quot;color: #af00db&quot;&gt;import&lt;/span&gt;&lt;span style=&quot;color: #000000&quot;&gt;&amp;nbsp;dataloader&lt;/span&gt;&lt;/div&gt;&lt;br&gt;&lt;div&gt;&lt;span style=&quot;color: #0000ff&quot;&gt;def&lt;/span&gt;&lt;span style=&quot;color: #000000&quot;&gt;&amp;nbsp;&lt;/span&gt;&lt;span style=&quot;color: #795e26&quot;&gt;get_dataset&lt;/span&gt;&lt;span style=&quot;color: #000000&quot;&gt;(&lt;/span&gt;&lt;span style=&quot;color: #001080&quot;&gt;is_training&lt;/span&gt;&lt;span style=&quot;color: #000000&quot;&gt;,&amp;nbsp;&lt;/span&gt;&lt;span style=&quot;color: #001080&quot;&gt;config&lt;/span&gt;&lt;span style=&quot;color: #000000&quot;&gt;):&lt;/span&gt;&lt;/div&gt;&lt;div&gt;&lt;span style=&quot;color: #000000&quot;&gt;&amp;nbsp;&amp;nbsp;&lt;/span&gt;&lt;span style=&quot;color: #008000&quot;&gt;#&amp;nbsp;is_training이&amp;nbsp;True이면&amp;nbsp;TRAIN_CFG의&amp;nbsp;train_file_pattern,&amp;nbsp;그렇지&amp;nbsp;아니면&amp;nbsp;val_file_pattern&lt;/span&gt;&lt;/div&gt;&lt;div&gt;&lt;span style=&quot;color: #000000&quot;&gt;&amp;nbsp;&amp;nbsp;file_pattern&amp;nbsp;=&amp;nbsp;(&lt;/span&gt;&lt;/div&gt;&lt;div&gt;&lt;span style=&quot;color: #000000&quot;&gt;&amp;nbsp;&amp;nbsp;&amp;nbsp;&amp;nbsp;TRAIN_CFG.train_file_pattern&lt;/span&gt;&lt;/div&gt;&lt;div&gt;&lt;span style=&quot;color: #000000&quot;&gt;&amp;nbsp;&amp;nbsp;&amp;nbsp;&amp;nbsp;&lt;/span&gt;&lt;span style=&quot;color: #af00db&quot;&gt;if&lt;/span&gt;&lt;span style=&quot;color: #000000&quot;&gt;&amp;nbsp;is_training&amp;nbsp;&lt;/span&gt;&lt;span style=&quot;color: #af00db&quot;&gt;else&lt;/span&gt;&lt;span style=&quot;color: #000000&quot;&gt;&amp;nbsp;TRAIN_CFG.val_file_pattern)&lt;/span&gt;&lt;/div&gt;&lt;div&gt;&lt;span style=&quot;color: #000000&quot;&gt;&amp;nbsp;&amp;nbsp;&lt;/span&gt;&lt;span style=&quot;color: #af00db&quot;&gt;if&lt;/span&gt;&lt;span style=&quot;color: #000000&quot;&gt;&amp;nbsp;&lt;/span&gt;&lt;span style=&quot;color: #0000ff&quot;&gt;not&lt;/span&gt;&lt;span style=&quot;color: #000000&quot;&gt;&amp;nbsp;file_pattern:&lt;/span&gt;&lt;/div&gt;&lt;div&gt;&lt;span style=&quot;color: #000000&quot;&gt;&amp;nbsp;&amp;nbsp;&amp;nbsp;&amp;nbsp;&lt;/span&gt;&lt;span style=&quot;color: #af00db&quot;&gt;raise&lt;/span&gt;&lt;span style=&quot;color: #000000&quot;&gt;&amp;nbsp;&lt;/span&gt;&lt;span style=&quot;color: #267f99&quot;&gt;ValueError&lt;/span&gt;&lt;span style=&quot;color: #000000&quot;&gt;(&lt;/span&gt;&lt;span style=&quot;color: #a31515&quot;&gt;&#39;No&amp;nbsp;matching&amp;nbsp;files.&#39;&lt;/span&gt;&lt;span style=&quot;color: #000000&quot;&gt;)&lt;/span&gt;&lt;/div&gt;&lt;br&gt;&lt;div&gt;&lt;span style=&quot;color: #000000&quot;&gt;&amp;nbsp;&amp;nbsp;&lt;/span&gt;&lt;span style=&quot;color: #af00db&quot;&gt;return&lt;/span&gt;&lt;span style=&quot;color: #000000&quot;&gt;&amp;nbsp;dataloader.InputReader(&lt;/span&gt;&lt;/div&gt;&lt;div&gt;&lt;span style=&quot;color: #000000&quot;&gt;&amp;nbsp;&amp;nbsp;&amp;nbsp;&amp;nbsp;file_pattern,&lt;/span&gt;&lt;/div&gt;&lt;div&gt;&lt;span style=&quot;color: #000000&quot;&gt;&amp;nbsp;&amp;nbsp;&amp;nbsp;&amp;nbsp;is_training=is_training,&lt;/span&gt;&lt;/div&gt;&lt;div&gt;&lt;span style=&quot;color: #000000&quot;&gt;&amp;nbsp;&amp;nbsp;&amp;nbsp;&amp;nbsp;use_fake_data=TRAIN_CFG.use_fake_data,&lt;/span&gt;&lt;/div&gt;&lt;div&gt;&lt;span style=&quot;color: #000000&quot;&gt;&amp;nbsp;&amp;nbsp;&amp;nbsp;&amp;nbsp;max_instances_per_image=config.max_instances_per_image,&lt;/span&gt;&lt;/div&gt;&lt;div&gt;&lt;span style=&quot;color: #000000&quot;&gt;&amp;nbsp;&amp;nbsp;&amp;nbsp;&amp;nbsp;debug=TRAIN_CFG.debug)(&lt;/span&gt;&lt;/div&gt;&lt;div&gt;&lt;span style=&quot;color: #000000&quot;&gt;&amp;nbsp;&amp;nbsp;&amp;nbsp;&amp;nbsp;&amp;nbsp;&amp;nbsp;&amp;nbsp;&amp;nbsp;config.as_dict())&lt;/span&gt;&lt;/div&gt;&lt;/div&gt;" style="text;whiteSpace=wrap;html=1;" vertex="1" parent="1">
          <mxGeometry x="3840" y="5895" width="550" height="510" as="geometry" />
        </mxCell>
        <mxCell id="ZZrCYWezUP8C2Mr_J5jb-30" value="&lt;div style=&quot;color: rgb(0, 0, 0); background-color: rgb(255, 255, 254); font-family: monospace, consolas, &amp;quot;courier new&amp;quot;, monospace; font-weight: normal; font-size: 14px; line-height: 19px;&quot;&gt;&lt;div&gt;&lt;span style=&quot;color: #af00db&quot;&gt;import&lt;/span&gt;&lt;span style=&quot;color: #000000&quot;&gt;&amp;nbsp;pandas&amp;nbsp;&lt;/span&gt;&lt;span style=&quot;color: #af00db&quot;&gt;as&lt;/span&gt;&lt;span style=&quot;color: #000000&quot;&gt;&amp;nbsp;pd&lt;/span&gt;&lt;/div&gt;&lt;br&gt;&lt;div&gt;&lt;span style=&quot;color: #008000&quot;&gt;#&amp;nbsp;&amp;nbsp;train.txt와&amp;nbsp;val.txt를&amp;nbsp;읽어서&amp;nbsp;train과&amp;nbsp;val&amp;nbsp;용&amp;nbsp;image&amp;nbsp;건수를&amp;nbsp;구함&amp;nbsp;&lt;/span&gt;&lt;/div&gt;&lt;div&gt;&lt;span style=&quot;color: #000000&quot;&gt;train_df&amp;nbsp;=&amp;nbsp;pd.read_csv(&lt;/span&gt;&lt;span style=&quot;color: #a31515&quot;&gt;&#39;/content/VOCdevkit/VOC2007/ImageSets/Main/train.txt&#39;&lt;/span&gt;&lt;span style=&quot;color: #000000&quot;&gt;,&amp;nbsp;sep=&lt;/span&gt;&lt;span style=&quot;color: #a31515&quot;&gt;&#39;&amp;nbsp;&#39;&lt;/span&gt;&lt;span style=&quot;color: #000000&quot;&gt;,&amp;nbsp;&lt;/span&gt;&lt;/div&gt;&lt;div&gt;&lt;span style=&quot;color: #000000&quot;&gt;&amp;nbsp;&amp;nbsp;&amp;nbsp;&amp;nbsp;&amp;nbsp;&amp;nbsp;&amp;nbsp;&amp;nbsp;&amp;nbsp;&amp;nbsp;&amp;nbsp;&amp;nbsp;&amp;nbsp;&amp;nbsp;&amp;nbsp;&amp;nbsp;&amp;nbsp;&amp;nbsp;&amp;nbsp;&amp;nbsp;&amp;nbsp;&amp;nbsp;&amp;nbsp;header=&lt;/span&gt;&lt;span style=&quot;color: #0000ff&quot;&gt;None&lt;/span&gt;&lt;span style=&quot;color: #000000&quot;&gt;,&amp;nbsp;names=[&lt;/span&gt;&lt;span style=&quot;color: #a31515&quot;&gt;&#39;file_id&#39;&lt;/span&gt;&lt;span style=&quot;color: #000000&quot;&gt;],&amp;nbsp;dtype={&lt;/span&gt;&lt;span style=&quot;color: #a31515&quot;&gt;&#39;file_id&#39;&lt;/span&gt;&lt;span style=&quot;color: #000000&quot;&gt;:&lt;/span&gt;&lt;span style=&quot;color: #267f99&quot;&gt;str&lt;/span&gt;&lt;span style=&quot;color: #000000&quot;&gt;})&lt;/span&gt;&lt;/div&gt;&lt;div&gt;&lt;span style=&quot;color: #000000&quot;&gt;val_df&amp;nbsp;=&amp;nbsp;pd.read_csv(&lt;/span&gt;&lt;span style=&quot;color: #a31515&quot;&gt;&#39;/content/VOCdevkit/VOC2007/ImageSets/Main/val.txt&#39;&lt;/span&gt;&lt;span style=&quot;color: #000000&quot;&gt;,&amp;nbsp;sep=&lt;/span&gt;&lt;span style=&quot;color: #a31515&quot;&gt;&#39;&amp;nbsp;&#39;&lt;/span&gt;&lt;span style=&quot;color: #000000&quot;&gt;,&amp;nbsp;&lt;/span&gt;&lt;/div&gt;&lt;div&gt;&lt;span style=&quot;color: #000000&quot;&gt;&amp;nbsp;&amp;nbsp;&amp;nbsp;&amp;nbsp;&amp;nbsp;&amp;nbsp;&amp;nbsp;&amp;nbsp;&amp;nbsp;&amp;nbsp;&amp;nbsp;&amp;nbsp;&amp;nbsp;&amp;nbsp;&amp;nbsp;&amp;nbsp;&amp;nbsp;&amp;nbsp;&amp;nbsp;&amp;nbsp;&amp;nbsp;&amp;nbsp;&amp;nbsp;header=&lt;/span&gt;&lt;span style=&quot;color: #0000ff&quot;&gt;None&lt;/span&gt;&lt;span style=&quot;color: #000000&quot;&gt;,&amp;nbsp;names=[&lt;/span&gt;&lt;span style=&quot;color: #a31515&quot;&gt;&#39;file_id&#39;&lt;/span&gt;&lt;span style=&quot;color: #000000&quot;&gt;],&amp;nbsp;dtype={&lt;/span&gt;&lt;span style=&quot;color: #a31515&quot;&gt;&#39;file_id&#39;&lt;/span&gt;&lt;span style=&quot;color: #000000&quot;&gt;:&lt;/span&gt;&lt;span style=&quot;color: #267f99&quot;&gt;str&lt;/span&gt;&lt;span style=&quot;color: #000000&quot;&gt;})&lt;/span&gt;&lt;/div&gt;&lt;br&gt;&lt;div&gt;&lt;span style=&quot;color: #000000&quot;&gt;train_images_num&amp;nbsp;=&amp;nbsp;train_df.shape[&lt;/span&gt;&lt;span style=&quot;color: #09885a&quot;&gt;0&lt;/span&gt;&lt;span style=&quot;color: #000000&quot;&gt;]&lt;/span&gt;&lt;/div&gt;&lt;div&gt;&lt;span style=&quot;color: #000000&quot;&gt;val_images_num&amp;nbsp;=&amp;nbsp;val_df.shape[&lt;/span&gt;&lt;span style=&quot;color: #09885a&quot;&gt;0&lt;/span&gt;&lt;span style=&quot;color: #000000&quot;&gt;]&lt;/span&gt;&lt;/div&gt;&lt;div&gt;&lt;span style=&quot;color: #795e26&quot;&gt;print&lt;/span&gt;&lt;span style=&quot;color: #000000&quot;&gt;(train_images_num,&amp;nbsp;val_images_num)&lt;/span&gt;&lt;/div&gt;&lt;br&gt;&lt;div&gt;&lt;span style=&quot;color: #000000&quot;&gt;train_df.head()&lt;/span&gt;&lt;/div&gt;&lt;/div&gt;" style="text;whiteSpace=wrap;html=1;" vertex="1" parent="1">
          <mxGeometry x="3840" y="6450" width="550" height="300" as="geometry" />
        </mxCell>
        <mxCell id="ZZrCYWezUP8C2Mr_J5jb-31" value="&lt;div class=&quot;stream&quot; style=&quot;display: inline; color: rgb(33, 33, 33); font-family: roboto, noto, sans-serif; font-size: 14px; font-style: normal; font-weight: 400; letter-spacing: normal; text-indent: 0px; text-transform: none; word-spacing: 0px; background-color: rgb(255, 255, 255);&quot;&gt;&lt;div class=&quot;output_subarea output_text&quot; style=&quot;display: inline&quot;&gt;&lt;pre style=&quot;margin-bottom: 0px ; margin-top: 0px ; display: inline&quot;&gt;2501 2510&#xa;&lt;/pre&gt;&lt;/div&gt;&lt;/div&gt;&lt;div class=&quot;execute_result&quot; style=&quot;display: inline; color: rgb(33, 33, 33); font-family: roboto, noto, sans-serif; font-size: 14px; font-style: normal; font-weight: 400; letter-spacing: normal; text-indent: 0px; text-transform: none; word-spacing: 0px; background-color: rgb(255, 255, 255);&quot;&gt;&lt;div class=&quot;output_subarea output_html rendered_html&quot;&gt;&lt;div&gt;&lt;table border=&quot;1&quot; class=&quot;dataframe&quot; style=&quot;border-collapse: collapse ; border-spacing: 0px ; border: none ; table-layout: fixed&quot;&gt;&lt;thead style=&quot;border-bottom: 1px solid ; text-align: right&quot;&gt;&lt;tr style=&quot;border: none; padding: 0.5em; text-align: right;&quot;&gt;&lt;th style=&quot;border: none; padding: 0.5em; font-weight: bold; text-align: right;&quot;&gt;&lt;/th&gt;&lt;th style=&quot;border: none; padding: 0.5em; font-weight: bold; text-align: right;&quot;&gt;file_id&lt;/th&gt;&lt;/tr&gt;&lt;/thead&gt;&lt;tbody&gt;&lt;tr style=&quot;border: none; padding: 0.5em;&quot;&gt;&lt;th style=&quot;border: none; padding: 0.5em; font-weight: bold; vertical-align: middle;&quot;&gt;0&lt;/th&gt;&lt;td style=&quot;border: none; padding: 0.5em; text-align: right;&quot;&gt;000012&lt;/td&gt;&lt;/tr&gt;&lt;tr style=&quot;border: none; padding: 0.5em;&quot;&gt;&lt;th style=&quot;border: none; padding: 0.5em; font-weight: bold; vertical-align: middle;&quot;&gt;1&lt;/th&gt;&lt;td style=&quot;border: none; padding: 0.5em; text-align: right;&quot;&gt;000017&lt;/td&gt;&lt;/tr&gt;&lt;tr style=&quot;border: none; padding: 0.5em;&quot;&gt;&lt;th style=&quot;border: none; padding: 0.5em; font-weight: bold; vertical-align: middle;&quot;&gt;2&lt;/th&gt;&lt;td style=&quot;border: none; padding: 0.5em; text-align: right;&quot;&gt;000023&lt;/td&gt;&lt;/tr&gt;&lt;tr style=&quot;border: none; padding: 0.5em;&quot;&gt;&lt;th style=&quot;border: none; padding: 0.5em; font-weight: bold; vertical-align: middle;&quot;&gt;3&lt;/th&gt;&lt;td style=&quot;border: none; padding: 0.5em; text-align: right;&quot;&gt;000026&lt;/td&gt;&lt;/tr&gt;&lt;tr style=&quot;border: none; padding: 0.5em;&quot;&gt;&lt;th style=&quot;border: none; padding: 0.5em; font-weight: bold; vertical-align: middle;&quot;&gt;4&lt;/th&gt;&lt;td style=&quot;border: none; padding: 0.5em; text-align: right;&quot;&gt;000032&lt;/td&gt;&lt;/tr&gt;&lt;/tbody&gt;&lt;/table&gt;&lt;/div&gt;&lt;/div&gt;&lt;/div&gt;" style="text;whiteSpace=wrap;html=1;" vertex="1" parent="1">
          <mxGeometry x="3900" y="6750" width="110" height="200" as="geometry" />
        </mxCell>
        <mxCell id="ZZrCYWezUP8C2Mr_J5jb-32" value="&lt;div style=&quot;color: rgb(0, 0, 0); background-color: rgb(255, 255, 254); font-family: monospace, consolas, &amp;quot;courier new&amp;quot;, monospace; font-weight: normal; font-size: 14px; line-height: 19px;&quot;&gt;&lt;div&gt;&lt;span style=&quot;color: #af00db&quot;&gt;import&lt;/span&gt;&lt;span style=&quot;color: #000000&quot;&gt;&amp;nbsp;tensorflow&amp;nbsp;&lt;/span&gt;&lt;span style=&quot;color: #af00db&quot;&gt;as&lt;/span&gt;&lt;span style=&quot;color: #000000&quot;&gt;&amp;nbsp;tf&lt;/span&gt;&lt;/div&gt;&lt;div&gt;&lt;span style=&quot;color: #af00db&quot;&gt;from&lt;/span&gt;&lt;span style=&quot;color: #000000&quot;&gt;&amp;nbsp;tf2&amp;nbsp;&lt;/span&gt;&lt;span style=&quot;color: #af00db&quot;&gt;import&lt;/span&gt;&lt;span style=&quot;color: #000000&quot;&gt;&amp;nbsp;train_lib&lt;/span&gt;&lt;/div&gt;&lt;div&gt;&lt;span style=&quot;color: #af00db&quot;&gt;from&lt;/span&gt;&lt;span style=&quot;color: #000000&quot;&gt;&amp;nbsp;tf2&amp;nbsp;&lt;/span&gt;&lt;span style=&quot;color: #af00db&quot;&gt;import&lt;/span&gt;&lt;span style=&quot;color: #000000&quot;&gt;&amp;nbsp;train&lt;/span&gt;&lt;/div&gt;&lt;br&gt;&lt;div&gt;&lt;span style=&quot;color: #008000&quot;&gt;#&amp;nbsp;config에&amp;nbsp;기반하여&amp;nbsp;모델을&amp;nbsp;생성하고&amp;nbsp;pretrained&amp;nbsp;weight를&amp;nbsp;로딩하는&amp;nbsp;함수&amp;nbsp;생성.&amp;nbsp;&lt;/span&gt;&lt;/div&gt;&lt;div&gt;&lt;span style=&quot;color: #0000ff&quot;&gt;def&lt;/span&gt;&lt;span style=&quot;color: #000000&quot;&gt;&amp;nbsp;&lt;/span&gt;&lt;span style=&quot;color: #795e26&quot;&gt;get_efficientdet_model&lt;/span&gt;&lt;span style=&quot;color: #000000&quot;&gt;(&lt;/span&gt;&lt;span style=&quot;color: #001080&quot;&gt;config&lt;/span&gt;&lt;span style=&quot;color: #000000&quot;&gt;):&lt;/span&gt;&lt;/div&gt;&lt;div&gt;&lt;span style=&quot;color: #000000&quot;&gt;&amp;nbsp;&amp;nbsp;model&amp;nbsp;=&amp;nbsp;train_lib.EfficientDetNetTrain(config=config)&lt;/span&gt;&lt;/div&gt;&lt;div&gt;&lt;span style=&quot;color: #000000&quot;&gt;&amp;nbsp;&amp;nbsp;model&amp;nbsp;=&amp;nbsp;train.setup_model(model,&amp;nbsp;config)&lt;/span&gt;&lt;/div&gt;&lt;br&gt;&lt;div&gt;&lt;span style=&quot;color: #000000&quot;&gt;&amp;nbsp;&amp;nbsp;&lt;/span&gt;&lt;span style=&quot;color: #af00db&quot;&gt;if&lt;/span&gt;&lt;span style=&quot;color: #000000&quot;&gt;&amp;nbsp;TRAIN_CFG.pretrained_ckpt:&lt;/span&gt;&lt;/div&gt;&lt;div&gt;&lt;span style=&quot;color: #000000&quot;&gt;&amp;nbsp;&amp;nbsp;&amp;nbsp;&amp;nbsp;ckpt_path&amp;nbsp;=&amp;nbsp;tf.train.latest_checkpoint(TRAIN_CFG.pretrained_ckpt)&lt;/span&gt;&lt;/div&gt;&lt;div&gt;&lt;span style=&quot;color: #000000&quot;&gt;&amp;nbsp;&amp;nbsp;&amp;nbsp;&amp;nbsp;util_keras.restore_ckpt(&lt;/span&gt;&lt;/div&gt;&lt;div&gt;&lt;span style=&quot;color: #000000&quot;&gt;&amp;nbsp;&amp;nbsp;&amp;nbsp;&amp;nbsp;&amp;nbsp;&amp;nbsp;&amp;nbsp;&amp;nbsp;model,&lt;/span&gt;&lt;/div&gt;&lt;div&gt;&lt;span style=&quot;color: #000000&quot;&gt;&amp;nbsp;&amp;nbsp;&amp;nbsp;&amp;nbsp;&amp;nbsp;&amp;nbsp;&amp;nbsp;&amp;nbsp;ckpt_path,&lt;/span&gt;&lt;/div&gt;&lt;div&gt;&lt;span style=&quot;color: #000000&quot;&gt;&amp;nbsp;&amp;nbsp;&amp;nbsp;&amp;nbsp;&amp;nbsp;&amp;nbsp;&amp;nbsp;&amp;nbsp;config.moving_average_decay,&lt;/span&gt;&lt;/div&gt;&lt;div&gt;&lt;span style=&quot;color: #000000&quot;&gt;&amp;nbsp;&amp;nbsp;&amp;nbsp;&amp;nbsp;&amp;nbsp;&amp;nbsp;&amp;nbsp;&amp;nbsp;exclude_layers=[&lt;/span&gt;&lt;span style=&quot;color: #a31515&quot;&gt;&#39;class_net&#39;&lt;/span&gt;&lt;span style=&quot;color: #000000&quot;&gt;])&lt;/span&gt;&lt;/div&gt;&lt;div&gt;&lt;span style=&quot;color: #000000&quot;&gt;&amp;nbsp;&amp;nbsp;&amp;nbsp;&amp;nbsp;&lt;/span&gt;&lt;/div&gt;&lt;div&gt;&lt;span style=&quot;color: #000000&quot;&gt;&amp;nbsp;&amp;nbsp;train.init_experimental(config)&lt;/span&gt;&lt;/div&gt;&lt;div&gt;&lt;span style=&quot;color: #000000&quot;&gt;&amp;nbsp;&amp;nbsp;&lt;/span&gt;&lt;span style=&quot;color: #af00db&quot;&gt;return&lt;/span&gt;&lt;span style=&quot;color: #000000&quot;&gt;&amp;nbsp;model&lt;/span&gt;&lt;/div&gt;&lt;br&gt;&lt;div&gt;&lt;span style=&quot;color: #000000&quot;&gt;model&amp;nbsp;=&amp;nbsp;get_efficientdet_model(config)&lt;/span&gt;&lt;/div&gt;&lt;div&gt;&lt;span style=&quot;color: #000000&quot;&gt;model.summary()&lt;/span&gt;&lt;/div&gt;&lt;/div&gt;" style="text;whiteSpace=wrap;html=1;" vertex="1" parent="1">
          <mxGeometry x="3840" y="6980" width="550" height="450" as="geometry" />
        </mxCell>
        <mxCell id="ZZrCYWezUP8C2Mr_J5jb-33" value="&lt;div class=&quot;stream output_text&quot; style=&quot;display: inline; color: rgb(33, 33, 33); font-family: monospace; font-size: 14px; font-style: normal; font-weight: 400; letter-spacing: normal; text-indent: 0px; text-transform: none; word-spacing: 0px; background-color: rgb(255, 255, 255);&quot;&gt;&lt;pre style=&quot;margin-bottom: 0px; margin-top: 0px; display: inline;&quot;&gt;/content/automl/efficientdet/utils.py:23: UserWarning: `layer.updates` will be removed in a future version. This property should not be used in TensorFlow 2.0, as `updates` are applied automatically.&#xa;  from tensorflow.python.tpu import tpu_function  # pylint:disable=g-direct-tensorflow-import&#xa;/content/automl/efficientdet/utils.py:255: UserWarning: `layer.updates` will be removed in a future version. This property should not be used in TensorFlow 2.0, as `updates` are applied automatically.&#xa;  for u in self.updates:&#xa;WARNING:absl:Not found efficientnet-b0/stem_1/conv2d_1/kernel in /content/efficientdet-d0/model&#xa;WARNING:absl:Not found efficientnet-b0/stem_1/tpu_batch_normalization/gamma in /content/efficientdet-d0/model&#xa;WARNING:absl:Not found efficientnet-b0/stem_1/tpu_batch_normalization/beta in /content/efficientdet-d0/model&#xa;WARNING:absl:Shape mismatch: class_net/class-predict/pointwise_kernel&#xa;WARNING:absl:Shape mismatch: class_net/class-predict/bias&#xa;WARNING:absl:Not found efficientnet-b0/stem_1/tpu_batch_normalization/moving_mean in /content/efficientdet-d0/model&#xa;WARNING:absl:Not found efficientnet-b0/stem_1/tpu_batch_normalization/moving_variance in /content/efficientdet-d0/model&#xa;&lt;/pre&gt;&lt;/div&gt;&lt;div class=&quot;stream output_text&quot; style=&quot;display: inline; color: rgb(33, 33, 33); font-family: monospace; font-size: 14px; font-style: normal; font-weight: 400; letter-spacing: normal; text-indent: 0px; text-transform: none; word-spacing: 0px; background-color: rgb(255, 255, 255);&quot;&gt;&lt;pre style=&quot;margin-bottom: 0px; margin-top: 0px; display: inline;&quot;&gt;Model: &quot;&quot;&#xa;_________________________________________________________________&#xa; Layer (type)                Output Shape              Param #   &#xa;=================================================================&#xa; efficientnet-b0 (Model)     multiple                  3634844   &#xa;                                                                 &#xa; resample_p6 (ResampleFeatur  multiple                 20800     &#xa; eMap)                                                           &#xa;                                                                 &#xa; resample_p7 (ResampleFeatur  multiple                 0         &#xa; eMap)                                                           &#xa;                                                                 &#xa; fpn_cells (FPNCells)        multiple                  179321    &#xa;                                                                 &#xa; class_net (ClassNet)        multiple                  30324     &#xa;                                                                 &#xa; box_net (BoxNet)            multiple                  20964     &#xa;                                                                 &#xa;=================================================================&#xa;Total params: 3,886,253&#xa;Trainable params: 3,839,117&#xa;Non-trainable params: 47,136&#xa;_________________________________________________________________&lt;/pre&gt;&lt;/div&gt;" style="text;whiteSpace=wrap;html=1;" vertex="1" parent="1">
          <mxGeometry x="3895" y="7460" width="550" height="540" as="geometry" />
        </mxCell>
        <mxCell id="ZZrCYWezUP8C2Mr_J5jb-34" value="&lt;div style=&quot;color: rgb(0, 0, 0); background-color: rgb(255, 255, 254); font-family: monospace, consolas, &amp;quot;courier new&amp;quot;, monospace; font-weight: normal; font-size: 14px; line-height: 19px;&quot;&gt;&lt;div&gt;&lt;span style=&quot;color: #af00db&quot;&gt;from&lt;/span&gt;&lt;span style=&quot;color: #000000&quot;&gt;&amp;nbsp;tf2&amp;nbsp;&lt;/span&gt;&lt;span style=&quot;color: #af00db&quot;&gt;import&lt;/span&gt;&lt;span style=&quot;color: #000000&quot;&gt;&amp;nbsp;train&lt;/span&gt;&lt;/div&gt;&lt;div&gt;&lt;span style=&quot;color: #af00db&quot;&gt;import&lt;/span&gt;&lt;span style=&quot;color: #000000&quot;&gt;&amp;nbsp;numpy&amp;nbsp;&lt;/span&gt;&lt;span style=&quot;color: #af00db&quot;&gt;as&lt;/span&gt;&lt;span style=&quot;color: #000000&quot;&gt;&amp;nbsp;np&lt;/span&gt;&lt;/div&gt;&lt;br&gt;&lt;div&gt;&lt;span style=&quot;color: #008000&quot;&gt;#&amp;nbsp;config에&amp;nbsp;설정된&amp;nbsp;steps_per_epoch,&amp;nbsp;num_epochs는&amp;nbsp;무시하고&amp;nbsp;여기서&amp;nbsp;새로&amp;nbsp;설정.&amp;nbsp;&lt;/span&gt;&lt;/div&gt;&lt;div&gt;&lt;span style=&quot;color: #008000&quot;&gt;#&amp;nbsp;steps_per_epoch는&amp;nbsp;전체&amp;nbsp;학습데이터&amp;nbsp;이미지&amp;nbsp;건수//batch_size,&amp;nbsp;val_steps_per_epoch는&amp;nbsp;전체&amp;nbsp;검증&amp;nbsp;데이터&amp;nbsp;이미지&amp;nbsp;건수//batch_size&lt;/span&gt;&lt;/div&gt;&lt;div&gt;&lt;span style=&quot;color: #000000&quot;&gt;tr_steps_per_epoch&amp;nbsp;=&amp;nbsp;train_images_num//config.batch_size&lt;/span&gt;&lt;/div&gt;&lt;div&gt;&lt;span style=&quot;color: #000000&quot;&gt;val_steps_per_epoch&amp;nbsp;=&amp;nbsp;val_images_num//config.batch_size&lt;/span&gt;&lt;/div&gt;&lt;div&gt;&lt;span style=&quot;color: #795e26&quot;&gt;print&lt;/span&gt;&lt;span style=&quot;color: #000000&quot;&gt;(&lt;/span&gt;&lt;span style=&quot;color: #a31515&quot;&gt;&#39;tr_steps_per_epoch:&#39;&lt;/span&gt;&lt;span style=&quot;color: #000000&quot;&gt;,&amp;nbsp;tr_steps_per_epoch,&amp;nbsp;&lt;/span&gt;&lt;span style=&quot;color: #a31515&quot;&gt;&#39;val_steps_per_epoch:&#39;&lt;/span&gt;&lt;span style=&quot;color: #000000&quot;&gt;,&amp;nbsp;val_steps_per_epoch)&lt;/span&gt;&lt;/div&gt;&lt;br&gt;&lt;div&gt;&lt;span style=&quot;color: #008000&quot;&gt;#&amp;nbsp;&amp;nbsp;config.mode가&amp;nbsp;traineval&amp;nbsp;또는&amp;nbsp;eval일&amp;nbsp;경우&amp;nbsp;검증&amp;nbsp;dataset&amp;nbsp;생성.&lt;/span&gt;&lt;/div&gt;&lt;div&gt;&lt;span style=&quot;color: #000000&quot;&gt;val_dataset&amp;nbsp;=&amp;nbsp;get_dataset(&lt;/span&gt;&lt;span style=&quot;color: #0000ff&quot;&gt;False&lt;/span&gt;&lt;span style=&quot;color: #000000&quot;&gt;,&amp;nbsp;config)&amp;nbsp;&lt;/span&gt;&lt;span style=&quot;color: #af00db&quot;&gt;if&lt;/span&gt;&lt;span style=&quot;color: #000000&quot;&gt;&amp;nbsp;&lt;/span&gt;&lt;span style=&quot;color: #a31515&quot;&gt;&#39;eval&#39;&lt;/span&gt;&lt;span style=&quot;color: #000000&quot;&gt;&amp;nbsp;&lt;/span&gt;&lt;span style=&quot;color: #0000ff&quot;&gt;in&lt;/span&gt;&lt;span style=&quot;color: #000000&quot;&gt;&amp;nbsp;config.mode&amp;nbsp;&lt;/span&gt;&lt;span style=&quot;color: #af00db&quot;&gt;else&lt;/span&gt;&lt;span style=&quot;color: #000000&quot;&gt;&amp;nbsp;&lt;/span&gt;&lt;span style=&quot;color: #0000ff&quot;&gt;None&lt;/span&gt;&lt;/div&gt;&lt;div&gt;&lt;span style=&quot;color: #008000&quot;&gt;#callback은&amp;nbsp;config에&amp;nbsp;설정된&amp;nbsp;구성대로&amp;nbsp;생성.&amp;nbsp;ModelCheckpoint는&amp;nbsp;epoch시마다,&amp;nbsp;COCO&amp;nbsp;Evaluation는&amp;nbsp;5회&amp;nbsp;epoch시마다&amp;nbsp;수행됨.&amp;nbsp;&lt;/span&gt;&lt;/div&gt;&lt;div&gt;&lt;span style=&quot;color: #008000&quot;&gt;#config.save_freq&amp;nbsp;=&amp;nbsp;eval;config.map_freq&amp;nbsp;=&amp;nbsp;5&lt;/span&gt;&lt;/div&gt;&lt;div&gt;&lt;span style=&quot;color: #008000&quot;&gt;#&amp;nbsp;1&amp;nbsp;epoch시마다&amp;nbsp;P100에서&amp;nbsp;약&amp;nbsp;3분30초&amp;nbsp;걸림.&amp;nbsp;적절한&amp;nbsp;epochs&amp;nbsp;수&amp;nbsp;설정&amp;nbsp;필요.&amp;nbsp;&lt;/span&gt;&lt;/div&gt;&lt;div&gt;&lt;span style=&quot;color: #000000&quot;&gt;model.fit(&lt;/span&gt;&lt;/div&gt;&lt;div&gt;&lt;span style=&quot;color: #000000&quot;&gt;&amp;nbsp;&amp;nbsp;&amp;nbsp;&amp;nbsp;get_dataset(&lt;/span&gt;&lt;span style=&quot;color: #0000ff&quot;&gt;True&lt;/span&gt;&lt;span style=&quot;color: #000000&quot;&gt;,&amp;nbsp;config),&lt;/span&gt;&lt;/div&gt;&lt;div&gt;&lt;span style=&quot;color: #000000&quot;&gt;&amp;nbsp;&amp;nbsp;&amp;nbsp;&amp;nbsp;epochs=&lt;/span&gt;&lt;span style=&quot;color: #09885a&quot;&gt;15&lt;/span&gt;&lt;span style=&quot;color: #000000&quot;&gt;,&lt;/span&gt;&lt;/div&gt;&lt;div&gt;&lt;span style=&quot;color: #000000&quot;&gt;&amp;nbsp;&amp;nbsp;&amp;nbsp;&amp;nbsp;steps_per_epoch=tr_steps_per_epoch&amp;nbsp;,&lt;/span&gt;&lt;/div&gt;&lt;div&gt;&lt;span style=&quot;color: #000000&quot;&gt;&amp;nbsp;&amp;nbsp;&amp;nbsp;&amp;nbsp;callbacks=train_lib.get_callbacks(config.as_dict(),&amp;nbsp;val_dataset),&lt;/span&gt;&lt;/div&gt;&lt;div&gt;&lt;span style=&quot;color: #000000&quot;&gt;&amp;nbsp;&amp;nbsp;&amp;nbsp;&amp;nbsp;validation_data=val_dataset,&lt;/span&gt;&lt;/div&gt;&lt;div&gt;&lt;span style=&quot;color: #000000&quot;&gt;&amp;nbsp;&amp;nbsp;&amp;nbsp;&amp;nbsp;validation_steps=val_steps_per_epoch)&lt;/span&gt;&lt;/div&gt;&lt;br&gt;&lt;div&gt;&lt;span style=&quot;color: #000000&quot;&gt;tf.keras.backend.clear_session()&lt;/span&gt;&lt;/div&gt;&lt;/div&gt;" style="text;whiteSpace=wrap;html=1;" vertex="1" parent="1">
          <mxGeometry x="3840" y="8075" width="920" height="530" as="geometry" />
        </mxCell>
        <mxCell id="ZZrCYWezUP8C2Mr_J5jb-35" value="&lt;div class=&quot;stream output_text&quot; style=&quot;display: inline ; color: rgb(33 , 33 , 33) ; font-family: monospace ; font-size: 14px ; font-style: normal ; font-weight: 400 ; letter-spacing: normal ; text-indent: 0px ; text-transform: none ; word-spacing: 0px ; background-color: rgb(255 , 255 , 255)&quot;&gt;&lt;pre style=&quot;margin-bottom: 0px ; margin-top: 0px ; display: inline&quot;&gt;tr_steps_per_epoch: 312 val_steps_per_epoch: 313&lt;br&gt;Epoch 1/15&lt;br&gt;&lt;/pre&gt;&lt;/div&gt;&lt;div class=&quot;stream output_text&quot; style=&quot;display: inline ; color: rgb(33 , 33 , 33) ; font-family: monospace ; font-size: 14px ; font-style: normal ; font-weight: 400 ; letter-spacing: normal ; text-indent: 0px ; text-transform: none ; word-spacing: 0px ; background-color: rgb(255 , 255 , 255)&quot;&gt;&lt;pre style=&quot;margin-bottom: 0px ; margin-top: 0px ; display: inline&quot;&gt;/content/automl/efficientdet/utils.py:23: UserWarning: `layer.updates` will be removed in a future version. This property should not be used in TensorFlow 2.0, as `updates` are applied automatically.&lt;br&gt;  from tensorflow.python.tpu import tpu_function  # pylint:disable=g-direct-tensorflow-import&lt;br&gt;/content/automl/efficientdet/utils.py:255: UserWarning: `layer.updates` will be removed in a future version. This property should not be used in TensorFlow 2.0, as `updates` are applied automatically.&lt;br&gt;  for u in self.updates:&lt;br&gt;&lt;/pre&gt;&lt;/div&gt;&lt;div class=&quot;stream output_text&quot; style=&quot;display: inline ; color: rgb(33 , 33 , 33) ; font-family: monospace ; font-size: 14px ; font-style: normal ; font-weight: 400 ; letter-spacing: normal ; text-indent: 0px ; text-transform: none ; word-spacing: 0px ; background-color: rgb(255 , 255 , 255)&quot;&gt;&lt;pre style=&quot;margin-bottom: 0px ; margin-top: 0px ; display: inline&quot;&gt;312/312 [==============================] - ETA: 0s - det_loss: 129.3025 - cls_loss: 129.0228 - box_loss: 0.0056 - reg_l2_loss: 0.0954 - loss: 129.3978 - learning_rate: 0.0090 - gradient_norm: 3.3109&lt;br&gt;Epoch 00001: saving model to /mydrive/model_trained/ckpt-1&lt;br&gt;312/312 [==============================] - 450s 1s/step - det_loss: 128.8929 - cls_loss: 128.6131 - box_loss: 0.0056 - reg_l2_loss: 0.0954 - loss: 128.9883 - learning_rate: 0.0090 - gradient_norm: 3.3069 - val_det_loss: 0.9879 - val_cls_loss: 0.6648 - val_box_loss: 0.0065 - val_reg_l2_loss: 0.0955 - val_loss: 1.0834&lt;br&gt;Epoch 2/15&lt;br&gt;Epoch 5/15&lt;br&gt;312/312 [==============================] - ETA: 0s - det_loss: 0.6432 - cls_loss: 0.4639 - box_loss: 0.0036 - reg_l2_loss: 0.0962 - loss: 0.7394 - learning_rate: 0.0077 - gradient_norm: 2.9198&lt;br&gt;Epoch 00005: saving model to /mydrive/model_trained/ckpt-5&lt;br&gt;creating index...&lt;br&gt;index created!&lt;br&gt;Loading and preparing results...&lt;br&gt;Converting ndarray to lists...&lt;br&gt;(250400, 7)&lt;br&gt;0/250400&lt;br&gt;DONE (t=2.58s)&lt;br&gt;creating index...&lt;br&gt;index created!&lt;br&gt;Running per image evaluation...&lt;br&gt;Evaluate annotation type *bbox*&lt;br&gt;DONE (t=32.21s).&lt;br&gt;Accumulating evaluation results...&lt;br&gt;DONE (t=6.36s).&lt;br&gt; Average Precision  (AP) @[ IoU=0.50:0.95 | area=   all | maxDets=100 ] = 0.345&lt;br&gt; Average Precision  (AP) @[ IoU=0.50      | area=   all | maxDets=100 ] = 0.569&lt;br&gt; Average Precision  (AP) @[ IoU=0.75      | area=   all | maxDets=100 ] = 0.363&lt;br&gt; Average Precision  (AP) @[ IoU=0.50:0.95 | area= small | maxDets=100 ] = 0.052&lt;br&gt; Average Precision  (AP) @[ IoU=0.50:0.95 | area=medium | maxDets=100 ] = 0.224&lt;br&gt; Average Precision  (AP) @[ IoU=0.50:0.95 | area= large | maxDets=100 ] = 0.428&lt;br&gt; Average Recall     (AR) @[ IoU=0.50:0.95 | area=   all | maxDets=  1 ] = 0.350&lt;br&gt; Average Recall     (AR) @[ IoU=0.50:0.95 | area=   all | maxDets= 10 ] = 0.530&lt;br&gt; Average Recall     (AR) @[ IoU=0.50:0.95 | area=   all | maxDets=100 ] = 0.552&lt;br&gt; Average Recall     (AR) @[ IoU=0.50:0.95 | area= small | maxDets=100 ] = 0.134&lt;br&gt; Average Recall     (AR) @[ IoU=0.50:0.95 | area=medium | maxDets=100 ] = 0.450&lt;br&gt; Average Recall     (AR) @[ IoU=0.50:0.95 | area= large | maxDets=100 ] = 0.641&lt;br&gt;312/312 [==============================] - 587s 2s/step - det_loss: 0.6429 - cls_loss: 0.4636 - box_loss: 0.0036 - reg_l2_loss: 0.0962 - loss: 0.7391 - learning_rate: 0.0077 - gradient_norm: 2.9170 - val_det_loss: 0.6755 - val_cls_loss: 0.3979 - val_box_loss: 0.0056 - val_reg_l2_loss: 0.0962 - val_loss: 0.7717&lt;br&gt;Epoch 6/15&lt;br&gt;Epoch 10/15&lt;br&gt;312/312 [==============================] - ETA: 0s - det_loss: 0.4641 - cls_loss: 0.3251 - box_loss: 0.0028 - reg_l2_loss: 0.0963 - loss: 0.5605 - learning_rate: 0.0023 - gradient_norm: 2.7431&lt;br&gt;Epoch 00010: saving model to /mydrive/model_trained/ckpt-10&lt;br&gt;creating index...&lt;br&gt;index created!&lt;br&gt;Loading and preparing results...&lt;br&gt;Converting ndarray to lists...&lt;br&gt;(250400, 7)&lt;br&gt;0/250400&lt;br&gt;DONE (t=2.71s)&lt;br&gt;creating index...&lt;br&gt;index created!&lt;br&gt;Running per image evaluation...&lt;br&gt;Evaluate annotation type *bbox*&lt;br&gt;DONE (t=32.67s).&lt;br&gt;Accumulating evaluation results...&lt;br&gt;DONE (t=6.44s).&lt;br&gt; Average Precision  (AP) @[ IoU=0.50:0.95 | area=   all | maxDets=100 ] = 0.464&lt;br&gt; Average Precision  (AP) @[ IoU=0.50      | area=   all | maxDets=100 ] = 0.713&lt;br&gt; Average Precision  (AP) @[ IoU=0.75      | area=   all | maxDets=100 ] = 0.506&lt;br&gt; Average Precision  (AP) @[ IoU=0.50:0.95 | area= small | maxDets=100 ] = 0.076&lt;br&gt; Average Precision  (AP) @[ IoU=0.50:0.95 | area=medium | maxDets=100 ] = 0.324&lt;br&gt; Average Precision  (AP) @[ IoU=0.50:0.95 | area= large | maxDets=100 ] = 0.572&lt;br&gt; Average Recall     (AR) @[ IoU=0.50:0.95 | area=   all | maxDets=  1 ] = 0.398&lt;br&gt; Average Recall     (AR) @[ IoU=0.50:0.95 | area=   all | maxDets= 10 ] = 0.592&lt;br&gt; Average Recall     (AR) @[ IoU=0.50:0.95 | area=   all | maxDets=100 ] = 0.620&lt;br&gt; Average Recall     (AR) @[ IoU=0.50:0.95 | area= small | maxDets=100 ] = 0.182&lt;br&gt; Average Recall     (AR) @[ IoU=0.50:0.95 | area=medium | maxDets=100 ] = 0.528&lt;br&gt; Average Recall     (AR) @[ IoU=0.50:0.95 | area= large | maxDets=100 ] = 0.717&lt;br&gt;312/312 [==============================] - 579s 2s/step - det_loss: 0.4639 - cls_loss: 0.3249 - box_loss: 0.0028 - reg_l2_loss: 0.0963 - loss: 0.5603 - learning_rate: 0.0023 - gradient_norm: 2.7427 - val_det_loss: 0.5617 - val_cls_loss: 0.3277 - val_box_loss: 0.0047 - val_reg_l2_loss: 0.0963 - val_loss: 0.6580&lt;br&gt;Epoch 11/15&lt;br&gt;312/312 [==============================] - ETA: 0s - det_loss: 0.4546 - cls_loss: 0.3185 - box_loss: 0.0027 - reg_l2_loss: 0.0963 - loss: 0.5509 - learning_rate: 0.0015 - gradient_norm: 2.8328&lt;br&gt;Epoch 00011: saving model to /mydrive/model_trained/ckpt-11&lt;br&gt;&lt;br&gt;&lt;/pre&gt;&lt;/div&gt;" style="text;whiteSpace=wrap;html=1;" vertex="1" parent="1">
          <mxGeometry x="3900" y="8590" width="2440" height="1320" as="geometry" />
        </mxCell>
        <mxCell id="ZZrCYWezUP8C2Mr_J5jb-36" value="&lt;h3 class=&quot;text-cell-section-header&quot; style=&quot;color: rgb(33, 33, 33); font-family: roboto, noto, sans-serif; font-weight: 400; margin-bottom: 0.5em; position: relative; margin-top: 0.5em; font-size: 20px; font-style: normal; letter-spacing: normal; text-indent: 0px; text-transform: none; word-spacing: 0px; background-color: rgb(255, 255, 255);&quot;&gt;학습된 모델 파일을 이용하여 Inference 수행.&lt;/h3&gt;" style="text;whiteSpace=wrap;html=1;" vertex="1" parent="1">
          <mxGeometry x="3795" y="10440" width="430" height="50" as="geometry" />
        </mxCell>
        <mxCell id="ZZrCYWezUP8C2Mr_J5jb-37" style="edgeStyle=orthogonalEdgeStyle;rounded=0;orthogonalLoop=1;jettySize=auto;html=1;" edge="1" parent="1" source="ZZrCYWezUP8C2Mr_J5jb-38" target="ZZrCYWezUP8C2Mr_J5jb-39">
          <mxGeometry relative="1" as="geometry" />
        </mxCell>
        <mxCell id="ZZrCYWezUP8C2Mr_J5jb-38" value="&lt;div style=&quot;color: rgb(0, 0, 0); background-color: rgb(255, 255, 254); font-family: monospace, consolas, &amp;quot;courier new&amp;quot;, monospace; font-weight: normal; font-size: 14px; line-height: 19px;&quot;&gt;&lt;div&gt;&lt;span style=&quot;color: #af00db&quot;&gt;import&lt;/span&gt;&lt;span style=&quot;color: #000000&quot;&gt;&amp;nbsp;hparams_config&lt;/span&gt;&lt;/div&gt;&lt;br&gt;&lt;div&gt;&lt;span style=&quot;color: #000000&quot;&gt;infer_config&amp;nbsp;=&amp;nbsp;hparams_config.get_efficientdet_config(&lt;/span&gt;&lt;span style=&quot;color: #a31515&quot;&gt;&#39;efficientdet-d0&#39;&lt;/span&gt;&lt;span style=&quot;color: #000000&quot;&gt;)&lt;/span&gt;&lt;/div&gt;&lt;div&gt;&lt;span style=&quot;color: #795e26&quot;&gt;print&lt;/span&gt;&lt;span style=&quot;color: #000000&quot;&gt;(infer_config)&lt;/span&gt;&lt;/div&gt;&lt;/div&gt;" style="text;whiteSpace=wrap;html=1;" vertex="1" parent="1">
          <mxGeometry x="3840" y="10510" width="550" height="110" as="geometry" />
        </mxCell>
        <mxCell id="ZZrCYWezUP8C2Mr_J5jb-39" value="&lt;span style=&quot;color: rgb(33, 33, 33); font-family: monospace; font-size: 14px; font-style: normal; font-weight: 400; letter-spacing: normal; text-indent: 0px; text-transform: none; word-spacing: 0px; background-color: rgb(255, 255, 255); display: inline; float: none;&quot;&gt;act_type: swish&#xa;alpha: 0.25&#xa;anchor_scale: 4.0&#xa;apply_bn_for_resampling: true&#xa;aspect_ratios:&#xa;- 1.0&#xa;- 2.0&#xa;- 0.5&#xa;autoaugment_policy: null&#xa;backbone_config: null&#xa;backbone_name: efficientnet-b0&#xa;box_class_repeats: 3&#xa;box_loss_weight: 50.0&#xa;ckpt_var_scope: null&#xa;clip_gradients_norm: 10.0&#xa;conv_after_downsample: false&#xa;conv_bn_act_pattern: false&#xa;data_format: channels_last&#xa;dataset_type: null&#xa;delta: 0.1&#xa;drop_remainder: true&#xa;first_lr_drop_epoch: 200.0&#xa;fpn_cell_repeats: 3&#xa;fpn_config: null&#xa;fpn_name: null&#xa;fpn_num_filters: 64&#xa;fpn_weight_method: null&#xa;gamma: 1.5&#xa;grad_checkpoint: false&#xa;grid_mask: false&#xa;heads:&#xa;- object_detection&#xa;image_size: 512&#xa;img_summary_steps: null&#xa;input_rand_hflip: true&#xa;iou_loss_type: null&#xa;iou_loss_weight: 1.0&#xa;is_training_bn: true&#xa;jitter_max: 2.0&#xa;jitter_min: 0.1&#xa;label_map: null&#xa;label_smoothing: 0.0&#xa;learning_rate: 0.08&#xa;loss_scale: null&#xa;lr_decay_method: cosine&#xa;lr_warmup_epoch: 1.0&#xa;lr_warmup_init: 0.008&#xa;map_freq: 5&#xa;max_instances_per_image: 100&#xa;max_level: 7&#xa;mean_rgb:&#xa;- 123.675&#xa;- 116.28&#xa;- 103.53&#xa;min_level: 3&#xa;mixed_precision: false&#xa;model_optimizations: {}&#xa;momentum: 0.9&#xa;moving_average_decay: 0.9998&#xa;name: efficientdet-d0&#xa;nms_configs:&#xa;    iou_thresh: null&#xa;    max_nms_inputs: 0&#xa;    max_output_size: 100&#xa;    method: gaussian&#xa;    pyfunc: false&#xa;    score_thresh: 0.0&#xa;    sigma: null&#xa;num_classes: 90&#xa;num_epochs: 300&#xa;num_scales: 3&#xa;optimizer: sgd&#xa;poly_lr_power: 0.9&#xa;positives_momentum: null&#xa;regenerate_source_id: false&#xa;sample_image: null&#xa;save_freq: epoch&#xa;scale_range: false&#xa;second_lr_drop_epoch: 250.0&#xa;seg_num_classes: 3&#xa;separable_conv: true&#xa;skip_crowd_during_training: true&#xa;skip_mismatch: true&#xa;stddev_rgb:&#xa;- 58.395&#xa;- 57.120000000000005&#xa;- 57.375&#xa;strategy: null&#xa;survival_prob: null&#xa;target_size: null&#xa;tflite_max_detections: 100&#xa;use_keras_model: true&#xa;var_freeze_expr: null&#xa;verbose: 1&#xa;weight_decay: 4.0e-05&#xa;&lt;/span&gt;&lt;br class=&quot;Apple-interchange-newline&quot;&gt;" style="text;whiteSpace=wrap;html=1;" vertex="1" parent="1">
          <mxGeometry x="4680" y="10480" width="260" height="1490" as="geometry" />
        </mxCell>
        <mxCell id="ZZrCYWezUP8C2Mr_J5jb-40" value="&lt;div style=&quot;color: rgb(0, 0, 0); background-color: rgb(255, 255, 254); font-family: monospace, consolas, &amp;quot;courier new&amp;quot;, monospace; font-weight: normal; font-size: 14px; line-height: 19px;&quot;&gt;&lt;br&gt;&lt;div&gt;&lt;span style=&quot;color: #000000&quot;&gt;infer_config&amp;nbsp;=&amp;nbsp;hparams_config.get_efficientdet_config(&lt;/span&gt;&lt;span style=&quot;color: #a31515&quot;&gt;&#39;efficientdet-d0&#39;&lt;/span&gt;&lt;span style=&quot;color: #000000&quot;&gt;)&lt;/span&gt;&lt;/div&gt;&lt;div&gt;&lt;span style=&quot;color: #008000&quot;&gt;#&amp;nbsp;config의&amp;nbsp;특정&amp;nbsp;항목을&amp;nbsp;update&lt;/span&gt;&lt;/div&gt;&lt;div&gt;&lt;span style=&quot;color: #000000&quot;&gt;infer_config.model_name&amp;nbsp;=&amp;nbsp;&lt;/span&gt;&lt;span style=&quot;color: #a31515&quot;&gt;&#39;efficientdet-d0&#39;&lt;/span&gt;&lt;/div&gt;&lt;div&gt;&lt;span style=&quot;color: #000000&quot;&gt;infer_config.model_dir&amp;nbsp;=&amp;nbsp;&lt;/span&gt;&lt;span style=&quot;color: #a31515&quot;&gt;&#39;/mydrive/model_trained&#39;&lt;/span&gt;&lt;/div&gt;&lt;div&gt;&lt;span style=&quot;color: #008000&quot;&gt;#&amp;nbsp;infer_config의&amp;nbsp;num_classes는&amp;nbsp;20로&amp;nbsp;바뀌어야&amp;nbsp;함.&amp;nbsp;&lt;/span&gt;&lt;/div&gt;&lt;div&gt;&lt;span style=&quot;color: #000000&quot;&gt;infer_config.num_classes&amp;nbsp;=&lt;/span&gt;&lt;span style=&quot;color: #09885a&quot;&gt;20&lt;/span&gt;&lt;/div&gt;&lt;div&gt;&lt;span style=&quot;color: #000000&quot;&gt;infer_config.is_training_bn&amp;nbsp;=&amp;nbsp;&lt;/span&gt;&lt;span style=&quot;color: #0000ff&quot;&gt;False&lt;/span&gt;&lt;/div&gt;&lt;div&gt;&lt;span style=&quot;color: #000000&quot;&gt;infer_config.nms_configs.score_thresh&amp;nbsp;=&amp;nbsp;&lt;/span&gt;&lt;span style=&quot;color: #09885a&quot;&gt;0.4&lt;/span&gt;&lt;/div&gt;&lt;div&gt;&lt;span style=&quot;color: #000000&quot;&gt;infer_config.nms_configs.max_output_size&amp;nbsp;=&amp;nbsp;&lt;/span&gt;&lt;span style=&quot;color: #09885a&quot;&gt;100&lt;/span&gt;&lt;/div&gt;&lt;/div&gt;" style="text;whiteSpace=wrap;html=1;" vertex="1" parent="1">
          <mxGeometry x="3830" y="10770" width="550" height="220" as="geometry" />
        </mxCell>
        <mxCell id="ZZrCYWezUP8C2Mr_J5jb-41" value="&lt;div style=&quot;color: rgb(0, 0, 0); background-color: rgb(255, 255, 254); font-family: monospace, consolas, &amp;quot;courier new&amp;quot;, monospace; font-weight: normal; font-size: 14px; line-height: 19px;&quot;&gt;&lt;div&gt;&lt;span style=&quot;color: #af00db&quot;&gt;import&lt;/span&gt;&lt;span style=&quot;color: #000000&quot;&gt;&amp;nbsp;inference&lt;/span&gt;&lt;/div&gt;&lt;div&gt;&lt;span style=&quot;color: #af00db&quot;&gt;from&lt;/span&gt;&lt;span style=&quot;color: #000000&quot;&gt;&amp;nbsp;keras&amp;nbsp;&lt;/span&gt;&lt;span style=&quot;color: #af00db&quot;&gt;import&lt;/span&gt;&lt;span style=&quot;color: #000000&quot;&gt;&amp;nbsp;efficientdet_keras&lt;/span&gt;&lt;/div&gt;&lt;br&gt;&lt;div&gt;&lt;span style=&quot;color: #000000&quot;&gt;model&amp;nbsp;=&amp;nbsp;efficientdet_keras.EfficientDetModel(config=infer_config)&lt;/span&gt;&lt;/div&gt;&lt;div&gt;&lt;span style=&quot;color: #000000&quot;&gt;model.build((&lt;/span&gt;&lt;span style=&quot;color: #0000ff&quot;&gt;None&lt;/span&gt;&lt;span style=&quot;color: #000000&quot;&gt;,&amp;nbsp;&lt;/span&gt;&lt;span style=&quot;color: #0000ff&quot;&gt;None&lt;/span&gt;&lt;span style=&quot;color: #000000&quot;&gt;,&amp;nbsp;&lt;/span&gt;&lt;span style=&quot;color: #0000ff&quot;&gt;None&lt;/span&gt;&lt;span style=&quot;color: #000000&quot;&gt;,&amp;nbsp;&lt;/span&gt;&lt;span style=&quot;color: #09885a&quot;&gt;3&lt;/span&gt;&lt;span style=&quot;color: #000000&quot;&gt;))&lt;/span&gt;&lt;/div&gt;&lt;div&gt;&lt;span style=&quot;color: #795e26&quot;&gt;print&lt;/span&gt;&lt;span style=&quot;color: #000000&quot;&gt;(&lt;/span&gt;&lt;span style=&quot;color: #a31515&quot;&gt;&#39;####&amp;nbsp;checkpoint&amp;nbsp;name:&#39;&lt;/span&gt;&lt;span style=&quot;color: #000000&quot;&gt;,&amp;nbsp;tf.train.latest_checkpoint(infer_config.model_dir))&lt;/span&gt;&lt;/div&gt;&lt;div&gt;&lt;span style=&quot;color: #000000&quot;&gt;model.load_weights(tf.train.latest_checkpoint(infer_config.model_dir))&lt;/span&gt;&lt;/div&gt;&lt;div&gt;&lt;span style=&quot;color: #000000&quot;&gt;model.summary()&lt;/span&gt;&lt;/div&gt;&lt;/div&gt;" style="text;whiteSpace=wrap;html=1;" vertex="1" parent="1">
          <mxGeometry x="3830" y="11100" width="550" height="170" as="geometry" />
        </mxCell>
        <mxCell id="ZZrCYWezUP8C2Mr_J5jb-42" value="&lt;span style=&quot;color: rgb(33, 33, 33); font-family: monospace; font-size: 14px; font-style: normal; font-weight: 400; letter-spacing: normal; text-indent: 0px; text-transform: none; word-spacing: 0px; background-color: rgb(255, 255, 255); display: inline; float: none;&quot;&gt;#### checkpoint name: /mydrive/model_trained/ckpt-15&#xa;Model: &quot;&quot;&#xa;_________________________________________________________________&#xa;Layer (type)                 Output Shape              Param #   &#xa;=================================================================&#xa;efficientnet-b0 (Model)      multiple                  3634844   &#xa;_________________________________________________________________&#xa;resample_p6 (ResampleFeature multiple                  20800     &#xa;_________________________________________________________________&#xa;resample_p7 (ResampleFeature multiple                  0         &#xa;_________________________________________________________________&#xa;fpn_cells (FPNCells)         multiple                  179321    &#xa;_________________________________________________________________&#xa;class_net (ClassNet)         multiple                  30324     &#xa;_________________________________________________________________&#xa;box_net (BoxNet)             multiple                  20964     &#xa;=================================================================&#xa;Total params: 3,886,253&#xa;Trainable params: 3,839,117&#xa;Non-trainable params: 47,136&#xa;_________________________________________________________________&lt;/span&gt;" style="text;whiteSpace=wrap;html=1;" vertex="1" parent="1">
          <mxGeometry x="3910" y="11310" width="500" height="340" as="geometry" />
        </mxCell>
        <mxCell id="ZZrCYWezUP8C2Mr_J5jb-43" value="&lt;div style=&quot;color: rgb(0, 0, 0); background-color: rgb(255, 255, 254); font-family: monospace, consolas, &amp;quot;courier new&amp;quot;, monospace; font-weight: normal; font-size: 14px; line-height: 19px;&quot;&gt;&lt;div&gt;&lt;span style=&quot;color: #af00db&quot;&gt;import&lt;/span&gt;&lt;span style=&quot;color: #000000&quot;&gt;&amp;nbsp;time&lt;/span&gt;&lt;/div&gt;&lt;br&gt;&lt;div&gt;&lt;span style=&quot;color: #0000ff&quot;&gt;class&lt;/span&gt;&lt;span style=&quot;color: #000000&quot;&gt;&amp;nbsp;&lt;/span&gt;&lt;span style=&quot;color: #267f99&quot;&gt;ExportModel&lt;/span&gt;&lt;span style=&quot;color: #000000&quot;&gt;(&lt;/span&gt;&lt;span style=&quot;color: #267f99&quot;&gt;tf&lt;/span&gt;&lt;span style=&quot;color: #000000&quot;&gt;.&lt;/span&gt;&lt;span style=&quot;color: #267f99&quot;&gt;Module&lt;/span&gt;&lt;span style=&quot;color: #000000&quot;&gt;):&lt;/span&gt;&lt;/div&gt;&lt;br&gt;&lt;div&gt;&lt;span style=&quot;color: #000000&quot;&gt;&amp;nbsp;&amp;nbsp;&lt;/span&gt;&lt;span style=&quot;color: #0000ff&quot;&gt;def&lt;/span&gt;&lt;span style=&quot;color: #000000&quot;&gt;&amp;nbsp;&lt;/span&gt;&lt;span style=&quot;color: #795e26&quot;&gt;__init__&lt;/span&gt;&lt;span style=&quot;color: #000000&quot;&gt;(&lt;/span&gt;&lt;span style=&quot;color: #001080&quot;&gt;self&lt;/span&gt;&lt;span style=&quot;color: #000000&quot;&gt;,&amp;nbsp;&lt;/span&gt;&lt;span style=&quot;color: #001080&quot;&gt;model&lt;/span&gt;&lt;span style=&quot;color: #000000&quot;&gt;):&lt;/span&gt;&lt;/div&gt;&lt;div&gt;&lt;span style=&quot;color: #000000&quot;&gt;&amp;nbsp;&amp;nbsp;&amp;nbsp;&amp;nbsp;super().&lt;/span&gt;&lt;span style=&quot;color: #795e26&quot;&gt;__init__&lt;/span&gt;&lt;span style=&quot;color: #000000&quot;&gt;()&lt;/span&gt;&lt;/div&gt;&lt;div&gt;&lt;span style=&quot;color: #000000&quot;&gt;&amp;nbsp;&amp;nbsp;&amp;nbsp;&amp;nbsp;&lt;/span&gt;&lt;span style=&quot;color: #001080&quot;&gt;self&lt;/span&gt;&lt;span style=&quot;color: #000000&quot;&gt;.model&amp;nbsp;=&amp;nbsp;model&lt;/span&gt;&lt;/div&gt;&lt;br&gt;&lt;div&gt;&lt;span style=&quot;color: #000000&quot;&gt;&amp;nbsp;&amp;nbsp;&lt;/span&gt;&lt;span style=&quot;color: #795e26&quot;&gt;@tf.function&lt;/span&gt;&lt;/div&gt;&lt;div&gt;&lt;span style=&quot;color: #000000&quot;&gt;&amp;nbsp;&amp;nbsp;&lt;/span&gt;&lt;span style=&quot;color: #0000ff&quot;&gt;def&lt;/span&gt;&lt;span style=&quot;color: #000000&quot;&gt;&amp;nbsp;&lt;/span&gt;&lt;span style=&quot;color: #795e26&quot;&gt;f&lt;/span&gt;&lt;span style=&quot;color: #000000&quot;&gt;(&lt;/span&gt;&lt;span style=&quot;color: #001080&quot;&gt;self&lt;/span&gt;&lt;span style=&quot;color: #000000&quot;&gt;,&amp;nbsp;&lt;/span&gt;&lt;span style=&quot;color: #001080&quot;&gt;imgs&lt;/span&gt;&lt;span style=&quot;color: #000000&quot;&gt;):&lt;/span&gt;&lt;/div&gt;&lt;div&gt;&lt;span style=&quot;color: #000000&quot;&gt;&amp;nbsp;&amp;nbsp;&amp;nbsp;&amp;nbsp;&lt;/span&gt;&lt;span style=&quot;color: #008000&quot;&gt;#model(imgs,&amp;nbsp;training=False,&amp;nbsp;post_mode=&#39;global&#39;)&lt;/span&gt;&lt;/div&gt;&lt;div&gt;&lt;span style=&quot;color: #000000&quot;&gt;&amp;nbsp;&amp;nbsp;&amp;nbsp;&amp;nbsp;&lt;/span&gt;&lt;span style=&quot;color: #af00db&quot;&gt;return&lt;/span&gt;&lt;span style=&quot;color: #000000&quot;&gt;&amp;nbsp;&lt;/span&gt;&lt;span style=&quot;color: #001080&quot;&gt;self&lt;/span&gt;&lt;span style=&quot;color: #000000&quot;&gt;.model(imgs,&amp;nbsp;training=&lt;/span&gt;&lt;span style=&quot;color: #0000ff&quot;&gt;False&lt;/span&gt;&lt;span style=&quot;color: #000000&quot;&gt;,&amp;nbsp;post_mode=&lt;/span&gt;&lt;span style=&quot;color: #a31515&quot;&gt;&#39;global&#39;&lt;/span&gt;&lt;span style=&quot;color: #000000&quot;&gt;)&lt;/span&gt;&lt;/div&gt;&lt;br&gt;&lt;div&gt;&lt;span style=&quot;color: #000000&quot;&gt;export_model&amp;nbsp;=&amp;nbsp;ExportModel(model)&lt;/span&gt;&lt;/div&gt;&lt;/div&gt;" style="text;whiteSpace=wrap;html=1;" vertex="1" parent="1">
          <mxGeometry x="3815" y="11740" width="490" height="280" as="geometry" />
        </mxCell>
        <mxCell id="ZZrCYWezUP8C2Mr_J5jb-44" value="&lt;div style=&quot;color: rgb(0, 0, 0); background-color: rgb(255, 255, 254); font-family: monospace, consolas, &amp;quot;courier new&amp;quot;, monospace; font-weight: normal; font-size: 14px; line-height: 19px;&quot;&gt;&lt;div&gt;&lt;span style=&quot;color: #0000ff&quot;&gt;!&lt;/span&gt;&lt;span style=&quot;color: #000000&quot;&gt;mkdir&amp;nbsp;-p&amp;nbsp;/content/data&lt;/span&gt;&lt;/div&gt;&lt;div&gt;&lt;span style=&quot;color: #0000ff&quot;&gt;!&lt;/span&gt;&lt;span style=&quot;color: #000000&quot;&gt;wget&amp;nbsp;-O&amp;nbsp;./data/beatles01.jpg&amp;nbsp;https://raw.githubusercontent.com/chulminkw/DLCV/master/data/image/beatles01.jpg&lt;/span&gt;&lt;/div&gt;&lt;div&gt;&lt;span style=&quot;color: #0000ff&quot;&gt;!&lt;/span&gt;&lt;span style=&quot;color: #000000&quot;&gt;wget&amp;nbsp;-O&amp;nbsp;./data/baseball01.jpg&amp;nbsp;https://raw.githubusercontent.com/chulminkw/DLCV/master/data/image/baseball01.jpg&lt;/span&gt;&lt;/div&gt;&lt;/div&gt;" style="text;whiteSpace=wrap;html=1;" vertex="1" parent="1">
          <mxGeometry x="3807.5" y="12050" width="550" height="110" as="geometry" />
        </mxCell>
        <mxCell id="ZZrCYWezUP8C2Mr_J5jb-45" value="&lt;div style=&quot;color: rgb(0, 0, 0); background-color: rgb(255, 255, 254); font-family: monospace, consolas, &amp;quot;courier new&amp;quot;, monospace; font-weight: normal; font-size: 14px; line-height: 19px;&quot;&gt;&lt;div&gt;&lt;span style=&quot;color: #af00db&quot;&gt;import&lt;/span&gt;&lt;span style=&quot;color: #000000&quot;&gt;&amp;nbsp;cv2&lt;/span&gt;&lt;/div&gt;&lt;div&gt;&lt;span style=&quot;color: #af00db&quot;&gt;import&lt;/span&gt;&lt;span style=&quot;color: #000000&quot;&gt;&amp;nbsp;matplotlib.pyplot&amp;nbsp;&lt;/span&gt;&lt;span style=&quot;color: #af00db&quot;&gt;as&lt;/span&gt;&lt;span style=&quot;color: #000000&quot;&gt;&amp;nbsp;plt&lt;/span&gt;&lt;/div&gt;&lt;div&gt;&lt;span style=&quot;color: #af00db&quot;&gt;import&lt;/span&gt;&lt;span style=&quot;color: #000000&quot;&gt;&amp;nbsp;numpy&amp;nbsp;&lt;/span&gt;&lt;span style=&quot;color: #af00db&quot;&gt;as&lt;/span&gt;&lt;span style=&quot;color: #000000&quot;&gt;&amp;nbsp;np&lt;/span&gt;&lt;/div&gt;&lt;br&gt;&lt;div&gt;&lt;span style=&quot;color: #000000&quot;&gt;img&amp;nbsp;=&amp;nbsp;cv2.cvtColor(cv2.imread(&lt;/span&gt;&lt;span style=&quot;color: #a31515&quot;&gt;&#39;/content/data/beatles01.jpg&#39;&lt;/span&gt;&lt;span style=&quot;color: #000000&quot;&gt;),&amp;nbsp;cv2.COLOR_BGR2RGB)&lt;/span&gt;&lt;/div&gt;&lt;div&gt;&lt;span style=&quot;color: #000000&quot;&gt;imgs=&amp;nbsp;img[np.newaxis,&amp;nbsp;...]&lt;/span&gt;&lt;/div&gt;&lt;br&gt;&lt;div&gt;&lt;span style=&quot;color: #000000&quot;&gt;start_time&amp;nbsp;=&amp;nbsp;time.time()&lt;/span&gt;&lt;/div&gt;&lt;div&gt;&lt;span style=&quot;color: #000000&quot;&gt;boxes,&amp;nbsp;scores,&amp;nbsp;classes,&amp;nbsp;valid_len&amp;nbsp;=&amp;nbsp;export_model.f(imgs)&lt;/span&gt;&lt;/div&gt;&lt;br&gt;&lt;div&gt;&lt;span style=&quot;color: #795e26&quot;&gt;print&lt;/span&gt;&lt;span style=&quot;color: #000000&quot;&gt;(&lt;/span&gt;&lt;span style=&quot;color: #a31515&quot;&gt;&#39;elapsed&amp;nbsp;time:&#39;&lt;/span&gt;&lt;span style=&quot;color: #000000&quot;&gt;,&amp;nbsp;time.time()&amp;nbsp;-&amp;nbsp;start_time)&lt;/span&gt;&lt;/div&gt;&lt;/div&gt;" style="text;whiteSpace=wrap;html=1;" vertex="1" parent="1">
          <mxGeometry x="3810" y="12190" width="550" height="220" as="geometry" />
        </mxCell>
        <mxCell id="ZZrCYWezUP8C2Mr_J5jb-46" value="&lt;span style=&quot;color: rgb(33, 33, 33); font-family: monospace; font-size: 14px; font-style: normal; font-weight: 400; letter-spacing: normal; text-indent: 0px; text-transform: none; word-spacing: 0px; background-color: rgb(255, 255, 255); display: inline; float: none;&quot;&gt;elapsed time: 0.021811485290527344&lt;/span&gt;" style="text;whiteSpace=wrap;html=1;" vertex="1" parent="1">
          <mxGeometry x="3855" y="12440" width="270" height="30" as="geometry" />
        </mxCell>
        <mxCell id="ZZrCYWezUP8C2Mr_J5jb-47" value="&lt;div style=&quot;color: rgb(0, 0, 0); background-color: rgb(255, 255, 254); font-family: monospace, consolas, &amp;quot;courier new&amp;quot;, monospace; font-weight: normal; font-size: 14px; line-height: 19px;&quot;&gt;&lt;div&gt;&lt;span style=&quot;color: #0000ff&quot;&gt;def&lt;/span&gt;&lt;span style=&quot;color: #000000&quot;&gt;&amp;nbsp;&lt;/span&gt;&lt;span style=&quot;color: #795e26&quot;&gt;get_detected_img&lt;/span&gt;&lt;span style=&quot;color: #000000&quot;&gt;(&lt;/span&gt;&lt;span style=&quot;color: #001080&quot;&gt;export_model&lt;/span&gt;&lt;span style=&quot;color: #000000&quot;&gt;,&amp;nbsp;&lt;/span&gt;&lt;span style=&quot;color: #001080&quot;&gt;img_array&lt;/span&gt;&lt;span style=&quot;color: #000000&quot;&gt;,&amp;nbsp;&lt;/span&gt;&lt;span style=&quot;color: #001080&quot;&gt;is_print&lt;/span&gt;&lt;span style=&quot;color: #000000&quot;&gt;=&lt;/span&gt;&lt;span style=&quot;color: #0000ff&quot;&gt;True&lt;/span&gt;&lt;span style=&quot;color: #000000&quot;&gt;):&amp;nbsp;&amp;nbsp;&amp;nbsp;&lt;/span&gt;&lt;/div&gt;&lt;div&gt;&lt;span style=&quot;color: #000000&quot;&gt;&amp;nbsp;&amp;nbsp;&lt;/span&gt;&lt;span style=&quot;color: #008000&quot;&gt;#&amp;nbsp;automl&amp;nbsp;efficent은&amp;nbsp;반환&amp;nbsp;bbox&amp;nbsp;좌표값이&amp;nbsp;원본&amp;nbsp;이미지&amp;nbsp;좌표값으로&amp;nbsp;되어&amp;nbsp;있으므로&amp;nbsp;별도의&amp;nbsp;scaling작업&amp;nbsp;필요&amp;nbsp;없음.&amp;nbsp;&lt;/span&gt;&lt;/div&gt;&lt;div&gt;&lt;span style=&quot;color: #000000&quot;&gt;&amp;nbsp;&amp;nbsp;&lt;/span&gt;&lt;span style=&quot;color: #a31515&quot;&gt;&#39;&#39;&#39;&lt;/span&gt;&lt;/div&gt;&lt;div&gt;&lt;span style=&quot;color: #a31515&quot;&gt;&amp;nbsp;&amp;nbsp;height&amp;nbsp;=&amp;nbsp;img_array.shape[0]&lt;/span&gt;&lt;/div&gt;&lt;div&gt;&lt;span style=&quot;color: #a31515&quot;&gt;&amp;nbsp;&amp;nbsp;width&amp;nbsp;=&amp;nbsp;img_array.shape[1]&lt;/span&gt;&lt;/div&gt;&lt;div&gt;&lt;span style=&quot;color: #a31515&quot;&gt;&amp;nbsp;&amp;nbsp;&#39;&#39;&#39;&lt;/span&gt;&lt;/div&gt;&lt;div&gt;&lt;span style=&quot;color: #000000&quot;&gt;&amp;nbsp;&amp;nbsp;&lt;/span&gt;&lt;span style=&quot;color: #008000&quot;&gt;#&amp;nbsp;cv2의&amp;nbsp;rectangle()은&amp;nbsp;인자로&amp;nbsp;들어온&amp;nbsp;이미지&amp;nbsp;배열에&amp;nbsp;직접&amp;nbsp;사각형을&amp;nbsp;업데이트&amp;nbsp;하므로&amp;nbsp;그림&amp;nbsp;표현을&amp;nbsp;위한&amp;nbsp;별도의&amp;nbsp;이미지&amp;nbsp;배열&amp;nbsp;생성.&amp;nbsp;&lt;/span&gt;&lt;/div&gt;&lt;div&gt;&lt;span style=&quot;color: #000000&quot;&gt;&amp;nbsp;&amp;nbsp;draw_img&amp;nbsp;=&amp;nbsp;img_array.copy()&lt;/span&gt;&lt;/div&gt;&lt;br&gt;&lt;div&gt;&lt;span style=&quot;color: #000000&quot;&gt;&amp;nbsp;&amp;nbsp;&lt;/span&gt;&lt;span style=&quot;color: #008000&quot;&gt;#&amp;nbsp;bounding&amp;nbsp;box의&amp;nbsp;테두리와&amp;nbsp;caption&amp;nbsp;글자색&amp;nbsp;지정&lt;/span&gt;&lt;/div&gt;&lt;div&gt;&lt;span style=&quot;color: #000000&quot;&gt;&amp;nbsp;&amp;nbsp;green_color=(&lt;/span&gt;&lt;span style=&quot;color: #09885a&quot;&gt;0&lt;/span&gt;&lt;span style=&quot;color: #000000&quot;&gt;,&amp;nbsp;&lt;/span&gt;&lt;span style=&quot;color: #09885a&quot;&gt;255&lt;/span&gt;&lt;span style=&quot;color: #000000&quot;&gt;,&amp;nbsp;&lt;/span&gt;&lt;span style=&quot;color: #09885a&quot;&gt;0&lt;/span&gt;&lt;span style=&quot;color: #000000&quot;&gt;)&lt;/span&gt;&lt;/div&gt;&lt;div&gt;&lt;span style=&quot;color: #000000&quot;&gt;&amp;nbsp;&amp;nbsp;red_color=(&lt;/span&gt;&lt;span style=&quot;color: #09885a&quot;&gt;0&lt;/span&gt;&lt;span style=&quot;color: #000000&quot;&gt;,&amp;nbsp;&lt;/span&gt;&lt;span style=&quot;color: #09885a&quot;&gt;0&lt;/span&gt;&lt;span style=&quot;color: #000000&quot;&gt;,&amp;nbsp;&lt;/span&gt;&lt;span style=&quot;color: #09885a&quot;&gt;255&lt;/span&gt;&lt;span style=&quot;color: #000000&quot;&gt;)&lt;/span&gt;&lt;/div&gt;&lt;br&gt;&lt;div&gt;&lt;span style=&quot;color: #000000&quot;&gt;&amp;nbsp;&amp;nbsp;&lt;/span&gt;&lt;span style=&quot;color: #008000&quot;&gt;#&amp;nbsp;cv2로&amp;nbsp;만들어진&amp;nbsp;numpy&amp;nbsp;image&amp;nbsp;array를&amp;nbsp;tensor로&amp;nbsp;변환&lt;/span&gt;&lt;/div&gt;&lt;div&gt;&lt;span style=&quot;color: #000000&quot;&gt;&amp;nbsp;&amp;nbsp;img_tensor&amp;nbsp;=&amp;nbsp;tf.convert_to_tensor(img_array,&amp;nbsp;dtype=tf.uint8)[tf.newaxis,&amp;nbsp;...]&lt;/span&gt;&lt;/div&gt;&lt;div&gt;&lt;span style=&quot;color: #000000&quot;&gt;&amp;nbsp;&amp;nbsp;&lt;/span&gt;&lt;span style=&quot;color: #008000&quot;&gt;#img_tensor&amp;nbsp;=&amp;nbsp;tf.convert_to_tensor(img_array,&amp;nbsp;dtype=tf.float32)[tf.newaxis,&amp;nbsp;...]&lt;/span&gt;&lt;/div&gt;&lt;br&gt;&lt;div&gt;&lt;span style=&quot;color: #000000&quot;&gt;&amp;nbsp;&amp;nbsp;&lt;/span&gt;&lt;span style=&quot;color: #008000&quot;&gt;#&amp;nbsp;efficientdet&amp;nbsp;모델을&amp;nbsp;다운로드&amp;nbsp;한&amp;nbsp;뒤&amp;nbsp;inference&amp;nbsp;수행.&amp;nbsp;&lt;/span&gt;&lt;/div&gt;&lt;div&gt;&lt;span style=&quot;color: #000000&quot;&gt;&amp;nbsp;&amp;nbsp;start_time&amp;nbsp;=&amp;nbsp;time.time()&lt;/span&gt;&lt;/div&gt;&lt;div&gt;&lt;span style=&quot;color: #000000&quot;&gt;&amp;nbsp;&amp;nbsp;&lt;/span&gt;&lt;span style=&quot;color: #008000&quot;&gt;#&amp;nbsp;automl&amp;nbsp;efficientdet&amp;nbsp;모델은&amp;nbsp;boxes,&amp;nbsp;score,&amp;nbsp;classes,&amp;nbsp;num_detections를&amp;nbsp;각각&amp;nbsp;Tensor로&amp;nbsp;반환.&amp;nbsp;&lt;/span&gt;&lt;/div&gt;&lt;div&gt;&lt;span style=&quot;color: #000000&quot;&gt;&amp;nbsp;&amp;nbsp;boxes,&amp;nbsp;scores,&amp;nbsp;classes,&amp;nbsp;valid_len&amp;nbsp;=&amp;nbsp;export_model.f(img_tensor)&lt;/span&gt;&lt;/div&gt;&lt;div&gt;&lt;span style=&quot;color: #000000&quot;&gt;&amp;nbsp;&amp;nbsp;&lt;/span&gt;&lt;span style=&quot;color: #008000&quot;&gt;#&amp;nbsp;Tensor값을&amp;nbsp;시각화를&amp;nbsp;위해&amp;nbsp;numpy&amp;nbsp;로&amp;nbsp;변환.&amp;nbsp;&lt;/span&gt;&lt;/div&gt;&lt;div&gt;&lt;span style=&quot;color: #000000&quot;&gt;&amp;nbsp;&amp;nbsp;boxes&amp;nbsp;=&amp;nbsp;boxes.numpy()&lt;/span&gt;&lt;/div&gt;&lt;div&gt;&lt;span style=&quot;color: #000000&quot;&gt;&amp;nbsp;&amp;nbsp;scores&amp;nbsp;=&amp;nbsp;scores.numpy()&lt;/span&gt;&lt;/div&gt;&lt;div&gt;&lt;span style=&quot;color: #000000&quot;&gt;&amp;nbsp;&amp;nbsp;classes&amp;nbsp;=&amp;nbsp;classes.numpy()&lt;/span&gt;&lt;/div&gt;&lt;div&gt;&lt;span style=&quot;color: #000000&quot;&gt;&amp;nbsp;&amp;nbsp;valid_len&amp;nbsp;=&amp;nbsp;valid_len.numpy()&lt;/span&gt;&lt;/div&gt;&lt;div&gt;&lt;span style=&quot;color: #000000&quot;&gt;&amp;nbsp;&amp;nbsp;&lt;/span&gt;&lt;/div&gt;&lt;div&gt;&lt;span style=&quot;color: #000000&quot;&gt;&amp;nbsp;&amp;nbsp;&lt;/span&gt;&lt;span style=&quot;color: #008000&quot;&gt;#&amp;nbsp;detected&amp;nbsp;된&amp;nbsp;object들을&amp;nbsp;iteration&amp;nbsp;하면서&amp;nbsp;정보&amp;nbsp;추출.&amp;nbsp;detect된&amp;nbsp;object의&amp;nbsp;갯수는&amp;nbsp;100개&lt;/span&gt;&lt;/div&gt;&lt;div&gt;&lt;span style=&quot;color: #000000&quot;&gt;&amp;nbsp;&amp;nbsp;&lt;/span&gt;&lt;span style=&quot;color: #af00db&quot;&gt;for&lt;/span&gt;&lt;span style=&quot;color: #000000&quot;&gt;&amp;nbsp;i&amp;nbsp;&lt;/span&gt;&lt;span style=&quot;color: #0000ff&quot;&gt;in&lt;/span&gt;&lt;span style=&quot;color: #000000&quot;&gt;&amp;nbsp;&lt;/span&gt;&lt;span style=&quot;color: #795e26&quot;&gt;range&lt;/span&gt;&lt;span style=&quot;color: #000000&quot;&gt;(valid_len[&lt;/span&gt;&lt;span style=&quot;color: #09885a&quot;&gt;0&lt;/span&gt;&lt;span style=&quot;color: #000000&quot;&gt;]):&lt;/span&gt;&lt;/div&gt;&lt;div&gt;&lt;span style=&quot;color: #000000&quot;&gt;&amp;nbsp;&amp;nbsp;&amp;nbsp;&amp;nbsp;&lt;/span&gt;&lt;span style=&quot;color: #008000&quot;&gt;#&amp;nbsp;detection&amp;nbsp;score를&amp;nbsp;iteration시&amp;nbsp;마다&amp;nbsp;높은&amp;nbsp;순으로&amp;nbsp;추출하고&amp;nbsp;SCORE_THRESHOLD보다&amp;nbsp;낮으면&amp;nbsp;loop&amp;nbsp;중단.&amp;nbsp;&lt;/span&gt;&lt;/div&gt;&lt;div&gt;&lt;span style=&quot;color: #000000&quot;&gt;&amp;nbsp;&amp;nbsp;&amp;nbsp;&amp;nbsp;score&amp;nbsp;=&amp;nbsp;scores[&lt;/span&gt;&lt;span style=&quot;color: #09885a&quot;&gt;0&lt;/span&gt;&lt;span style=&quot;color: #000000&quot;&gt;,&amp;nbsp;i]&lt;/span&gt;&lt;/div&gt;&lt;div&gt;&lt;span style=&quot;color: #000000&quot;&gt;&amp;nbsp;&amp;nbsp;&amp;nbsp;&amp;nbsp;&lt;/span&gt;&lt;/div&gt;&lt;div&gt;&lt;span style=&quot;color: #000000&quot;&gt;&amp;nbsp;&amp;nbsp;&amp;nbsp;&amp;nbsp;&lt;/span&gt;&lt;span style=&quot;color: #008000&quot;&gt;#&amp;nbsp;detected된&amp;nbsp;object들은&amp;nbsp;scale된&amp;nbsp;기준으로&amp;nbsp;예측되었으므로&amp;nbsp;다시&amp;nbsp;원본&amp;nbsp;이미지&amp;nbsp;비율로&amp;nbsp;계산&lt;/span&gt;&lt;/div&gt;&lt;div&gt;&lt;span style=&quot;color: #000000&quot;&gt;&amp;nbsp;&amp;nbsp;&amp;nbsp;&amp;nbsp;box&amp;nbsp;=&amp;nbsp;boxes[&lt;/span&gt;&lt;span style=&quot;color: #09885a&quot;&gt;0&lt;/span&gt;&lt;span style=&quot;color: #000000&quot;&gt;,&amp;nbsp;i]&lt;/span&gt;&lt;/div&gt;&lt;br&gt;&lt;div&gt;&lt;span style=&quot;color: #000000&quot;&gt;&amp;nbsp;&amp;nbsp;&amp;nbsp;&amp;nbsp;&lt;/span&gt;&lt;span style=&quot;color: #a31515&quot;&gt;&#39;&#39;&#39;&amp;nbsp;****&amp;nbsp;주의&amp;nbsp;******&lt;/span&gt;&lt;/div&gt;&lt;div&gt;&lt;span style=&quot;color: #a31515&quot;&gt;&amp;nbsp;&amp;nbsp;&amp;nbsp;&amp;nbsp;box는&amp;nbsp;ymin,&amp;nbsp;xmin,&amp;nbsp;ymax,&amp;nbsp;xmax&amp;nbsp;순서로&amp;nbsp;되어&amp;nbsp;있음.&amp;nbsp;또한&amp;nbsp;원본&amp;nbsp;좌표값으로&amp;nbsp;되어&amp;nbsp;있음.&amp;nbsp;&#39;&#39;&#39;&lt;/span&gt;&lt;/div&gt;&lt;div&gt;&lt;span style=&quot;color: #000000&quot;&gt;&amp;nbsp;&amp;nbsp;&amp;nbsp;&amp;nbsp;left&amp;nbsp;=&amp;nbsp;box[&lt;/span&gt;&lt;span style=&quot;color: #09885a&quot;&gt;1&lt;/span&gt;&lt;span style=&quot;color: #000000&quot;&gt;]&lt;/span&gt;&lt;/div&gt;&lt;div&gt;&lt;span style=&quot;color: #000000&quot;&gt;&amp;nbsp;&amp;nbsp;&amp;nbsp;&amp;nbsp;top&amp;nbsp;=&amp;nbsp;box[&lt;/span&gt;&lt;span style=&quot;color: #09885a&quot;&gt;0&lt;/span&gt;&lt;span style=&quot;color: #000000&quot;&gt;]&amp;nbsp;&lt;/span&gt;&lt;/div&gt;&lt;div&gt;&lt;span style=&quot;color: #000000&quot;&gt;&amp;nbsp;&amp;nbsp;&amp;nbsp;&amp;nbsp;right&amp;nbsp;=&amp;nbsp;box[&lt;/span&gt;&lt;span style=&quot;color: #09885a&quot;&gt;3&lt;/span&gt;&lt;span style=&quot;color: #000000&quot;&gt;]&amp;nbsp;&lt;/span&gt;&lt;/div&gt;&lt;div&gt;&lt;span style=&quot;color: #000000&quot;&gt;&amp;nbsp;&amp;nbsp;&amp;nbsp;&amp;nbsp;bottom&amp;nbsp;=&amp;nbsp;box[&lt;/span&gt;&lt;span style=&quot;color: #09885a&quot;&gt;2&lt;/span&gt;&lt;span style=&quot;color: #000000&quot;&gt;]&amp;nbsp;&lt;/span&gt;&lt;/div&gt;&lt;br&gt;&lt;div&gt;&lt;span style=&quot;color: #000000&quot;&gt;&amp;nbsp;&amp;nbsp;&amp;nbsp;&amp;nbsp;&lt;/span&gt;&lt;span style=&quot;color: #008000&quot;&gt;#&amp;nbsp;class&amp;nbsp;id&amp;nbsp;추출하고&amp;nbsp;class&amp;nbsp;명으로&amp;nbsp;매핑&lt;/span&gt;&lt;/div&gt;&lt;div&gt;&lt;span style=&quot;color: #000000&quot;&gt;&amp;nbsp;&amp;nbsp;&amp;nbsp;&amp;nbsp;class_id&amp;nbsp;=&amp;nbsp;classes[&lt;/span&gt;&lt;span style=&quot;color: #09885a&quot;&gt;0&lt;/span&gt;&lt;span style=&quot;color: #000000&quot;&gt;,&amp;nbsp;i]&lt;/span&gt;&lt;/div&gt;&lt;div&gt;&lt;span style=&quot;color: #000000&quot;&gt;&amp;nbsp;&amp;nbsp;&amp;nbsp;&amp;nbsp;caption&amp;nbsp;=&amp;nbsp;&lt;/span&gt;&lt;span style=&quot;color: #a31515&quot;&gt;&quot;{}:&amp;nbsp;{:.4f}&quot;&lt;/span&gt;&lt;span style=&quot;color: #000000&quot;&gt;.&lt;/span&gt;&lt;span style=&quot;color: #795e26&quot;&gt;format&lt;/span&gt;&lt;span style=&quot;color: #000000&quot;&gt;(labels_to_names[class_id],&amp;nbsp;score)&lt;/span&gt;&lt;/div&gt;&lt;div&gt;&lt;span style=&quot;color: #000000&quot;&gt;&amp;nbsp;&amp;nbsp;&amp;nbsp;&amp;nbsp;&lt;/span&gt;&lt;span style=&quot;color: #795e26&quot;&gt;print&lt;/span&gt;&lt;span style=&quot;color: #000000&quot;&gt;(caption)&lt;/span&gt;&lt;/div&gt;&lt;div&gt;&lt;span style=&quot;color: #000000&quot;&gt;&amp;nbsp;&amp;nbsp;&amp;nbsp;&amp;nbsp;&lt;/span&gt;&lt;span style=&quot;color: #008000&quot;&gt;#cv2.rectangle()은&amp;nbsp;인자로&amp;nbsp;들어온&amp;nbsp;draw_img에&amp;nbsp;사각형을&amp;nbsp;그림.&amp;nbsp;위치&amp;nbsp;인자는&amp;nbsp;반드시&amp;nbsp;정수형.&lt;/span&gt;&lt;/div&gt;&lt;div&gt;&lt;span style=&quot;color: #000000&quot;&gt;&amp;nbsp;&amp;nbsp;&amp;nbsp;&amp;nbsp;cv2.rectangle(draw_img,&amp;nbsp;(&lt;/span&gt;&lt;span style=&quot;color: #267f99&quot;&gt;int&lt;/span&gt;&lt;span style=&quot;color: #000000&quot;&gt;(left),&amp;nbsp;&lt;/span&gt;&lt;span style=&quot;color: #267f99&quot;&gt;int&lt;/span&gt;&lt;span style=&quot;color: #000000&quot;&gt;(top)),&amp;nbsp;(&lt;/span&gt;&lt;span style=&quot;color: #267f99&quot;&gt;int&lt;/span&gt;&lt;span style=&quot;color: #000000&quot;&gt;(right),&amp;nbsp;&lt;/span&gt;&lt;span style=&quot;color: #267f99&quot;&gt;int&lt;/span&gt;&lt;span style=&quot;color: #000000&quot;&gt;(bottom)),&amp;nbsp;color=green_color,&amp;nbsp;thickness=&lt;/span&gt;&lt;span style=&quot;color: #09885a&quot;&gt;2&lt;/span&gt;&lt;span style=&quot;color: #000000&quot;&gt;)&lt;/span&gt;&lt;/div&gt;&lt;div&gt;&lt;span style=&quot;color: #000000&quot;&gt;&amp;nbsp;&amp;nbsp;&amp;nbsp;&amp;nbsp;cv2.putText(draw_img,&amp;nbsp;caption,&amp;nbsp;(&lt;/span&gt;&lt;span style=&quot;color: #267f99&quot;&gt;int&lt;/span&gt;&lt;span style=&quot;color: #000000&quot;&gt;(left),&amp;nbsp;&lt;/span&gt;&lt;span style=&quot;color: #267f99&quot;&gt;int&lt;/span&gt;&lt;span style=&quot;color: #000000&quot;&gt;(top&amp;nbsp;-&amp;nbsp;&lt;/span&gt;&lt;span style=&quot;color: #09885a&quot;&gt;5&lt;/span&gt;&lt;span style=&quot;color: #000000&quot;&gt;)),&amp;nbsp;cv2.FONT_HERSHEY_SIMPLEX,&amp;nbsp;&lt;/span&gt;&lt;span style=&quot;color: #09885a&quot;&gt;0.4&lt;/span&gt;&lt;span style=&quot;color: #000000&quot;&gt;,&amp;nbsp;red_color,&amp;nbsp;&lt;/span&gt;&lt;span style=&quot;color: #09885a&quot;&gt;1&lt;/span&gt;&lt;span style=&quot;color: #000000&quot;&gt;)&lt;/span&gt;&lt;/div&gt;&lt;br&gt;&lt;div&gt;&lt;span style=&quot;color: #000000&quot;&gt;&amp;nbsp;&amp;nbsp;&lt;/span&gt;&lt;span style=&quot;color: #af00db&quot;&gt;if&lt;/span&gt;&lt;span style=&quot;color: #000000&quot;&gt;&amp;nbsp;is_print:&lt;/span&gt;&lt;/div&gt;&lt;div&gt;&lt;span style=&quot;color: #000000&quot;&gt;&amp;nbsp;&amp;nbsp;&amp;nbsp;&amp;nbsp;&lt;/span&gt;&lt;span style=&quot;color: #795e26&quot;&gt;print&lt;/span&gt;&lt;span style=&quot;color: #000000&quot;&gt;(&lt;/span&gt;&lt;span style=&quot;color: #a31515&quot;&gt;&#39;Detection&amp;nbsp;수행시간:&#39;&lt;/span&gt;&lt;span style=&quot;color: #000000&quot;&gt;,&lt;/span&gt;&lt;span style=&quot;color: #795e26&quot;&gt;round&lt;/span&gt;&lt;span style=&quot;color: #000000&quot;&gt;(time.time()&amp;nbsp;-&amp;nbsp;start_time,&amp;nbsp;&lt;/span&gt;&lt;span style=&quot;color: #09885a&quot;&gt;2&lt;/span&gt;&lt;span style=&quot;color: #000000&quot;&gt;),&lt;/span&gt;&lt;span style=&quot;color: #a31515&quot;&gt;&quot;초&quot;&lt;/span&gt;&lt;span style=&quot;color: #000000&quot;&gt;)&lt;/span&gt;&lt;/div&gt;&lt;br&gt;&lt;div&gt;&lt;span style=&quot;color: #000000&quot;&gt;&amp;nbsp;&amp;nbsp;&lt;/span&gt;&lt;span style=&quot;color: #af00db&quot;&gt;return&lt;/span&gt;&lt;span style=&quot;color: #000000&quot;&gt;&amp;nbsp;draw_img&lt;/span&gt;&lt;/div&gt;&lt;/div&gt;" style="text;whiteSpace=wrap;html=1;" vertex="1" parent="1">
          <mxGeometry x="3815" y="12520" width="1045" height="1050" as="geometry" />
        </mxCell>
        <mxCell id="ZZrCYWezUP8C2Mr_J5jb-48" value="&lt;div style=&quot;color: rgb(0, 0, 0); background-color: rgb(255, 255, 254); font-family: monospace, consolas, &amp;quot;courier new&amp;quot;, monospace; font-weight: normal; font-size: 14px; line-height: 19px;&quot;&gt;&lt;div&gt;&lt;span style=&quot;color: #af00db&quot;&gt;import&lt;/span&gt;&lt;span style=&quot;color: #000000&quot;&gt;&amp;nbsp;cv2&lt;/span&gt;&lt;/div&gt;&lt;div&gt;&lt;span style=&quot;color: #000000&quot;&gt;img_array&amp;nbsp;=&amp;nbsp;cv2.cvtColor(cv2.imread(&lt;/span&gt;&lt;span style=&quot;color: #a31515&quot;&gt;&#39;/content/data/beatles01.jpg&#39;&lt;/span&gt;&lt;span style=&quot;color: #000000&quot;&gt;),&amp;nbsp;cv2.COLOR_BGR2RGB)&lt;/span&gt;&lt;/div&gt;&lt;br&gt;&lt;div&gt;&lt;span style=&quot;color: #000000&quot;&gt;draw_img&amp;nbsp;=&amp;nbsp;get_detected_img(export_model,&amp;nbsp;img_array,&amp;nbsp;is_print=&lt;/span&gt;&lt;span style=&quot;color: #0000ff&quot;&gt;True&lt;/span&gt;&lt;span style=&quot;color: #000000&quot;&gt;)&lt;/span&gt;&lt;/div&gt;&lt;div&gt;&lt;span style=&quot;color: #000000&quot;&gt;plt.figure(figsize=(&lt;/span&gt;&lt;span style=&quot;color: #09885a&quot;&gt;16&lt;/span&gt;&lt;span style=&quot;color: #000000&quot;&gt;,&amp;nbsp;&lt;/span&gt;&lt;span style=&quot;color: #09885a&quot;&gt;16&lt;/span&gt;&lt;span style=&quot;color: #000000&quot;&gt;))&lt;/span&gt;&lt;/div&gt;&lt;div&gt;&lt;span style=&quot;color: #000000&quot;&gt;plt.imshow(draw_img)&lt;/span&gt;&lt;/div&gt;&lt;/div&gt;" style="text;whiteSpace=wrap;html=1;" vertex="1" parent="1">
          <mxGeometry x="3815" y="13590" width="550" height="130" as="geometry" />
        </mxCell>
        <mxCell id="ZZrCYWezUP8C2Mr_J5jb-49" value="&lt;span style=&quot;color: rgb(33, 33, 33); font-family: monospace; font-size: 14px; font-style: normal; font-weight: 400; letter-spacing: normal; text-indent: 0px; text-transform: none; word-spacing: 0px; background-color: rgb(255, 255, 255); display: inline; float: none;&quot;&gt;person: 0.9398&#xa;person: 0.9376&#xa;person: 0.8987&#xa;person: 0.8970&#xa;car: 0.7241&#xa;car: 0.5073&#xa;Detection 수행시간: 0.02 초&lt;/span&gt;" style="text;whiteSpace=wrap;html=1;" vertex="1" parent="1">
          <mxGeometry x="3855" y="13760" width="220" height="120" as="geometry" />
        </mxCell>
        <mxCell id="ZZrCYWezUP8C2Mr_J5jb-50" value="" style="shape=image;verticalLabelPosition=bottom;labelBackgroundColor=#ffffff;verticalAlign=top;aspect=fixed;imageAspect=0;image=data:image/png,iVBORw0KGgoAAAANSUhEUgAAAGYAAABnCAYAAADygzfHAAAAAXNSR0IArs4c6QAAIABJREFUeF5kvXeQrOd13vn7OufcPT05p5tzviABEAAJQgCDRFEryaYlW7bLq3J5teVyOdR6wx/etau0WskWtbRE0hYpL0mRFJhBEom4F+Hi5jw5z/TM9HRP5/xtndMzECTfqqmZO5jb09973pOe5zkHhtfrNQ3DQD72/8jXFotFP1qt1n//fcOg0WzQbDawWGxAS792uBzE4jFKpRKlSomnnnqaB48fsLSxhC8aZHhiGKfLydSjKdwODx6nm0w6w/bWJla7haalSSwZItQRIpSI4PF58Af8lMplFhcWCbgDBAMh7BYny9PL5NN5KoUalVwNS9NGtVSlUa/re262mgSCAXr7eslkM6yuLOv7k9ezOKzkijmcbidWq41GvYHL4cLj8TIxMUl6d4dqvUq5VqFUrTB56ACnLp5lYLAHl81gdXkRi9XBo6kFdkvw61/4B/QPDtHCxDBaGEYd05SPJmtra6ysLxNLdFCqVFhaWsNmc+P3x0h29hGPd2K32rCYBpjto9bX8fl8e39FjbNvlP3P8pCmaX7wYbVasVqsNOo1TH0jFkxaehhiW3n4ZrNJw2zR19fLdjrNbrGAaTMIxPwEIj4a1LG6LHR1deJ1e1hZXmZ+apHyboVIKEzfYC9LqSUsLgvhaAivz6uvGYvF1fAOh4vs9i5vv/U2tWKNkDuCre4gtbKF0+nQ92Kx2TBNsNutlEoFLFZ5n+Dz+ag36lRrZaw2u76uYbGCacHv93P63DkOHprg1Tdf4+79u4QiYY6cOkG8u5NgxIfN1sRpszA+NsnX/+KvePhond/9vX/DE08+icMhl7lFkxpyzeXcLBZoNmog3281aTQaNFoWWk0rpsWB3eHGYXNgkTdnyr8BsZHh9/tNeQH5Ix6y7zl/24v2Pcdms2ExDOq1PcNgEX9pG44WYjjDYtBoNZF3J9+32Z34QiFsbguhZJBcPUO0N8SxM0fw+33kd/K8+eO3mbu1wHDnCF/4zb+LPeDg9auvcv32dXbzWYLREP6gH6/fg8VmweF06IMcnDzE6vwa7716jXqhyeFDx8hkMmxtb1IslcAwsdtteD0+coUcbreHyclJioUiM9PTjI1NkNnZxeawk88XOHvhHE985BIv//B73Lpzk0Ihj8XpxB0KEvB7uHD+BNFwAKfTQ7ls4Vvf/ClPPvdpPvPLn6N/IInP76RlmDRNg1qtjs1hxWqFltlQL7JYrDQxMA0bJha9EPIhhpQjaxsCjEAgoFZpW9einz8c0va//2FvkpepS8hQ87a9ybCghtCIKF9jEAoFqdSq6sLheJTjp4/zePkxvriLC8+eJdIdIpNNk9nc5Z1X3ic9s0vADPJLz7/E7/yT3+H7P/kr/uTPvsh2Ns2JU8fpHexRI1UbFSqNKhMHxvF6vDy89ZhbV25TylRJJjvZzeUo18pUKlVMw8ThsGO32kl2dTI8PMLHn3uO+blFbly7waVLl/nFL97i0aMp9Z7nPvEsdped7G6GmdkpFhcWcPm8VOoNKrldEokwLqedUDDMhUvP8oOf/AJfuItERxfDwwOcOXuC48eP4PD5aMlhWKFptkO9xWpgSnowWm23EANpCJNzb3uLHqIYRjxG/7oXxvbD1v739j9/2JtotY3xN/KPRazS/p68lsNpo6MzSS6fJ18u4A66SfQkyOSzNK01Jk+OMXp0lGA0QCFb5P03brE7V6S23WRiZJLf/We/y8b2Gn/4R/8PC0vzPPXMk2TyGZaWF8jmdzRPjI6PkM/nWF9KUcnWaFahu7tHb2rDbLK7u0u1VqW3r09zU7VaJhZLEI3GOHjgIFtb2xw+dJRr773P917+HrValXAoSLI7STgcZGbqMemdNMmeLnKFPGajRrNWoVwsYLO7GB49iDfcgWFzs7iyRjAUIhjwcu7sOY6cOo0vFMHpduMP+TBsVqwOm4bYltlSDzE0pIhXGOpFks41Yn3YMB8++P3DlR/6sAfte1Sr2cL6Ye/aLxzUMFIQWLHYDLxeL+VqBUfIQd94D7ulHEsLS4QiQY6fPUZHb5xALEi1WmdxapXpG/PsrhQY6h3h7/+D36JcKfJH//EP2drapLe/h1Qqpd+T39GiQUdXUg+/mC9Bw4rT4WFkeISDhw7iDwa5evUqa+vrnDl7Vo2wtLiE0+WiXCkxPj5OrdEgFo2xu5Pj/v2HlCX00WJ4ZBi7BbKZHVKpDVxeJxa3jac+9lHWl1aYevgYm9WGJyDh+BzJnl4ezcxSqVbxuDzMTs8TT3TR3TuAPxRieHKCwdERegYGcHvc7YBkspdXxFUsNI0WrT0v+huhbN8w+4bYzzXqGRKqxJCS6CV07VVqanXD0g5jJlhtVtxeF5VqjXK1rL7p8DjpHe9i7OQo6Uyat3/xDtFQhImD44Q6wqTSG6yub1DIVGnkoZFr4Xf5ScRipNNbpHd2aFQbOOySqBu0GnUcDgfhSIjnnn+WtfVV3r92g3yxhMftw+P2cvjoEQYHB7j69lWyuV1Onz3D/fv3NXw1Gk1cLpfmqXyhgN1mxWax4/X6NJR7vW5OnTnN9WvXMFotfF4P0/OPcUc9nDh7CqNl6OWSZ+/s62ZpY50Dh48yMn5Ab/zQwDDf+No3uPKLK7icHp585lk+9vwnsXm89A+NEI/H1S7GnmEkfBniMUa7GtPQJh4TDAY/CGWSuLVc+1slslQThsWiid1stiswiyT4ek3LZavVUPd0Ol0ax3PFPJvbm5oEfX4vI4dH6B3pZmNrTcvHvv4+TKuJw22nXClz//Yjdjay2FseHC03libUqxU9KHFzKSXlQMT6Fn3X4A/5SSSiFMtFtjJpbE4HNqudarlOrVzBYjNp0MC0t4h1xvXibG9l8Tj8+Dx+qrU6O5kdrGYLn8eHwylJu8nQ5Dg+v18rxWIux9jwCEtrC0yeHGe3UiSXK2gZHu2IUGlUmJmbw2Lz8dxzn+LchY9iNxwszM7wtS9/icf3H+ANhnjymY9z9vJHGZs8SMAfxGZzfhDGNJw1UcOotffLZTHMhxP8B5l/vyCwWmi2WjT2csde0YBLHqTZoFKpYFjaucXj9eDyerDYbZTqJar1Bt6Aj0azjrY7thZWt41Yb5RwR5ihkQGKu0U2V7ZYeLDM5lwaS92KWZdKyqBZb6iXGqb8Y4NGra4PJJ7p8Xr12kmSN+0wMDpAOp0mv53DbDaoNSo0jDodgzHOfvQM9VaLa1duYNZs+BxBapU6W6lNrK0WQZ+PRGeSKk36DozS0dOlv/fVn/yMci6P1WJy6onjBOIBtrNZDCt4Qy4cHgcWu5OdnTrbW2VGR47w0oufIRIIsL2xyMN797hz5y75SpVkdx9jkwfoHxihp7sfn9ePKVWYxYLNIhdbw89fF15imP3Ev+8pH+QVi6FeIn8kHsvPaTksJbDNhmGYWpebRotqtYLT48Lr9+KUcNaUxwSsBs1mi3KpqCVvR28Sw93CF/EwPDJIs9HCqEFqIcXMnQW2VrZpVpsYZkvKmXav0RAnl5eyal/QakhPIOV5O8S6/G4mjkyysLBAYTeH2WgQiHiJ9YQ4cv4wwWQAh9vNG69eYXUhhdvi00Ihk0pDo8Xo4CAdXR1kSgX88QjdQ/3ksgWWZheYm5rBboPByT58YSdYW8zMT9M/1M/w2AgtLGync8zNr+DxRnjm2Rc4MH6YoZ5+rKadzfQOa5ub1FsG4UgMLHY6k52ai9qVWAurYaHRVMu0o4R8JYbZ/4t8Qw5cDCOlo+YWi6GHIl6zjwaIcRwOm8Z8u8Ohtb70MoYd4skYE4cm8YZ8rG6uU6lX2Uptk83m1Zsmj0zi8BhkCjvY7Ab1Ro2OSILdzQzZVI61hQ1q+Spm3cBhdWofIO+h0qhpfhBvkHBmszowmwatehOr20qkI0I6myboDzA40MvQWC+eqAtvzE3LbVJrNJmdWWBlfp1itopRtVLZrVAuFOlMJDBsBrulIvHuLgZGhon4wxQLJbbXUoRDAepGjXhXAJfHwmuvv0q11tSiwuP34vDYtQqUPNc0HXR2DHP53Mfo7OjH7pQCqE69CRZpJC127av2imUse5VsU2OZ9YPq+G8YRg5cOmMxQLlcpq6wS1ONIlfTbJnavaq3iDfZLAQCfjK5HZxuO3a3HU/AS2dfkjMXz+AOeVlbW2V+fol8ocx6apO+/l7cARfpnRRujxOb1SCZSJDZ3qGQyfPo3mOahRaWmoNGpUkkHmJwfIhsIcPm1haFQoFmrYnRsGI1BcqQDrpF097QHBHw+zh/4Qw9g12sbC0TTPiwei2sb23h8wZwWFzUSy22lnfY3cqR2d4is5Ohq6eLjq4udnI5rY5OHTvFdmoLak16uvpYXF+mbpTo60vw4P49NjfSdPf0Ua4WOXh8jKGJAVbWV8kUysSiAwwNHmFs5AgdyT6sNjct06reJWcoXq7X3WzoZ4lETUG+9kK2RrBQKKQeI3+x2+0Eg0E1jByAlLoSqrw+H4FgUL+3s7OjhpGmrdao6WGEoiHiyQjRZBRfyEe5XiLcGcbmsLG4ssjAwCCNlsHK2poaPhgMsJPZ0mQurhz0+enp6dH38Nbrb9EsNKmm6yzNLTIwNsQLn3mBXDmjBcXDh49JraZIr+/QlxzkyIEjWJ1W0oVtFlbntJLrH+xT46+nVhUpaFqbWiYfP36CaCgODQsbq9u4rG7NWzdvXNeE7/Z4WFxaplSq0NvZh9PiYHlxmUq5TjTZoRdwoD/J0SOHKBUqvP3OeywuzZHoi3Hy/FG9lDa3k86eYfqHDzA8fIBQoAPTdGAaTolH2n3LZdR+vCUlsuRNiUgar/aazr0Gcz98yWe3u11ni8fUGgIhWNQoPb291Go1lpeX9bPVblWQMRIPMzgywG45S0d3EofTSiq9zlJqUUvnnv4+XD4Pmd0spVKR+YV5Dhw4oH2A9BBSpWR3MhSLRTo6OslsZ6jnahTWCyzOzlMxa4wfn9AqqGFWsdscClzeeu82RtVGd0cXya4koa4gzoCd3VyW6elpllYWCPiCWo1VSjWOHDmiv6NRa/DsM59gcuIAoVCESDDM9OwsP/7Jj1mYn+e1n/6cVtMk6A0Tj8Yp7Ba1hC3Vq9qnCG4XiYS1rN5IrZMv57TI8AR8DB8YpneoF5vHwanz53B6grg8QUKhTkKBLpxWLz63X40gJpC2Q9KGVLXNpgBaey2OlNDS+X8YF9sHL+VH2gCfgSEhzu/Xf1UVg9Xr2Jx2fEEfgVCAWDJKrVnBE/RiWkwq9QorG4t09SSZODgBVpNSvYhhN5iZnqEzmaRWa7C9ncbvDWg4ks/NGhqm1uZWKW7lKRfL5Ct5nH4H7qBLPWOgf4ih/iEe3n7M7XduUyvXSXQmGD8+htVjEIwE1PuW55cpZPOklrfYXNvixJGTahypknbzOaKJBGfPneXZZ5/jzbfe5M++/KeKdMuHlOvNShNaFs1rkk8Nh0VRBJvDjS/kx+W1Ytjr2FxOMrk82VwBj9+DN+KmdyjJwROHcPmChCNJ3O4YLmcYjz3MocmTWsQ47XYtolotU4sZU5ATyed7iNgHWNl+OJPKTHKNeE9V+5R2U9nUJlOrblpmE5fHhdPjxBcM4PY59dAFJpfwJ8YplHYV1hgcGiCSDOP029U4G5sb9A/0KmC4uLiM1bCTXknT3zuM0bQowjz3eJbCdg6bxaoVXrgjRCDipyh5r15noHeQ7fVtZh7M0Ki1FI8KJPy0bC3GDoyqAR7cfcjmUorCVoF6vkEi3smLL/4SDx4+4MbtGzQtJr/9O3+fgeFBvvXd77C4MM/48Bh3b9ykkiuT381jtCwYAslbTaqNgrbqht1FMBYiORCjczBCtCNGajvLjet3KdeqBCMeDh4bJdIZx7BKuBcw04bLEaYnOcTFC88QDSZw2d3aWEqdLMVMw2K24bN2TdYGMfd5FzGGeInkGvlaXFfgcslWFoH7rVbtW5qtOh6vS7GfcCyinarT61ZPKQjEb5o43Q5Ncrl8jlhnhO7hLqpmma2dFE88dRHDaiG9naZWafD+m9cIusMUM2V8Nh9rC2uUS1UNdz09vdhdNi5cusDs7CxXrryt329KT2NaaTQFIGxi2MDutTM6Oay5bWZqjmq2gq1uI+7vYH0tpR5cqZfJlQpYXTb+xb/6VyyuLfGDn/xIvfjcqVPcvXaT3e0s68trVCt1RcbdXie1qgCjJUlP+BJ+LnzsDJMnRynWi+SLFaan5zVshsJ+7dlMuxWny8PaxiaVKvg8UQb7x5kcO87o8GEiwQRepw9DkGUD6m3I7G/2MfteodVBU1zXoR9SlWknappaAIjBNE43q+2KymFFMG0pieMdHQqdS79TrVYxG20D7+Z3sXvs2HxWakaFeGeEyWNjJLojGhoKuwXK6QID8X5+8M0fUU6XsJgOunoHWF1ZV3hHOvmurm5KxTJrq2vqtdJ9J7u7WFldI5fdxWbYsDtt+nsarSpOh0vxM/EWr81HpVyl1CzQtArO1iQUDvPCi5/m7uN7BGMR7Y9MQcyLdVbnFrTAkJtrc7lwu33UCnmKhTx4DOxRO5efv0T/wT7SxbTm1XK5RMAfIuwLcvPGbTL5EsmubtY2NqjWm4SCUXq6hggGOjh+9Cz93SMkIl20Wnv8VrtO+6DJNGKxmCnG2DeOfJYD1d7GYqiB5L/rO9/70zJrGFYDl8epkPZuvog/FKSrq0sZQelvtre3NV4KlCNVoMPnINoZoWWrYPVCJBHQUnOwr59kME6zUKeyVaRVMsllS3i8Ud54/S1q1QazU7Pa07Qa7XAq3izcTKwjztraCvlsQaEQgXkqlPAE3bjcbhrlJq2a9IQ2Wq2mwjNWt0HTbBAORXn+hV/iZ2+9yTOfeIbp6SlefeUVnFLFVpuYdWliBf9z0NM5qJWilNYlS566s0HXaBdDx0dx+K3Eu8NUyzli0QgW0871a3fx+MJEY3EKhRy5YkEb5UK+Qm/3MMlkL0MD45w+fhG3J6z9i8XqlMP66xzT29tr5vP5verA+oFRxBhiQTGMuJp8vY86t1p15RZc2ly5qDXaXbjb5aJarlCv17R0dHidOPwuCpWSMo/9A32USlnFzHbLu0iWHRsbpr+3h2a1Sn47QzIcp1ZocP2dB8zPruKwudjeSLdJpEa7AZaLI9ic0L9SiNiFvBMcz2pic1kJx4NK1ElGrJZqVIpVGpW6hlxfQHiSNo7m8rlwBn2cOX+G3cwOs9MzZLbSOOSA6tJkm/h9QmW7yKUKlHYL1I0KLbuJ3WPTnOaOCp0R5cTpQ2BtMr+8TLXW4ujJE2xup0lvbdGqNalXGlQrTXbSO5y9cImxySMkuwaIxroYGjiA3eZtg2UKB1gwurq6TCmN9w/9wyiA4mJ73L88uARBgdzl1kribxpyEC5cPh/NRoNapay1eaVWpqOng0hvgoYDVlOruJ1uOqIxzFpDD2E7u4PNaSXWGaV/uAe32watKm6rg6gvxs5Skfeu3NRGrpAraoUkHiN/2pfF0JApnz0+l/IzpXoZT8BNJBEhEouwurpKuVTBrJmqF9ha36JWrmH3ONSDO3o76Ort1uZyN7fL8tIi2Z1douEQ5WKVjbUUPV09JGIdLMwssLqwukcMyrtoA7Qta4tis0C8O4I/6qNruJuhyVHmlufZyWbxOrwEPUFmH85SLVU0Tyf7+oh39WDaXIwdPMrJE5dJJgYwGm2g1iqVcCQSURDzw9z+fsksN1MOQUtns9XGqPbyjuQTiyQ4rxer00G1UqEhxYLZNow/HqBjpJeGw6RhNLFLSJO807RSKZbY3tnB6XVqIxjrDOP1C8RSpjMWw6hYmLu1yspcilqlSalQ1d6puRfK2uHWpk1akyYWuwWr066H5At5GZ0YU5jk/RvXqVWq+Nw+Lpy+yK1rt1hbWldU3LBZCIVDxBNxzVfS/6RSm0oFJDpi2vvkC3lthjt7ujQ0pzY2sQgMVGtpxRYNhzUsZss5WtYmvoiX/okBTl44xdzqHHa7hMEe9b6lmUUNO4JoF8pVwh1J4l19jB44yqlTlxnon9C2QX5G0YAPw/77xvmwYTRsqOqk9UFDJP9dQonVLjCMSxh/PTiJN2KARqtO3dok1BPDEfbSP9yH2+VkY3WV9Nqm9izBUJDtTJpyvcj4wRF6+5PUynkSwTAbC5u889ObZLfLWFW4ICCqsH4idmj/bptUi0ID2C3YnXYMu5WeoR7CiRBjk2PceXCbe/fvYnfY8fkCXDhznvWVFNP3p0itbGDWwIEIN5rap+3T5YJYy2tqq2AztCIMJMKUW1WFoFw2F/VCnWqx2qYgAKfbpWBtuVGi2qoSjIcYOjBINB5leHCYzfUthZwEfZ96/IhUOk1n3xDdvcOMTR7nmWdfJBCOKy8kr6ng7L4Y42+HsA/LmdrFQhv5FFcUuY08sNVmoybQf6OOqTEd3CIJslloOUy6hvsJJCN09XXjdNqYn5vm5rWbWrtPHjhAoZwns7ujkP3YyACWVp3cVpqd1Sw3f/GAcr6hfY4kzoYaxsDpcGiVWG9WNcd4vG78QR+m3eDoqWMcPXWErWyKG3duqABicGSQWqtBIhpjbWWdhdklpm5N0cjWceHWmy831WlzaEQQQs7qlIJFPL1BoV6kYW/QNdbHucvnFcK5/d5tFqbmoGUQ9IU4ePCgypweT09Ra1Q110U7g0ofiAcKPub1eoh3xAkGfSwur9FoWHG7Qzz73KfoH5ogEO9QaZcQfX6Pry1f2j/0D9PI+/lFybE9ocZ+RSS3S9xU5D6Cl0nvIuCm3L5gKIDN7aBKQztki8sKdkN7CLvDyurKCrvZLB6fj8HhQULRMIVinma9gt/hYG1hiYVHS2zNZ7GYLqwWuzAwHzCP4i3CtUiTK/SyhFgBMYWTEY7nxNljrG2tUmqW9MaPHRxncKSfYqXE5uamlsHlnQrZlRxrj9dxqt+4tKqzYtNcWGtWKVaLCsyWmmVqljreTj+Xnn6CbDbDnfdvk8/mlLYTX5s8MKm91dziglavXT0ddPYmSHR1sJZKafgSOsRmh0q53IZ2vBEC/jitpgO3L0Zn/yCDI8MMDYyQ7OhqN5h/m9vfh2j2DfZhmKb939rMok2MJmWo0WY0Jd4KRCE5x+K0Kj/j8rnZ3Nkk3hkj2Z2gmM8pvLO4vITd7aSjs4NwNMLk2DD1XJFXf/AK03dnqBcsGFLmNg1VwojAQm6eNGF6K1VY16IuOI7DoobxhNwMTgzQsjVUPGh325g4PE5Hd4fq23KFLK1Gk2qhQSPf4v61RxS3izRzLRyGE4fVjc200hR6QTAsu0HNrNOyNbEG7PSN9CklnclmNXwKwNs0m4yNjmCxiX6tpKCpx+OhTgWXx0s4GmUjlcLqEMmVjfn5Ob1k9WqLZt1KMNiBxebB6Q/Q1TvI0cMnGBs50A5l4hVturiNMu8TZh8Ob/uEmbwZw2jzBuI5VoF4rPIhzZhDY32hWlEszWq37dECGVwBF6FogEDQz8FDB7j78J5S0AK5dHd38ulPvsjDm3d45a9+xNyDeWjYtby0GEJd29rdfr3tlXIITUkSSElbo2U3CCQCHD5zREWC3oCTaDICNkMN5PK72Mmk1ZhSzFQrNVpVg9TyNnMP59heTGPUrRh1C9amXSupekVev82WCtzUtDU0V544exLDIc9qo1jJky1k2UxvfkCBCNU9NztLNBGls7tbVTmCWDtddr2AlXIRlwgyTEMRbovFjdMdwO724XQFeOLS0wwPTWJ0dHSYTqdTIX0tAvdIMlVc7hnsw6GsXVZb2ySalNNys0QnZTPUKE2rQbFaxeF26mt5XW5q9VqbzEqEGR4d5NOfeYnN7DabO1u4/cLkNemMJvjhN19m4dEMpXyV3XRBDeOwu1TDlc3IbW+rPVVVaTZoNtratlhXhGMXTmDxWlldX6WjK0Y4HqbarJBKp+gdbMM6ojcTw3r9PpxON5ubae7fekAlU1HD1ItNWuUWtXwdahKBHdht8hwtirU8waif05fOqKK03KpQbpXYzKZY3VglFouQ7OpQkHdjcxOH20VnZ5dgB1p2C4ouYGgo5NcLK2lA9APFcgPD4sDlDhIMxhkZOURv9wjGyMiIGmZjY+ODklkOX74n8qP9xC+Gk8pL8TQJKSJRklwjdbdIZK2mICC0bIYK3VweD81qDUPQUzGilKeJMKNjQ/z2P/p7uAJuHs4/1ocKBgKszi9z/9odDgwMs7ac4s03r6jQw+3yKT++vrzeLiUtFlwCGdlt5HO7qsg8ee4E3cO9XLl2VdnUweEBzSmqhCnlGZ8cUZ5INAGSDzt7uhkYHWR9a5NCvkDYF8bSsrKTyrA0vUzEG2FrbZuIL8rKwhqp1Q0Ni02qeMIeBg8MaUGQrWTwhr3KfkqJ7fN4aFTrBMJBFYiUK3V8zgClXJVyvqK66ngsgjfg0fw1v7xEvlxmcHCMfKlGKBhX/ub82SdRSEYOX7n7PcxZDCMGENIsHA5r2Nra3FRZqfQvokoUNs5uMXAJzSzxzGZQNZoUmzUcHg+dnZ3kMjkym9skE0ncPje50i69/V08/cLTxLpizK3PU2lVOXHsOA9v3mPl8SJDnb2qkHz/5m2KpbJyIapqKdWplKSBtRAK+LXRK5fK+Lxuuvq62M5mSGd3tGqSC1UoFrE7bIo8Hz58SCGkh48e6eU7fuoY0a44j+amFFaKxsPaZIZDEe7duI/dtDN7b5aQO6xCkc3UFnaXVTE/wdtwG8T64py8fFLzl9PlIL21zZU33mJrbZO+gX66Bjpxu/2UCw1SS2ny6RKbK+v09HQyPD5IKrPB/OqCclhDo6OsptI4bD7On3uSjz/7KUn+ol3+a4msxGB58wKvSyjbzzP7eUeMJA24JGER/TkMKw6LSVMqI4edRH8Xg6Oj+u/u3rzD5nIKn9vdpqIdBsmeDvxxH9HeKJv5bfqHe7lw8byeS9ABAAAgAElEQVTC/D/81vdYX1jF5/Vy6OhxZhfmmZtdojPRRdATYGdzh0cPH0G9pTIqgWIE0JI+RMQMInYXr9YCxdIuTuR9iy5B85FOJTQ1H0hoK9VKmvua9ibxrhgTByZUKPG9v/wB2fUMRs2CtWXFbhE8LIHhNtgqpsFtwd8RJNkT48CRg9SrVXa20pSyBZrVhqIHF566RDZTYOrBAqmlLSx1G16HS8NiNBFiJ58mEAswdniCfKXIbq5IKJLkwvmnOXv2oxgjowOmAIU7O7uqoBR1fKNRV2WLIq57mlrxoLYyRgTRgpsJWqDyaP3QZtPjIpSIMjA8rPX70sKivmGr2W7FHC4bDo+Nw+cO0Tvex/rOGtFkmNGJUZZm5njjZ6/jc3oZHR0l2dOjSfPmjTsq0uiMJqkWqizOLWM3bBgNU5WMFhFlq8RJAqqoeNp4k9y2dhRoV4xtdZBQue33LahFS0Ban51yo4zT76J3oAe3y8PS7CL5nZxCJEbTwGG3MnZoDGfATdXSwBnyKLJh99m1yJGEbm228NidcjC4bG7SuwWyO3m21nco5SrEQ3HFEYv5PEeOH1ZNtcQd6bFEzyzUQSSWVG3aEx95FmN4pM8sFqoUi5U9/b8guG2BebvqaZeOahh7W2Ev3bEWCYosimjboeiyaPJEQO7xeXV+RjK10MZWUX80TC0XbV4LL/36S0S6w6ymV+ge6FSGc2F2llxml2QySTgSod6Sm23l/as3uPHuLaK+OE5cbCylqOar+nqqP7MKbiaGsWARujoRU+WJ9A5CZe+LExWIFUnUnvBdLqGMX7TsKHZm9ziVLhdjiqeVc0Va9QbNmojBUcDTFwsRTsYIdUZw+N3KrG5spdjN7dAZjxH2+/G4XIS8Yd58/W1K+YribJIrXQ6nSnSr5SqxeFx1ZLV6Q0vpwaExAsEw4VgnTz/3SQ4dPYERCntNaeKksxYJjQrUrdLht7t8MZKQY2Iom6MNvasWyiYHsVdaWy1EolFsDodqhEUbLKVpMBhW7YAo7S0tC9VqCYvXwujREcJdQRJ9cSaPjqtoQgzsdrp0hEL6DdELJzs7mXk0z+byNpPDh/EYHt5+7T0WpxcpZSuY1RYBX4Bqtab5T8po4eNFbCoEXa1eVW9p92kqQ9HnkksmFpImuWpKsg5rdbiTzSgUI7lVbn6lVNRn97gdNCwtyo0aFpeNzr4uLWR8YT+1pugfDMIBP4V8DpdQJk2DB3emCQXCJDuS1Ko1vWSFfF7hIRGUSJSSM3e7vBw+fJw1yTEePy999pe5cPmJtmFUba5GaecUKUUFJHR7pPMWEqiyh+RKCS0a4rrUYR88tMjxDh46RHdPD++8844CfiJZFXBQdFvSuQtxJUSWNGv+Dh+OsE2VNCIzWlpdYmCgD7fTycMHD1Te2tWf1Omv3Z08DtODUbeR2ywq8VXL1bl/4wFba2mcVoeqJsV7pcGVw1b1DW2ZlYQt8QIlveQy7RlKDsXcw/yE8ZSGURSkoVgEh8tOoVQkm8vicjnpG+hjW+ZtamUdzAqEQ3T3d9FoNag36xQLBVZWlpRf6u/tZahvUDklCV1SjAjwG48nCIVCep7r6ykymZyW4iKAD4cTpHeLEusZHh/nxOlTGMGQxxTlSa3WDlni4vJQMpzkcNrbDGazpeIJMZyOxomi3yoJVsQKLZFGqhomFouxtLhINpttU9E2myZGCTeiQpSQsb27xfDREQ6eOkAg7iNbypDJZRTkjARDLC7OU2tVaFir9PR0afLdSRV4763rVLJ1RnqG8dh83Lhyg2a5qTlGpKZiFEn4Tof0HVITyNRBu2FW6lkoCvEUwdkaUga0EQzNkzLc5LQpVe72eXD4XDSMFmWhEYJ+OhIJtre2NOeKd0YiEYJBP6ury9qjye/J5XdVFBKNRomEI8TCMW7duM3a6rKen/BRvb29StDJuMb09CwLi0s6leDy+PGFYiT7ehkZG1VVqOEPuLRcFqDwA3TZInMmXSQSCaamprTWlw5cY7IkN7cbm91OpVrRIkEeTsKeX+hnm03Dio607clqLYYVu9Pd7qAdJonBBN2jPcphiC5NsK47t2/S1dFmQAvlXdwhJ7F4hKA3SGY7x6s/fp1GqclwzxDJUJK3X71Ccaeg4U+0uFKCSH8l4gnBvNrTCe33q9J6EStqvmznGaniBLsQzM0min+bQd0U+qylhnGGvLjCXgLRsFLgIvzr6uhgc32DteVVKsWiosUCv8iAljSUQ6PDhCNhFc5XihVV/EjvJPOfMoLY0N9vqM7O4XQxP7+AaVhwS26KRThx+iRjB8ZV421Eoj5T3L9UKauby0c4HOLjn3iOTGaHt35xVQsDh92h4JvcMoEWxOqpzU0d9pEbKjc16PdrThFGVGkAEWWIdqDRwuZwqQDC5rPjiXnpHO5S0FFYv83tdYUxhvuHCIejihaLkl7wnmSiQ4uHB/ceYJbr2gzOP5phdXqRA2MTBN0+7ty4R3ZX5KltalYukXiSeHhbt9UuL6XabO3R5DrUq8OOphYLCPZmlyFSK1WzijsaVKVLoqdTKY9COovLasdttyuEv7G2TnOvpRgeHlbNw+LKkuofRDDodrh0WEqMv7O9LSIyZURFPCJnJ/lQztHnD1AzmzRdVvzhAIFIgFDUhxGOeE2BzoU0crkdbG5t6Izi//Brv8a3/vIvyWZ2CQYj1OsNHj18TKFQxOkSfMfVnnEEbei8bq/eChmrEMGG9EGNak3LatVLSynudWB120mOdGnit7ltqtrM5bPaFUcCYSW2RMm/sblNNBFjbHSUcqmA1+VUJCG/k2VxeoaeWFzxtWalwbe/8V1u35miUKiRz5U0D6qSvmVo/pHwLMYR6EfCSnvepz2VrZN1hnia6L2teEN+is0SuGx4QwF6Bvu0EF1fWmZnfQu/oCHNFsV8Aa/Hg8/tVY2aDCRNTU8xNDKi02fLi+tamEhKaIhMRgT5NiuxaJxoLMHy+qp6nD8cxBPwYLpt+CN+DCl8RZ05ONRtxhJhPvXZl+jv7+Onr/yYja11Th4/yY1bN/XzubMXFab/1je/zbe+9Ze0WtIvCBcjIu+2/NTj9igGJeFLqg/5u9zWtfU1dVt5Y0JFCw1w7OJxymaZQq1AsruDDlHYKFllIbOdZerxFKvzqxw4fqwtuggHcIgAvVqimNvF1mpxeGyUj33kI1gacOfmfa5ff8T2doG3r16jmCvRaMrZutUQcmuttjZtK6yblKpCHyg2KKCFVaRGdkXCu/p6tFJL5zOUG1WGxkZwuV3ktneYm5olHAwoZidot3BP0UhMw5lAPen0Dk888QRLy8tMPZ7VEXXxLtGPKeJcr6vaVJSplVqNSk1GRZoMT4xwQlCEnqTmrY3NNYx//i/+qTk+MYzb79CELjy2sGySM4R7iEY7cEiYCoao101+/KOf8OjxDIV8Sd+IxHC3z6eHK3haPJFQ+Ht9fV1vo/DyyvI5nTog6wq56OhPEkqGtKkTmFxeQ1hN6XkkNksTKeNyMk8pt7xaL+EWCZSlicNmZXdrk2QkzGdeeIFh0UVX4NWfX+XevVmuXnmPakn6Dzl9Szs3tlXcOl8tQm41jOYj0ctZdHBYwqZga5L8Jcy43E4VmvT0ih7BxdrqKtupTc2vg0PDTB48qN+X8vzx44f89JWfqhcdPHgAp13QEwNp5WYeT5NNZ9Vzw+GI5uZCuaAKn1R6i1KtwsD4IM99+uP0DfXx4NF9lpYXMf7nf/67Zjji5cSZI9KH6ky8jMVJ0/jkk08RCUWZn1/WRqhcrrK1mcHnDfL+9VtcvfqOhgNpLoPhEDMzM9ocyihdvljQB5T8JeSQPLsMMYm22hF2ceTMMYXOd3bTpFLruJ0eaBgE/UEalYbO/Qt3UiwXyObTBEN+ujqjhAI+6pUyI319PP+xjxENRGjW4c6dKV792VvkskXu3XnEZmoHm0CsOonWHkQ1hFvRSqE9b9Nu2sRlLFgcNhUKSoJuk4SGlsrRSIRauUp2N6teJvsLJg4d5Pyli7qDIBQKMPX4MT/50Y801A4PDTEyMKTSpYWFRd76xdvaOEvOE9G6/E6ZHRXgs1ApUqPO4Pgwpy6eUkJRzlBQE2NkpNccnejjxU8/x4GjE3uCPzulYol4vAOv108+X2R1dY16rc7192+Ry5RYT21z+/Z9DV3leq1duVgsyuXLYwsELhO6Am1L1SbUsogEi/UK+eouk0cP4o/KBMGuTjY/vP+QSDDC+NgE5VyJ5ZlFnQ4WIsrjdzM8Kg8borMjjstmJywTAvEOHNLHmAa5QpWXv/tjcrslpqUpXU/TqstQUFsj16YoGrqLQMpjKa2lmRSZk8PrJhCN4A/4tKCRECXhTwR+XqcblX0YJqVKlaYV+keGOX3hrOqkRQi5vLjAlTff5OKZs3z08iU1jggKv/rV/8rXv/Z1Naxbt2EEFBWJCFfT28ng2DDv37muIdMV9Or5STku5bxx5PCIee7SSUIJP+cvnefg4UO6rECqFwlNpVJZofTl5UWshsH9e/e4ff0R16/fpybaK9NU3l96FsGNpNw0bCaReEzn2aUhEx5d8pdA9AtLC8rzxzsS+AMB7ZXm5uc1TERiUfoHhrSCsknitkAmvaP41+BovxpWeqx0apNoMIxFFHnVhkqUFhfWWZhfo1o2KWbL1CqmGk3iu+oRpI+ROXst28RvmuodqtN2ubSfEJmthOFqvaIeKhyQgKUy/ymYmchl5fk6e7s5de6MXppER5zcboZfvP46E6MjHD92lPPnz+Hxu7h65SrLS8vMPp7jwe0HOj0guUa03ecun+PM5XM8WpxmY2eLrMwPbaQ06elQ0//4T/6e+cJnnufB7AO6e3sYHh1RSagI1ISLFx3ZZmqdTHab7mSM1MY6Mw+X+Iu/eJlUKqO9jdPnIdGRIBANKvklqG3foIzG+YjFwlqKyyGoDrplMjs9Rzq1rZRxX2+fymBFbhtPxpXD39zeIhwMqT65XMhrnyDVbTAckOOk0agRC4VxGnBwZAKPy8vLwnzOrFAttpibWqFWbqphZIxOVZhCewuRJ82mqIRsoi6VXGOorkDKVkGcxfgto0EwHKRYLulEQilfxm1161yNvD+ZIpN+pVaTIVwr9XqFeq2qjefY+DAnT57gzIXjpDY3cFgcbK1v84PvfF/R9oDXR1d3F8fPn2D0yAR3Zu4zv76K1eImk81rdWqVsPsH//e/Mz//G59jemVOYfFAIIRHBjcFZKvVaDXrzEw/5MH9O8RjAarlAlP35/n5z95mayursqJAKMjx0ycZHB1iXhckZIklY1oKi7tL2HD7vBoe6pUqj+5NMfdohnxmV7vkeDKhByGiiZmFOQqlikI081Oz5LM7nDl7SqeTpfqzOg1i8agQSNjMFscPHmZseJSXX/4+049lBrPBO2/epFmTUUHHHsckTbCoR6UYQHE4Ebrv5DPUayaF3RI+r08JLo/PgT/sp7M7qfkkm82RWt3EZXFTKVRUzy3tgaiEdncz+ncJfRINZD+NDAI//cyTvPjSc1TKeZ2ItjSt+rzf+f++RTKW4NTZ08R6OrD73Lz23ls8mp3BYnHicfk0QuiIxksvfdz81//LvyHYEdZFPDaZEzSslKs1xZ8cDiljW/pLsulNhV8Eiv/Jj17lzu37bG2lcXrcDI2MMiFqEUGQnTa2d9Jcv/0+hVJexd/dvX047U41TKVQJru9o120x+PWpCiSH5kQkArJ7fUxOX5AtxylVtfo7OxQL8oXcjrjKR8OmdlxuQh6vBw7cpg7d++yvLTOdqrI9Xfu0hJVY0N6lDYwKxMKktClzBfa+eMvPIPdZ2N7M8ubr11R7Zr0YX2DIjna5dLlJ3g8M0OhUOLY0VMqVxIvl0JFRk3kskkoll7EKiJSCZWys8bn5bd+6+9y+OAwjx/dpSMR10qzmivq8ob1pTXd1CFLGSxeFxu5LI9nZ5l9PE0pV9RJap3RjMVC5hf+/m9x6anLeAN+3WwUigqQ59qD/00q1RJmvYbDJr7fJL25rZNlX/vzv+DNN97WZC84lNVh165WSmbBkERMLuFAmteVpVUdSe9JdnHo4AHGh4cJh0LtHsYuszglZRvlQaXDENXl9kZKY/fbV9/WQwhEgsS74+rJkXBQm87t9RSRSKA9CuJwc/fmFNfevkOt1FS284Pp6qYkfulzrboB6uKTZzl98RTF3TI3r9/l7u17eL0unnvuOdbX1xifmOTda9d4+GiK40dPMv3gcfuA6xWVbAk2Jwl+fHxMEWZZLhFLxDkwOcnf+c1fx+2A6en7VMtFRZ07o1FWF1bIbmUIhqIMjU3gjkSw+/1YnU5WZmb50Q++p4NdjXoLw+t1m7FknIkjB/jMr3xWkWTReuk4nsOqt2h9fZWVxQUatSpjo8NEQkFd7/Hnf/41/tvXv0W5UsHvC1AqV9SgEq9dLreWyrKHrCOZ5OGDR6xvbGi3PDoyxJGDBxkSRNntwi3IQ0T4nKaGCWEkRREz/egxr77yM52RlK5ZDC/vUxY4SP+wsrREOpXCJV2638PBg0e4/u49fvLDN2hUW9gtDq2m1GMEGxPexrDo1NfHPnmZJ568xNzMPLeu32M3m9cDHB8d5bd/+7eZnpnlS3/6ZVKpbaWcraZM01W0+BCGzuay64WTD58MCO9mlfaQoanf/nu/hdkosbg4g8tpJZ/LEvJ6yWxtc+v9Wxg46B0c5eCJM/hiCax2B8Vcmjdf/Tnp7W0SsQSG3+czJYwMT47wD//xP9LmxuKw8MRHPqJ1eyQS0hn9O7du4LDZefqpJzHMpsplX3nlFb76lf9KPlfUyd7Z2QVyoguwOnQItlqrEY8LZXuA6alpHj16qHS0gIYjQ/1cOHeWaq2Cz+/RZW13799WbxNX39hI8aOXv6/uL9WgHIDkqUhHjCee/IiSWi9/57tsrq/rYh1ZzHPo0DGuvXOHn/34TdU8S0iW39cm9tpocr1h4gzYmDgywGc//yLD/aN86Yv/mcWFJYXoD05M8O///X/g/evX+bf/6//B0tK6wvMi/pBLKpy90AKyBUpQdoGg+oeGiMRi2v2fPn2WX/3cr9Jq1tjd3dZK0Go1dQOHwBE//dErpDZ3VR579PQF3KEYVZlJsptspdY1IvV097QFf1LpCHh2+aOXOHXmFKfPntRla8srS/QPDFCplJmbnuLEiZMM9A1opSRRTcrpq2+/y7tvX+Pi+ct88xt/yfvv39SuWppMCR2CNsvmvGKhrEZo69OanD17it/49c+30V9Li2MnT/DW1Tfp7JQDPqTij//w7/5Pjb0+p5ujx47qngAZh//M5z5LIBDgT/74i9x4/xr1elVVn2fOXODRvVle//nbVEpVrbbsogeQctlmoV5rKgXuC7npH+/k/OVTnDl1jm9/49s8fviQUrHI6RPH+dyvfI7H0zN89atfZ35uRWfzDUuT3t4eXnjxBS0+7t67xe27tzUPCw81PnmAe/fuc+z4CY4cOUZnt4gx3Eqi0aprbpaCZW5qjnK5idMdwnD5qTQtlHTFWA2f16UzNr3dXRhev2z4a7XpU7+T5194nn/4j3+H9Y0V9Z7zFy6oez24/4BzZy8QjcSpyVRZo6Yz9WurKb785a/w9FPP8idf/BIPH07h9/qx2du7AqSHUbVLS3TNgp+1MCwtJifH+MTzz6n3yGoraboWlxZ54onLqmopF3P8we//Pg9v3VGe5lOf/hSxeIJqq8mho0fUm//kP/4xC/NzxGNRCuUSI2MT3Ln5gFd/+pYmc8G0FLzU57Mpyi2DSP6Ih/HDgxw5fpDz5y/w/rvv6zRZLNrOGYGAl2wmx2uvvcXrb1zRMUEpkS9cvMCRo4dU6js7N6WbmY4cO0omu6u81N079xgeHVMk/elnnqGnv19zX6NRUc9pCZNp2rQJ3t7JYXH6CCY6sbk8rKwtUyzssiHgpseJ4Qt4VYkpmJSUepF4hOdfeFZXQ00vTHPp4iXW1za4c/suhyYPq5dMP5pSqav0LphWZmZmVf8lN0bGMcRLZECop7tbf+bBg0dk0lm9rSJGcLltuqBHdsnIAcvSNmlUxUu/8IUv8PTTH0V2inzxP/0h92/dJh6K8vlf/VXdKynA6ej4OLlcnm9+4xsafqLREKntFP5AmHevXuf2rce6uqRekx0FbjW+jOLJykO5gcGIn+HxAU6dPcmhQ4f5b1/7Oi6blV964ZNYLA0cTgsFmaucmefGjTvMzi0yNjHBJ198kbffvUJdl9TJ+HuCj37kIzx+PMXtO/f1GQ8dOa7txqWnPkqko0M9SvKS2+XA2jJolBt6Hg8fz9A/OsGxM+cJhCOk05uUSzlee/VnpLY2MfxBoZYF121zMfVWjWDIRygSkDPnyNGjbKxv6EopOfxMelfnXARTa5NOhs7eS78qUUkgdVnO0GzViEaimqjFsJVyTQG8XC6rapWRkUE6u5Js7WwpNCKxWnLCb/6d3+ATzz+LaZb5zjf+gqWZWQa6+vnEc8/h9QeV8pViIp8r8NWv/hfm5+ax2ywUKwVVPs5NL2G2bKS3dlhZWdZ5/M/92q9otfjHX/ySHrgI3wdGBrh8+SOMjY3y5T/9M3Z3tjhyZJJ6s0Rnd4JcvkBDJLmmjYWlNf3dZ86f49btG+R3M/h9MmXgVbW/dOz37jzE7wty8dJlBodGmDh6CIQVFYmtVB8622/VqbQ33vgF3/6r71PHwvknnuCJj15meWGOUiGneaq7rxujozNu1mWpjs6eO3S2BUMagJYCkzKVLA8pMdvjDrC9udVmOlVOKwlW+HZTC4M2xLE33yHclEA19jYdLclBd51h4nLbGZsY1U58e0dmNZsq0BP09Zd/+bOcPnuMRqPA7evvsTa/xOTIGE898ZSyrJvpbXr7+nUc/atf+QoP791XwqqF7DFzYre5cDg82l/JRJlQxn/3C7/B5IFD/NF/+mNu37qnPyeL3U6fOcfQwABf//OvkU6vMzIs9HiAZGeUnUwGt8dHf/+wLvGZX1lTbxPK2uN2MtDfo9sG5TLNzy3w8P4UkXCMFz75IhMHD6qKRi62INZKvzfRpaSNcp03XnuDB1OPMRxO+oeHOXriGKmFBeZnpmhZTC2WjMGhflO2GylOofC8yIFk1KGq8xo+n5dSoawTwxaLg0Iur7zC/hanthBQxHViGJEsicpGpEEy6CQMSEMTsGyb2CfVBKnq6ExoUm7sKVmkNxDp0vMvfIKe3jhYqqRWl1l6PM+Jwye4fOEJRSNkkU8imaRaqfLVL3+Z+7cFkQjT39OtjerwyDhLK2vki2VdezgzN6NrfD/3uc+xvZXm5b/6Hrfv3iccjXPi1BlGh4f5L1/5Cpvry+oxI8O9uDw2tra2lHOJRBNU6ybL61ta0YWjQWKxKMPDg0xNPVLEferRNHNziwT9YfWY/oFBFfO5vV7VjwnLK+iysMCCnF+7do1CqUR3bz/d/f06K+S2Wph69ID1zQ1t0I1kR9zUaTHdyiAsmw2njPFhqvRTB8+apjKYjVpTJUgizPjgj+q0JJAJf743Q7i3G6D9/T2dmrKGpkI+oitu7zxur7mytJV7JJIxXvrUCwSCMqOSV4XN7L0ZLp15govnLuqoenZ3R2Wpgvx+9zvf4dG9BxyZmODUkcNaQYY7Onn5hz8kFEtw/vIT/OLKVb79V9/lf/u3/7si09ffe4///KdfZnp2kUNHjzI40M93vvkNtjZWOTA5yuGD49gsrQ/G/uQ1nV4/V969qbteevp6iUQjJDqiLC4utpcXrW8wN7uozXkgGNIL1tmb1DFCueiCbosCSKKKRKcf/vCHCtxKznR6vBw9eoLTJ06yk95kO7Op44pGOBxsK5ZlYZx0x832qIKENVGkt6U/7WlhAQCFnRSPqe99X8oOHcnYn5vZM5TACiLUkPAl43+ydE7ARGk8ZfmCsIKSo8R7hKCT2fze3i5eePHjuNySM7J4nC4WHi5w6sgZzp85rwXC9s4W3X1dOqb91htv6CDS0cmDJKIRrdpinV2spdO6WS8Ui3Ptxk1effV1/vW//JeaRxu1Gq+88mPtVaQC6+/r4f133yaT3mSov4e+7k69LCKikOc9c/aciiW+/f2f6oJSgVxkraRMS8s5SX5dT6XY2tyhr39ABfC6E9RpxW5rn4ug42qUep3dTJallVXdAyoCSvFsl9OlcJUs/JFRxYuXz2FEYmHpvpSC3f8jVYxMzvr8QYWpRTclVpcEKoykTAYIb9DWaCmt1N5rpsp+OWgrLld7FaJ+7XCqB5bKJX2Q9nLqdmhTfsQqsimTru4Onv7YR/AHXOTLaUWQZ+/PcXj8KOdOn9eNgTuZbYZGB3V708vf+Q4+l187fsk78qCCsxk2p1IRdpeHu/fu8XhmVqs9vXiNulZVX/yjP2BjbYXhwX5t7HJZEXXLfkxDPcJud9HZ3aWwy9V3r7GwktJDlApSaOFoNMJLL72kkq3XXnuD7a1tPvnCi6qylMsszyiXUfKnpgeLRZWhqfWNPVraS7FUoVSuKiEn68OcLisd3QmlHIxwImI6RJYkt3tPDisvImWskGQCuQs2JQqZYEh2DgtEs87ubnYP7mgzhGIUzS+yMstuw+Fyaj8jVKy8wXKxqHCPvAkxmGx2Ei6mLfJGGzFZLHf2zAm6ehM0WyXcDic3rt7kwOghLp65qFib4GkHD0+wtb2lSXtjbZOXPvUZLl7+KKZNNneUtGeRispqdSi4uZpa5/Of/7wCjeK1Dgv84Lvf5OZ7V3XPgN/joVYt654ZebajJ44zNDhER7JLYZb/8ud/wbvv3dJldHLgoikbHOznhRde0Eb6Jz/5CZubW3zm059tY326UlEKpPaqYymIhD4RUUY7N1sIhiNKQErkkcs/PTNFKOTTs5BnNDp7Ok0JGXL44uZiHJRjEPLLqqIKGbQpVxIDxJgAACAASURBVKvtPWXO9kY/QQOk6tJwtWcUUTaK2lHKZfnlsUhEsS9pIMUAHlHXuJzatcuIhMw7yvJpp9OuWJdUayrys7fIF7bw2F28f+UGh8cOc/HcJTWmHO7w+JCGmq/+2Ve4c+se//Sf/R6Xn35G914KGiwItu51CYS5cvUK1UadT770SwI268Gm1pb52pf/X/LbKQ4cnCQSDinoKnowGQk8de6cgqZSE3m9Ad548wrXrt3SFfZDgwOKdscTMbplE4gBP3/158zNzfHZz34Wv8+vyIdIhHXdVauhRpdRey2F9lShTrcIMsQoXjXew0cPSCQi+vO6LTEQ/L9MAz8B/5cwzbX28L8u86mp/LMtVXJ+YCiR+IgBdYW82VK6ud2DiJa5ffPFmFKSdnbIYumwLjeQkBePxVR03dXdqaFgf1Og6L1kGYPcLNmqkd3dwuWEkNev85jHDp3k0vlLuvU8V8rp3L1smPjSn/xnlhdX+Kf/0+9x5PQp9ah8Ls+br71OcbfA4YOHVK82OjHB4ZPHqRsm2VyeX7z5Gj/7/svEgn4mD0wQjUUJ7KHiLcOCw+3B4pCQa8di2NnZylAu13BJjvG2p7LlnAQPk2jw7rvvMPXoEZ/+9Ke15JfMKfWx/PdiqaDb2MVb5NKK/kHyky7AlssjS7Odbv0fS+hUgjT6rZpolw+bjfpvEor8vrJn+7tkpCcRL5E37fP7dHxNZgdFcC1Qi+QhTfC1hmrRxEuEuxEOXASD8gaTHR3q2rLIdH8roBhVDCCwhtC4wn0IUi2JUYSCEjIjET/nzx3DZbGzsZjiyORxLp6/qDxIejdNolOGXTP82Zf+jK2NHf7/9r4zuq7y2nbu04uko95lS3IvuAj3JrnggguY4gRCJ7QEEnAIXEgy3k1ukkt5PAK5EBIgOAm9GxdcsQ02Nq7gXtW7dHR6L/uNub4j837cv2+M9+OZoYGHi3z2/spaa64557r3/vswasJ4xBIRuHt78drLf4XNYsf8efVSY7FXVDNmtDBS9h7Yj+3btqGno0NqmKqhQwXlGDlqFDSLomSR+kRNJG14GT9pYcVYxjcZjVKhHRP/ZzJukrEo9uz5QqCh5Vcvly4mfT59gQEEg15EI2FZHDboTAZduBQEd2OSQKXkqiwrrRKCC9NzNiapL9WgRXSr9X3k5P9CMii+HL5M4flqmuxsBlTCBIS/KyrLEY2p1SWmxPYwT0NOTpaQAOknI1GHiC50ufb8Pj+83gEMDLhlEeIx5QjOdDw72yn3tNnM4tAsfz+bYF5+DsyaUQjkM6bOwuSJk+EPBoXnXD6kStDn1155HSeOn8FNP7oZi5ctRIxQ+8VGvPXPNzFu3BUYM3q0ECDyCgoxbPQYxNI63v/oY6xf/5lII8pLSoUn3LBwoaiLj504jtKqIXDSP8ZiF/Miv58JixmVxeXIdmYhnYzDxKae1Qin3QK/dwDvvfs2tHQKCxcskCESZBuePHsc4WhAVAB8V6FQAHFSiqmajkVldEoipaOwtAzFhaWwWnKUs1UyJmi0VlZboYcDq1BQ1IfCkg7RlbD6cFCElJsn8UDI1+x101fZahWTHfrkk90uxAmeHLJlImFZNGJefPEsHmUiBIkaRoPoDvPzaQhNmCKNLLsDWVk8UZy1QjyH10NKcv6iglz43T5EvBHMn7sQdZPqEIpGxN+/qroGbe2dWPf6P7Fz6y40zJ+Hh9f+VDC4tpYmvPfu+8JlttudGD9hIiqH1mDK9FkIRaL4y19fw7vvfSCEE6a7EyZPwr0P3AdPwI+m1jaUVlTC7syGxZqFeCIlVxjrCRcTGbNFdUI1EuzTsBE5TsWx7u+vwpXlxMKFC6S656akbQvt7tkioYiX8YbvjjeGx+cRnxnG5PwC1jpMkEyZhYnKNahNu2qW7uldgvyiflQM6ZM7XppJdpvk49R28GVxUA8H4HABmHayq0nQk1kOoZVBb0fFx7LI9ceKn2QFJ90ArWbx9RLFF6jxNEghayJlh/LudBqhYFR0KYX5eSjMdaGrrRvePh+WzF+KSZPqhNThDfpQXVuL5rYOvPmPd7Bt83aMGzMa//bEI6ioKkVzyyV8/Mkn6OjqQV5+EUaMGYuaYSOxcNFSaXq98MJL+OCDD2GR7NGCu+6/B1ctW4LGlhZ4giHkFxQiy5UHi8VOlF66iWam+5rSDNmo6zQkEQ76oCEOl9OKzz75UJ5jxMjhwl9ng5BxmqxRbladxns2m2SvdN0V/RCTL7PiJJCMwtMTj0aFm0DiiDZ01Hrd7gyhduwOmMyKA8YAygYT+xM8XsRWeAq4KPx1FoSML0wbeQ0x7WWFTw60tBAM6vdZVBH+J15FuZygPoK2JjOUItWvESGgrknPJhFLwJWdJSmsu2cAIU8QK5asxMQJk+ALBMSdj77IRHzX/f1f2LtrH4bX1uCXjz6E2hFDpUeyZft29Hu8KCorQ25+EYZUD8MPf3Abmlpa8dwzz2Pjxg2wGo0oKSnCH57+T+QWFeLk2XNy1bHhlZ2bDwfd9wz0R1ZYHzM7Mf22cqhRBAP9PXDaTSgtysXuL3YgFPDJjAMuOLExwjdsOwiKQltFyc6iggqwrmEZwRhAjJAdYNqvsJXCk0jlgTbz6gadmZU/FJZdy91PC1+iskaNDS9eXUozQ0Z/cVGhFEuEcdgWVhOYqEFhJawGI3DXc3dR2seEQOKJlY6BcQmC6vtR96zcx6mhIZZmNJigpwwyIis3Oxddbe2iAl559Upp0nl9IYTjMVH5Xjh/Hn95+VUcPnAEI4aNwM8eug/Vw8px+PARfH3oCPxh2ppoCITDGH/FFVi79gl09vTixRf+jB1bN0l8qJ9Xjwd//jAszix09bkRSzHNNYiRhNNKkrxdKLa8Ncji93jciCfCCAW96OvtRHFRASaNH43du3YI4hzweWWDtrV3oKfXK3pObl5uVKfDIgOByHEQbhl0ITqGwiFpDdAmhdkpa0C+c638ikqdUAO7dEzKKa/mVUT6J4tJpm66lhIHCgZ5QuY8h8TLLGarVPY006EdFq8+QS4zbEf+Qae4QFADo8wazLQazFid8FKzmqyCifH4MzV9Z90fEY3ko6a6DfPm/l7S0MVXLYLVPgpP/uoWmMxsK5jwz79vwhuvvYotO25EKLocebl2bPxoF/btD+DJf1+mjLxTOsoqPsH9D/TgjdefgM9PHe0hFFfcD4dVw9zZc/Hjn/wMOXkliKUp+jUibTQikYwKPsgsjGQ/1iWJRETiajQWkrrE6+mHw2qWbuPZcyfkpPA2OHjgAI59exw6nZSY/lOmkkoKvy4vPwsF+bmyMDwZrAHlatc0RBIx+Xf4fXiLcIG/H7H0PTT5f+VnTq8NNz+1FAe+uBMzG96B2UIPf8ZPpf7at+sOzJqzFQ1zatHXPQ07tv0LHR2bhBhitY7E1/sX4WcPHsP5Czdj//4oyotfw7btrFe+xuKlv0U8MRmTJ+zAun+8iWg8hdPnb8Lq61MYM2YaVl17BWLJXmxY78emjZ2YNmOPmPT88Ja7kZNfhlAsJcYRrNep3aQCgC5I3Hwc/sCaZNAihd1xBnVyob0eNzo7W8XzIBwM4tLFC2hv7xBXdrYOGPDZu8nKtiOHPZwcZrwq1iqfOG5abgplJcxrXdD5OYcm68wQGFg9AyNhtbfAao3BOzAdrryLiMVccGZ3IJ02w+seB793CCpr98LqCKKjaTqstgHkF59By7llcOZ0wlVwCRarH9FIEbJyvOhsmoqyId+he0ILQnlh3PbL5Th55BrUzdgJm41GPmwBK6XX/j13YuqMzVhQPwxBzxzs2PZPhIJfoaS0GFZrCTZuvB9lZTpa2oZhxdLP0dv9FbbsWIgrxryFtu6XMXNGCvPnvIYtW3cghTq0dkzCDTdeQHX1Giy8qgbBUCv27bPi6FEDrlr6Hc6eb8TiZatRXFaNlGZEkoE4HhM3DZ5yu8Up6AQ3j4qxKjATnLTStMes4csvdqCttRGVZaUIh/zywttb2xGJMpvTpUWQk20XZB1aCnF2P2mBTACXPnD0K6CuiGxUquHo08P/vt79nt7Z14PW9hZs2DANFttHMJrbcfK7J1FV8xZOn3gMDme3QN7OrE50ti1Aw4rHYXYk0ds9CueOXgdXwQVk5bTD0z8aNWM/Q46rFd6+SSgbch77tjyJ6Qv+jEMPbUH7+G7cunalYGpEBygN5FQIJhn82r/nDkys+xSTJ+Qh5J2DIwfXw2o9JZmMwVCLg4fuwZ23fwSv14WNm+fh5h9sgM87HIePlqCqMgl/sBQL6rdhwOPD3v31KCtvxISJEUTjkzBqjBle70WcOF6Ejs4qrLzuAgLhBGbMmg+bIxdJ3YC0mOClEKO7U4puT6KskV4Kq30W4Iyj0FlcMh5o2Lj+IwR9bpSXFMJkUuMWmy42iiM54yqpWYy/JIzwimRxzr6VGI1nXBLE943enrSUpFA5kYTWfH6nzjhBxPSlv5SjuuYIYvGzePuthRha8y6am4egqGQ3dM2BQGAsLpy5Fw3LH0PKAPT3TkReyRmE/TnYu/F5lNfsQdWITXDldsLXPx7FlSfwzfZfY0rDf+How1vROaEbP3r4GjSdbcDYyceQS7dXqw1+jrMKhtB0cSLiEStGjDiFtkvXw2p+GQMDw3DVwgRcrpHYvrMe99y1X7Kk19c14L4fH0NfbzaGDPHi6edm4NdP7IemUalsxRv/Go0f331OKv+eXis2b6nE8hWn8MXOGkycZMTwcf3QNTuGjRyLVNqCJG2+LBbEU4nMBCm2LBgulbkD4y9jBdN+wjAi6UjGsP6jd5BMhFCQm4WiwlypcVoamwW+YZnBk0LTO54OYmBso7N+URaLyp2cEwB5ulimKE1rGtqpY5/phMtJXFj3z+H4eH0lLJYUPvrgNC41ncP/en4ETpysRDLpxZRpj+Lk8d+jbs5vkTYaEI3V4tietfJNp8z/LWyOMI7uWYtwsBg5+Y2om/Miju//OcZP/xeOrd2GrglduOH+Fdi77QnMXvQ8srMpSjVLh088vOJx7Nr4DJIJB4qLOnDNqldx+Mhtwm/+wZqLWPuLq2CxqN32j9f2oLvHhF88Nhcms3LxeHPddpjNdjz+5GQ8/th5ZOeE1UzOZAp33b1I+Ai1tQH88elTSMAEXyiNIUOHw2jOEhsWgrWsu3jvq/arMCGgiZSD1xmnV/DXdTgcFkQCpNdugXegCzaLhspSOvjZ0NbayltL/KDZBpGheoxJwtoVigUScWVlyc3A7JGnkYg4PytJK1pr0wFRJtAl6ZW/VWDRAlq8J6RNS/IEYfQTp07ii917cOLkKbmGbNl5SLBValNqMH4Dvlw7IW9K6ZIE4gi7002DZnAJHHvkMHrqerH89sUK8JRGjqp3xJXWahWcKdeVKy5GLrsTRQWFIrglyi3mpNKe4DWSglk8McmwVJoXsXtM0ymDLW5+JqrFMmqyjIeMMoczCr3o1PlGfLphB/KLy+FwuITZQiScfmq0JibJ3OnIFgIK02bWalRI83k4dIisl1BgAI0XzyLHacKli2fgtNNZIyxuurTHSpDbZlaoCfEzliIx1oIiyU+reTiiPmRPiu+JiQcHmKahNTZ9o9MT8v3s9dh0LIrhwyJw5RBCMMjuYUHJl0w4nFMm2trbYCC4R2Uw/wE5rqonww8tY1EGZ2PSCyBjTNc9uwuh8iCGvV+jbE8yPwaPMB+c7E1SaJkJsTjlNUdemngGiM2wYvJwp13+Of892cWZqUyyeMqzQLzGJHVXAySYgAp5BDo6O3uw/+ARpNMEVG1ycpnesobgRiAqwLllHADH/4sC22rNfFngsFllMzJDczqs8A6QIxAVRMRutUgxPjjtgpuVcL6yS1EdX7klM5JDXo2svoVpJMP6uDAtR/Xttt34adFjYs75/3/8v/EGtBuCq/RWYwcO2o58z6/QNfyP3seRDiZkzqRMVhJHOr8M7PR6Amhq7RBmI5de9PMkbzOIZaZlKI1jZqcbjei6pgOhYUGM+vPYTKD73mx7cDzHoPUWIQEiBDzyasQj/w2CgSlhNPIIEGvjtAyxfCTuJoMijDI2MRwMy99j0yoei6G1tVmIivRQ5qkkeBmSOQFs83IGgVVYQMSwmL+zaSgDiiWcsK4wiRKACmqeYnrkcHdTe8lTQ9CRn6O8vBgjRw0XaIpvgjWM8BkymCLTbRacYhFGlIOspoyjunRnMyYScZOaxPTfFpiru5fjh19di5MnTsg9X1c3Cfv27hO/sIKiErS294ouU93n6pvwgcWLhi+VACWvPMHNzDjxq+/QP60XC25YmuEJKMsTpor8wcUdFKaqNrOaTSYm3BlrX8YNdex1uUqIALBlS6SBFwGvOxZnXe3d0jcqKSxBX08PmpsuydU0pLpKrkpuAHe/B11dvfB5QrDZHEKHisXDcuVwJjP/LZlJyavOakWOy4Ha2mqJcySUcEFPnTghMZiRntr8iqoyLFhQj+qaKrHHpxcPtaeMicTBqFMNh8j7Vlcli0mpj1Icg6JcMxg2wpY4tHe71ulf2/fjRddfsSq4FA2ReVhb9CRmnZuKulfGY++evcINvu2WW3D8+HFZHDbDOJ3iu+9OIByhcbTyYGYvhYJYjRQoK3E0s3B3+XvHnzyGvqk9WHTjShWAB2m5cvcqvxcxHhG2jY5UMiKqLbJ2RDYpcI/yIqNtL/8+H5YvksguC1WeqI62TngH/BgxfISouS5eOA/vwACG1dagoCAPfe4+eDxexadOUfKtIy83T/pKjFu9vT3wBb1IkAeu69KSYMyhNS8DPoMzMzWZNEi3C8Y7o47sbAeqq6tw5dQ6VFRwzC8FuDLmWjYi455qM8fU0D2CtwY13pcnhxaMJA8yvQ9b49AuNZ3QN2ZtxM8Ln8C93ltxc+xGNJSsQvnWEjjXWkR/yOFuDz34U/S7+7Bt+3Z4BtyYMrkOly5eQndPv0whEhM3BmoKmBhIpefCwGoWutLJJ7+VEzP/+uVqscQPjamhIhpyYVgjEKcj7sYCT+FsShQlzHk5YcSfuPviYgXPgo92wTmObJw6cRq7du4WaTqtT6iC5ukY6O+TU82F6e7ugtfnkxcsQCwzy0QKZSXFstn4Odq6O+DzB4SVw5av1C6Ig9Arn0uM2cQYTyUFOblZGDmsBmPGjUJRSSESSV5X3Fy8uuIwGZQJH8W0iZhqyUstwyU2833RP4dXokE+V8gYZlb2nb7RsRk/K34C9/tuw43B1VhYsRq5n7ow9A+VyLI5pUq/cQ0ZIDa89c6b6GxtR/3s2eJReeL0WVhsWdLDZooiZjuSoZnVPGYumcGAk7/6DgPT+zB39VIp4KQrk2bqqDItftGdwsIUl95lZiNqqoYKPYgVNMkbio6bRCjE9gThcQWI8r7v73Vj8+atuHj+oqTcRfnFKC4skh1KI4nS4iJpdXd1d8qAoAgXlnpKm03k3hxLVT10KCqGDEFjc5O0rmntNamuDgXF+YhE6UBL+rCKo2o6H6EZm9CNHA7eGkzRCXryWiKIqhZC5oYauUHZMqABBN8KkWyNN6UsSCSREl4Fv2LmOLS2S4f1jTnb8UDhE7iz/yY0XJqN26c/iJLPizHp5cnCCWMUnDlrOsaMG42/vf4Keto7RdNOqd6uPftgNFlhZDNJuM9q5qT4UGrsYiqp+YknjsI9vRfzrrtaPrxKe1VfRvrhmfaB2CbyeosnL794tqAZu3hVDRZqrGuIK7EoZGpNC90jR45dnhiVm5Ur85qDfg7J9kvrm7KRvLwcCcoB9proEsXgzYGmWdlCVufpO3joEHr6BmTKx7KVKzFleh2CMR/C0aBwE2TQGyt5safU5ORYLAZJl5lAcKOkOPGQ7yIeE8KKiY02A08NnRGJAvCqIwwkM1JFZMx4zRaDLIyn7bj+gW0T7i18Aj9qux6V28vw9F3/heItpRj/whXim8xql2yShkXz8ZdXX4anqwsja2plMt7OL3YjHE2KLVSad6ZkFioR4Btnscn65tvHD6JvSjcWrFmh3ALFEYnKNApZSPhjYGeg59SLJBKRWOYlKNuqQRtI0qfUEG5WxVQa8Jowo7urV6wNVa0OFOYXorS4QFBgaV/Qot5pF8EUrVCCobDgc3SzCJFAbrPKgGr6Gny8fr30Z8LxJMZOnIjVa66FyQEZhSVGE1Sn8TaQObyUj8TlVPNzkXgxSLY3spfDKR6JpBieqsRIQ+LybFFVUyXSukxl4j3CExM2hKEFOk7JwtyV/xiuObsE6deT2PDsTrg+zUPtU8NRWca5w5DZkitWr8Bf/vYSfO5+FGblYM6M2fj6wDfo7nXDZHcIr4s9DfZ25C6WRphBFuboo/vRO6Ubi2++Vl4eMylpU3MHsnPH4y32jxS1qkRRpc/K3O57C0WeyLhU+Dw1MoAhkURXR5ewIbnY3J3ZWU7k5WTJ1NehQyowbvRwaZfnurLh9viEPyDDrzmHJhCAu7cH+QUkNFpx9LvjOHW+Cc0dXTL/8uprr0ZBea7UeQQjBVXgbhfUQ5H6FMKRQjQcllPDItmsfe8BxwSFVzs/b1QmyXJJNCRpWppKqWkfAv2nETPFoPnbT+kfOjbhrrzHUH9gJjzP9eH4BxeRu74A1U+NRD4dI/SUDE1Yc/MN+Nfb6xBl6zmto2H2XBw9+i0uNrfCVVCECDMWIzMyu9zDCbIhRcJtwNFffqMW5ofXqBNBbhr9zxiFCFPwZ3I9qBGPrB0Uj0BpHwed+rhgJHhcHjjEKenJtGgofV6PwrIIpZs1FOfnoXpIBUaPGoFrVi5F06WLkqX19PXDFwgrYZPFjPGjhqO7rRUD7j5MnTYVvkBEZBfHTp+DPxJB/eL5KK8phWZWpnSDlloCP6XJ9TaLdyZpw2L4IL0aZbGf8a1Tm5HpvrQWeB3SVQECBvPKi1KLQ4iOV50tBa2v9aS+PmsLfpz3KKbtmoDu/+xE67Z+5G8oQuV/1CIdI7fWjMohZbjpljX4fPtmJENBVJWWYuK48Th27CSOnz6NotIK9PQPMDeGxWaXXc5Uk6khd/vRXx5C/7QezF6xUBaGjt5kfQ4WioxjCghXRZeAeSaelMGvzLAHcbZVf1b0OAaDFIvUwtBclPUnm1okgFCAO3b0SOS6sjC0shynTp6QiRg81ewwUglmTCYwb8YUlOTl4Njhg3IKq6qHo3bMOHS5fdi4ZRuGjqzF6EkjkNbUbDZCM+q0qkFHfD6+dEL3slAkYxAtzqDGQj8mB4BcPXLHMoOUREUn02NZvzAzVazWpDUBrbP1hP6pbSN+UvQEJnw+Ep7n3Gjb4UbOx3nIf7xYTA7IqXVmW3HHXbfiy693wWoErl12NcqLS9HY1IL3PvoEdieVVb0IRqOic2Q+zqDH3RxNxHHxP87CN8eDK+fPzOweZegsMg2pQUgLIkNe1T58YLpOMM2UwC91Dq8Qogm8IvhnlGk3nQgZ/MUQjpM5oAtNqrKsRNLg4tIi+D0DIpuQtNzuhGa2St8k4O7BzMlXYMbkCQj73HKqWjq6sHjlakyePhPbv9yHzv5eVI+ulnpFkHpyrSWBUTidCJI5CoybjXbHXBgmNxIz1SR1XtM8YYIq84EZi+k6KLWQKpGVl7WOBBem8dIR/WPzejxa9TvUflSJ6MtBdO70IvvDXOQ+WgCL0YCiAjpAWHDXj2/F/oNfwaQnsXzxYoyoHYHde77CG2++jemz6xEIR9Hf75Hcv3/AI6xDUZNpGlqeaYZvrg91c6ZdLiLJAWCGw2OuXryaCSmGPBaDXA/8+2r4A8FSRSGi4y2P/eDEwTZCLn7K2Akd2RUAK9IHo3ChyTVuaW4WfzVp3Zqskj0y7U6FPChzObBo7nRMmTBW4Pc3334XzrxCDBszHuGUjubuHliyHGJmarQo/0wz2T8Wo6DOCilX15BM0OAzZ8DWFKcD8tky4C7pUEI3l+FEyj2dITVFf7MMzyBpS0C7cG6f/oFpA56sfQqVbxUi8nII7n0R2N91IOeRXFjpqexiE8iFO+6+BRcunZKm0Pw5s2V3v//+R9iwdQeGjRgFGK1ScBINIC2HH4gFHPs9F59qhHeOFzMbZqqHkLiu9JrMqvhA3C0ykyUVE8oT5ed8ZLZcZUiqFEBicKWI27qaCd3R1i74GFsBnFbL+igcCckfLS4uEuJiR6caOCpqU448YUqeiiPXAuRagfppE7B43hzkZWdh646d6HR7UTFsJMwOF3Yd+AZxgwVmu11sgKlKIPuHH5vFJ+EjVcmrhEfVKSp2CMIsMHJGsiIqZl2gfSYAwjPgNRinfijjq+pIQTtzeqe+3rEN/zb0adS8X4rgn33o+yoC2zt2uB7OZgRHXrYDo0bV4IGf3A2zDagoKxadCVPh5tY2nL3YIq6sh44exxl6okS40y3CORM43WBC47Ot8M0LYOqsKQro5N1KmhMfimY8GRthFn2EWkSOYFALJbGHsE1meB2xLZ4i8rGCgZCIgejUREyOznzSD0nEpJbi/c/ahM4XzKZoDqFEVXHkOswodJpQ7DRjTt141I0dAS2VxJlzZwGLHfXLVnKAJ/7+1ns43dINA9UJVo575OdhD0XBSCyMicFRLs+4yA3JjrCEd6nLBORQ16CwilQSQCcn9R0EuBF4iLVa0paEdur4Zv3z3C/xaNVTmLB5GAJ/cqNpmxf5H2djyG+KYdY0VJSVYPy4UVi8ZAGSiCM31yn5P5tJrrwC2JwuEeAcOfYtTp85g7Nnz+FSYzMGPLQcNMJqz8al/9kuCzNv4TxlV83dIh06JRMcnLupxg8TEVDoLOsGFqnceVKsyhxos5xWVvXuAQ+8brf83mAKy0xwULzLhaKTk7vPLTCLngFEmSTMmz4ZxS47ciw6Fs2aglHV5TLA7ty5cyipqMboK2cAlmzs+vow/vb2h0JxosMtGS/8vuzFkCMnn4ZkEgAACzFJREFUoKvQgBUgGyFLdVCaklmYwU6qmMRlRiSTHcNiU4VP0oxVVhpngXn62836RtcuPFb9LBYfmQnrP5LY8OIhXHl4FG7dugIV5WXIzy8Q7QqP/4DfLcguoQaHPQtDhtSisLRc4HaGMOpM6J3CRdqwcTO+3Ps1NKMdbS+44W8IoX7J/IxHpfKjvDwtVcsQ/mRqH9EAXRnHpdSCCMDJ9i8hm4yvC682mg3RdHqQ2svTKT6YcqknkeU04/rrVol9yN5dexAJx5HmTACDhmuWL8ayxfORYzOgtqoI+VlGpCIh0d4YzU7YXCWw5BQjpJvw8htv4usjR6SQJruSM8eIHNM9ipaNgyIlLgyvUTYRVdxRNo6MHyK/YEaZqXuYRRAbU11M1feX02aKQjt9bJO+wfUFHq95Djc1XY0lzTNxx/zfYM3AUjzd8YgEcMIXNEUjxYk6e0LkbLOOGjkGVVW10p8g40VyVU0ZtXHHtLd14E9/egnfHD6Oc0+1wVcfRP2yBjm6g3PPeGrIqZL2jSDLPO9qqANTadY3jI6CGxICoUKLtYzUQAb09vSgo6tNcDuSBk1GW4ZyS2e+BIyGJNZcvwL33nUbXn/1FaEWUYVGR4+FDfNwzz23oyDXAYsxDiviMCMh12MkriOetiIQ19AXTGLXwUP45ti3ItxiTOGVlJuXIzGGz80UmieW7Qt5hAxyrHSoqtXF51QiZFULMcVmWSDXmPxPeSVETRFoJ49s0j/L2YEnhz+P29pW4dru+bhu6iO4of8q/ObsPejt64Mv4FfYjsmArp5u9Pb0ojC3AAvnL0ZZWZXIth20a+RUWVEgk2wQRyplwN59B/DKq2/gy7VH4Jnrw9wl85T8jbzgDNVWHoIXXMbCnp+ZDyg0WwZVjcExLovB2ofjHkUzqutiV9/ZxaYdXwipRjTDppaSzTNaFoQxcfwIPL72IdhtRoFhzp85j3fe/kB264MP3oPJE8cA6TAsQtHg1HMNgVASgRhwvrkH+4+eRF8kLoo0m4OSEcYyu0ogQF4YszOrgLN80UK6ELaLqrlUQiNvUCknMkWqjICRJEZW8jIZI2aNQTt24BN9U+4u/HrUi7izczV+MLAUS8ffh+Vtc/DIkZuQINDIKj6dEuunS42XZNeNHj4Gq6+5Hvl5xVIXkPaZJDeZNB++Zl1Hd3c/Nmzcgt1ffY3dDx+Ee7YHcxbOFqhb6pVMbBEiQmZQjbjwZXaVoM+ZVJTXABebcA0XijUS72MyV/r66XDLMSvE4Kywm+2wkCOQjiMe9qC6Mh8Ns6agfs4s1AytEhvh5//0Ek6fv4D7HrgbCxrmQEtFCbrDTNgllkAswVnSRWjuGsD6rbvR7vYRMpdNR6IK/Q+opCNZjw5/PNisvbhYBDpZMogUnzYlQtdVMVUgJxmRMjhUXEE7/LWUzHdOIWlPQjv6zaf6lrw9eHLE87i1dSVWdy/AddMewaquevzmwj0IhEMIRSIiRu3p74VnwIOO1k5MrZuOlVevgtXiRLarANk5LiSSYYG++UF43dHa9tnnXkBKN+L0Hy9hYK4X8xbNUS0B4edmpjeJQacMILvcAiDMTzsuRetJKtIHT5SQGXgiyZbh4E+nTOzr7O6S4JmdlSfTmZLRKELefhhSQUweV4PxI6pgM2ko4cCEHBdOnjkrliFXLVkgrkrpZBQ2iwEmLS2a0UTaBIMlG80dbmzeuRcXO91IZ2oq2mIxASEDhp+ZuRU3ierCJuXzEs8TwqC4pCuZimRhYmHPy1hBUINNQsZFVUAboDt1aGeOb9e3FnyFh8t/hzXnF+OHvqtx3dSHZWEeO32rXGPs+PnCQfR7+tHf54Gn14OZ02ejYfYCMckuKCxBbl6+kK5ZGPL00Kf42Weex9/XvYna2hFofL5DFqb+qrmXJ6DzJPJGkgEIDP5CN2KGRhYkwU01YZzQBx9cNCpEpsm7ykyyZZra3dOFi5cuSOVdkF+C4vwixEJ+DPR2wGUD1qxahAmjqhHo60LE5xMldkl5uZg00GhVLH7ZPiB/wMgholH0eQI4ebYJJ8424nxLN8KaHQmYpY5h25qpODWqhPVpGS+2aNKJZdpOBg2v8pTEGqFeaSZxyVAutlwo1aeSdjzpuTIdKsODyNGgDfSf1j+xfI67s3+Bh/y34SbvCswasgZLWmbgvn2rEI5H4PWzFxERnbs/GBbh6ZUTpmDurAYE/FHk5xeionKIiEApaaM8g4bYj6x9XNS+tPBo/XM3vPN8mDanTgLlIKAnhaNBdfFUz4W7LYl0QimPLycEmcqafRv+Ghefdz2r95aWZnj9bnmwLLtLzHbCPg9ioQEMLcvD/XesQf3U8dASEUR9HqnBeAuwzw4aTeTkCb6neFWqdRxPa/AEIjj63Vns3HcEPcEULFkUNFmEAyA1CdHi/0MyThxNVSXqpKjToowrZJEE+8sUyZlEZ3BMMlH2QUf1lD0Fze9p1D+ybMCdjp/jF7F7cVv0Okx0LcWS1pm4cdNcuTepfeRXOBYX8jNbsYvmLcLkiVPE7LOktALl5eXiVc9rhR4Ap06dwR9+/wxaWjvExqr1xU4MzPVh6syJiqPLezaTnaldxGxFjatioSXc4cwo4f9uDjRfEH+fTbB2psspNULeaLBJQE3RvyWdwMjqYjx49xosnF0HUzKKVMiPSNAPr8eDtq5uORk5+UUoLq2Q2QSsgbhxYikNXX0e7P3mKI6fbUbCnAWjNVv4DNLmlha6UlqLJ45w2dTcHW40yjgG2xYqDWZBSrjGKD2Zy9w78QEwyvOyxhHuWZYOrb+3UV/v2IS7nQ/hkeh9uD16PSblLsbq/oW4ZecSNDc3Sr+DAqBAJCwNJqfVgRuuvQFV5UPFqr22dqTUOiKGDXMHN+H99z/EujfeRDAUQ3VNDdpe6oF3nh+z514p5A1ltUv5OAPmYMGZgS8kvVQ5pkynpZMGdxj/XKaekYCZITq43f0IhDwK2Ezz1HGBdFwxZiTqrhiG+bOuwNTxw2BKhKFHQnLN0QW9o7MLpy40wxdJIr+4DGXlFeJskZdfAIvdiYRuxFcHDmHnVweQtmQjrakB3JTKq/RXIRMEWwfHVaoTYBKXdDW7hnYvLIpNwn3gz6VEyJQHTJQEARE0RLU8tGxA6+1t0dfbN+KerJ/ikej9uC12Iya7FmKNfxke/vZmHDp4ULKxcIwdxZRoPsglvvPW22Ex2YX+M2bsBEkfFZySECODp55+Bp+t3wTNYEZZeSXaX+qBrz6AOfOmqO5fxr5JBgARzMscd1XPGFQ2pjJviStcELFWEVYJoQsaXNO8wSp9GEra+R6YTZFrTMzsJ/ffjcXzZ8CQ9MBlScJhSAHUkkYCCAc8YtZwtqkTpy+1wR+Ow+bMRlFpCYYNG4H8omJEEjr27D2AfYePQDPRYdwqiQev0EHGpOKgsaOpmDxKq8kTkKldMtJHsZzkeBp2OjkrTYbxMeDr0pdiO52bVZppWWlonoEe/UPzx7gn6wE8LAvzA9S55uPavoV46Nub0NTYiObmZmlOJVJpma1F99dbfnSr4E+phIax4yYIUEmNIheGXjP//rvfY+fO3TBoVmnlNr/QCW+9DzNmTc5oQyTSZbzPlJs4836myuRdsaJk1pIBVzKgoErDVa3JOsciL8Ht7hPjauoedd0MsyVLAvx1q1fgvrtvRmGOEQF3C6zpKFJhP+IhDxIRP/yBELq9IZxr7kZjew9C0bjIMZxZ2aJcZmv5YlOrGLDSV8dgVp7/l7uXzA7pG2MgoKliiuooAUSVhZdg+r6Yll2mrgFZBC6wYGnkygn/WsWgtCOF/w38xfxF94oZGgAAAABJRU5ErkJggg==;" vertex="1" parent="1">
          <mxGeometry x="3900" y="13940" width="289" height="292" as="geometry" />
        </mxCell>
      </root>
    </mxGraphModel>
  </diagram>
</mxfile>
